{
DisplayStrings = (
HHZHHHOOO
);
copyright = "Copyright (c) 2012 by vernon adams. All rights reserved.";
customParameters = (
{
name = glyphOrder;
value = (
    ".notdef",
    Eth,
    eth,
    Lslash,
    lslash,
    Scaron,
    scaron,
    Yacute,
    yacute,
    Thorn,
    thorn,
    Zcaron,
    zcaron,
    onehalf,
    onequarter,
    threequarters,
    brokenbar,
    minus,
    multiply,
    space,
    exclam,
    quotedbl,
    numbersign,
    dollar,
    percent,
    ampersand,
    quotesingle,
    parenleft,
    parenright,
    asterisk,
    plus,
    comma,
    hyphen,
    period,
    slash,
    zero,
    one,
    two,
    three,
    four,
    five,
    six,
    seven,
    eight,
    nine,
    colon,
    semicolon,
    less,
    equal,
    greater,
    question,
    at,
    A,
    B,
    C,
    D,
    E,
    F,
    G,
    H,
    I,
    J,
    K,
    L,
    M,
    N,
    O,
    P,
    Q,
    R,
    S,
    T,
    U,
    V,
    W,
    X,
    Y,
    Z,
    bracketleft,
    backslash,
    bracketright,
    asciicircum,
    underscore,
    grave,
    a,
    b,
    c,
    d,
    e,
    f,
    g,
    h,
    i,
    j,
    k,
    l,
    m,
    n,
    o,
    p,
    q,
    r,
    s,
    t,
    u,
    v,
    w,
    x,
    y,
    z,
    braceleft,
    bar,
    braceright,
    asciitilde,
    Adieresis,
    Aring,
    Ccedilla,
    Eacute,
    Ntilde,
    Odieresis,
    Udieresis,
    aacute,
    agrave,
    acircumflex,
    adieresis,
    atilde,
    aring,
    ccedilla,
    eacute,
    egrave,
    ecircumflex,
    edieresis,
    iacute,
    igrave,
    icircumflex,
    idieresis,
    ntilde,
    oacute,
    ograve,
    ocircumflex,
    odieresis,
    otilde,
    uacute,
    ugrave,
    ucircumflex,
    udieresis,
    dagger,
    degree,
    cent,
    sterling,
    section,
    bullet,
    paragraph,
    germandbls,
    registered,
    copyright,
    trademark,
    acute,
    dieresis,
    notequal,
    AE,
    Oslash,
    infinity,
    plusminus,
    lessequal,

glyphs = (
{
glyphname = eth;
lastChange = "2013-01-27 18:07:42 -0800";
layers = (
{
layerId = "E08CDE4C-5D6C-43D8-8149-5F9E51F0B944";
name = "Bold Condensed";
paths = (
{
closed = 1;
nodes = (
"844 1904 LINE",
"994 1820 OFFCURVE",
"1106 1720 OFFCURVE",
"1188 1572 CURVE",
"907 1572 LINE",
"907 1385 LINE",
"1264 1385 LINE",
"1297 1264 OFFCURVE",
"1312 1141 OFFCURVE",
"1313 985 CURVE",
"1313 972 LINE",
"1215 1128 OFFCURVE",
"1050 1209 OFFCURVE",
"804 1209 CURVE SMOOTH",
"709 1209 OFFCURVE",
"623 1194 OFFCURVE",
"546 1164 CURVE SMOOTH",
"332 1079 OFFCURVE",
"180 888 OFFCURVE",
"180 593 CURVE SMOOTH",
"180 503 OFFCURVE",
"195 418 OFFCURVE",
"227 341 CURVE SMOOTH",
"318 111 OFFCURVE",
"534 -47 OFFCURVE",
"853 -47 CURVE SMOOTH",
"964 -47 OFFCURVE",
"1062 -26 OFFCURVE",
"1149 14 CURVE SMOOTH",
"1433 150 OFFCURVE",
"1552 477 OFFCURVE",
"1552 902 CURVE SMOOTH",
"1552 1084 OFFCURVE",
"1528 1242 OFFCURVE",
"1487 1385 CURVE",
"1685 1385 LINE",
"1685 1572 LINE",
"1416 1572 LINE",
"1316 1780 OFFCURVE",
"1169 1934 OFFCURVE",
"951 2019 CURVE"
);
},
{
closed = 1;
nodes = (
"1073 1018 OFFCURVE",
"1233 891 OFFCURVE",
"1293 716 CURVE",
"1293 684 LINE SMOOTH",
"1293 380 OFFCURVE",
"1149 146 OFFCURVE",
"843 146 CURVE SMOOTH",
"778 146 OFFCURVE",
"721 156 OFFCURVE",
"669 178 CURVE SMOOTH",
"523 241 OFFCURVE",
"421 382 OFFCURVE",
"421 586 CURVE SMOOTH",
"421 856 OFFCURVE",
"569 1018 OFFCURVE",
"841 1018 CURVE SMOOTH"
);
}
);
width = 2437;
}
);
unicode = 00F0;
},
{
glyphname = Lslash;
lastChange = "2013-01-27 18:07:42 -0800";
layers = (
{
layerId = "E08CDE4C-5D6C-43D8-8149-5F9E51F0B944";
name = "Bold Condensed";
paths = (
{
closed = 1;
nodes = (
"286 1988 LINE",
"286 1013 LINE",
"31 855 LINE",
"31 667 LINE",
"286 826 LINE",
"286 0 LINE",
"1476 0 LINE",
"1476 202 LINE",
"521 202 LINE",
"521 972 LINE",
"910 1215 LINE",
"910 1402 LINE",
"521 1159 LINE",
"521 1988 LINE"
);
}
);
width = 2294;
}
);
unicode = 0141;
},
{
glyphname = lslash;
lastChange = "2013-01-27 18:07:42 -0800";
layers = (
{
layerId = "E08CDE4C-5D6C-43D8-8149-5F9E51F0B944";
name = "Bold Condensed";
paths = (
{
closed = 1;
nodes = (
"229 2037 LINE",
"229 1128 LINE",
"0 991 LINE",
"0 804 LINE",
"229 941 LINE",
"229 0 LINE",
"455 0 LINE",
"455 1076 LINE",
"688 1215 LINE",
"688 1402 LINE",
"455 1263 LINE",
"455 2037 LINE"
);
}
);
width = 1030;
}
);
unicode = 0142;
},
{
glyphname = Thorn;
lastChange = "2013-01-27 18:07:42 -0800";
layers = (
{
layerId = "E08CDE4C-5D6C-43D8-8149-5F9E51F0B944";
name = "Bold Condensed";
paths = (
{
closed = 1;
nodes = (
"416 1988 LINE",
"416 0 LINE",
"651 0 LINE",
"651 605 LINE",
"954 605 LINE SMOOTH",
"1182 605 OFFCURVE",
"1385 655 OFFCURVE",
"1529 745 CURVE SMOOTH",
"1669 834 OFFCURVE",
"1777 975 OFFCURVE",
"1777 1196 CURVE SMOOTH",
"1777 1681 OFFCURVE",
"1366 1791 OFFCURVE",
"881 1791 CURVE SMOOTH",
"651 1791 LINE",
"651 1988 LINE"
);
},
{
closed = 1;
nodes = (
"1269 1589 OFFCURVE",
"1526 1521 OFFCURVE",
"1526 1193 CURVE SMOOTH",
"1526 1127 OFFCURVE",
"1513 1068 OFFCURVE",
"1487 1020 CURVE SMOOTH",
"1409 873 OFFCURVE",
"1233 808 OFFCURVE",
"1007 808 CURVE SMOOTH",
"651 808 LINE",
"651 1589 LINE",
"941 1589 LINE SMOOTH"
);
}
);
width = 2609;
}
);
unicode = 00DE;
},
{
glyphname = thorn;
lastChange = "2013-01-27 18:07:42 -0800";
layers = (
{
layerId = "E08CDE4C-5D6C-43D8-8149-5F9E51F0B944";
name = "Bold Condensed";
paths = (
{
closed = 1;
nodes = (
"324 1695 LINE",
"324 -874 LINE",
"549 -874 LINE",
"549 -107 LINE",
"667 -251 OFFCURVE",
"823 -323 OFFCURVE",
"1020 -323 CURVE SMOOTH",
"1128 -323 OFFCURVE",
"1221 -302 OFFCURVE",
"1301 -261 CURVE SMOOTH",
"1524 -147 OFFCURVE",
"1663 97 OFFCURVE",
"1663 428 CURVE SMOOTH",
"1663 525 OFFCURVE",
"1649 615 OFFCURVE",
"1623 703 CURVE SMOOTH",
"1547 959 OFFCURVE",
"1353 1143 OFFCURVE",
"1020 1143 CURVE SMOOTH",
"800 1143 OFFCURVE",
"653 1049 OFFCURVE",
"552 913 CURVE",
"552 1695 LINE"
);
},
{
closed = 1;
nodes = (
"1303 961 OFFCURVE",
"1423 726 OFFCURVE",
"1423 420 CURVE SMOOTH",
"1423 113 OFFCURVE",
"1296 -143 OFFCURVE",
"987 -143 CURVE SMOOTH",
"916 -143 OFFCURVE",
"853 -129 OFFCURVE",
"799 -103 CURVE SMOOTH",
"639 -25 OFFCURVE",
"549 147 OFFCURVE",
"549 383 CURVE SMOOTH",
"549 708 OFFCURVE",
"669 961 OFFCURVE",
"995 961 CURVE SMOOTH"
);
}
);
width = 2537;
}
);
unicode = 00FE;
},
{
glyphname = onehalf;
lastChange = "2013-01-27 18:07:42 -0800";
layers = (
{
layerId = "E08CDE4C-5D6C-43D8-8149-5F9E51F0B944";
name = "Bold Condensed";
paths = (
{
closed = 1;
nodes = (
"545 1961 LINE",
"-690 0 LINE",
"-484 0 LINE",
"749 1961 LINE"
);
},
{
closed = 1;
nodes = (
"858 1966 OFFCURVE",
"729 1871 OFFCURVE",
"670 1734 CURVE",
"786 1627 LINE",
"831 1723 OFFCURVE",
"909 1807 OFFCURVE",
"1039 1807 CURVE SMOOTH",
"1146 1807 OFFCURVE",
"1229 1756 OFFCURVE",
"1229 1653 CURVE SMOOTH",
"1229 1615 OFFCURVE",
"1216 1573 OFFCURVE",
"1187 1527 CURVE SMOOTH",
"1159 1480 OFFCURVE",
"1120 1429 OFFCURVE",
"1070 1373 CURVE SMOOTH",
"948 1240 OFFCURVE",
"803 1109 OFFCURVE",
"659 976 CURVE",
"659 825 LINE",
"1404 825 LINE",
"1404 986 LINE",
"907 986 LINE",
"1033 1095 OFFCURVE",
"1160 1200 OFFCURVE",
"1261 1321 CURVE SMOOTH",
"1335 1411 OFFCURVE",
"1406 1513 OFFCURVE",
"1406 1656 CURVE SMOOTH",
"1406 1704 OFFCURVE",
"1396 1746 OFFCURVE",
"1379 1785 CURVE SMOOTH",
"1325 1895 OFFCURVE",
"1208 1966 OFFCURVE",
"1047 1966 CURVE SMOOTH"
);
},
{
closed = 1;
nodes = (
"2454 1928 LINE",
"2383 1885 OFFCURVE",
"2317 1849 OFFCURVE",
"2225 1820 CURVE",
"2223 1643 LINE",
"2292 1669 OFFCURVE",
"2371 1704 OFFCURVE",
"2431 1735 CURVE",
"2431 1595 LINE SMOOTH",
"2431 1524 OFFCURVE",
"2433 1457 OFFCURVE",
"2433 1376 CURVE SMOOTH",
"2433 987 LINE",
"2266 987 LINE",
"2266 825 LINE",
"2764 825 LINE",
"2764 983 LINE",
"2597 983 LINE",
"2597 1948 LINE"
);
}
);
width = 5628;
}
);
unicode = 00BD;
},
{
glyphname = onequarter;
lastChange = "2013-01-27 18:07:42 -0800";
layers = (
{
layerId = "E08CDE4C-5D6C-43D8-8149-5F9E51F0B944";
name = "Bold Condensed";
paths = (
{
closed = 1;
nodes = (
"545 1961 LINE",
"-690 0 LINE",
"-484 0 LINE",
"749 1961 LINE"
);
},
{
closed = 1;
nodes = (
"829 1928 LINE",
"759 1885 OFFCURVE",
"691 1849 OFFCURVE",
"600 1820 CURVE",
"599 1643 LINE",
"667 1669 OFFCURVE",
"746 1704 OFFCURVE",
"806 1735 CURVE",
"806 1595 LINE SMOOTH",
"806 1524 OFFCURVE",
"807 1457 OFFCURVE",
"807 1376 CURVE SMOOTH",
"807 987 LINE",
"641 987 LINE",
"641 825 LINE",
"1139 825 LINE",
"1139 983 LINE",
"973 983 LINE",
"973 1948 LINE"
);
},
{
closed = 1;
nodes = (
"2367 1928 LINE",
"1867 1221 LINE",
"1867 1097 LINE",
"2383 1097 LINE",
"2383 840 LINE",
"2547 840 LINE",
"2547 1097 LINE",
"2712 1097 LINE",
"2699 1243 LINE",
"2550 1243 LINE",
"2550 1928 LINE"
);
},
{
closed = 1;
nodes = (
"2383 1243 LINE",
"2057 1243 LINE",
"2383 1699 LINE"
);
}
);
width = 5028;
}
);
unicode = 00BC;
},
{
glyphname = threequarters;
lastChange = "2013-01-27 18:07:42 -0800";
layers = (
{
layerId = "E08CDE4C-5D6C-43D8-8149-5F9E51F0B944";
name = "Bold Condensed";
paths = (
{
closed = 1;
nodes = (
"545 1961 LINE",
"-690 0 LINE",
"-484 0 LINE",
"749 1961 LINE"
);
},
{
closed = 1;
nodes = (
"795 1967 OFFCURVE",
"669 1903 OFFCURVE",
"593 1829 CURVE",
"673 1699 LINE",
"739 1753 OFFCURVE",
"823 1805 OFFCURVE",
"935 1805 CURVE SMOOTH",
"1045 1805 OFFCURVE",
"1127 1763 OFFCURVE",
"1127 1652 CURVE SMOOTH",
"1127 1515 OFFCURVE",
"996 1487 OFFCURVE",
"858 1487 CURVE SMOOTH",
"791 1487 LINE",
"791 1325 LINE",
"827 1325 LINE SMOOTH",
"839 1325 OFFCURVE",
"858 1326 OFFCURVE",
"868 1326 CURVE SMOOTH",
"1022 1326 OFFCURVE",
"1161 1295 OFFCURVE",
"1161 1143 CURVE SMOOTH",
"1161 1017 OFFCURVE",
"1051 957 OFFCURVE",
"923 957 CURVE SMOOTH",
"833 957 OFFCURVE",
"752 993 OFFCURVE",
"675 1063 CURVE",
"593 933 LINE",
"671 855 OFFCURVE",
"783 800 OFFCURVE",
"929 800 CURVE SMOOTH",
"984 800 OFFCURVE",
"1037 808 OFFCURVE",
"1086 823 CURVE SMOOTH",
"1220 865 OFFCURVE",
"1337 967 OFFCURVE",
"1337 1139 CURVE SMOOTH",
"1337 1279 OFFCURVE",
"1264 1364 OFFCURVE",
"1163 1409 CURVE",
"1247 1454 OFFCURVE",
"1309 1535 OFFCURVE",
"1309 1656 CURVE SMOOTH",
"1309 1707 OFFCURVE",
"1298 1751 OFFCURVE",
"1277 1789 CURVE SMOOTH",
"1220 1895 OFFCURVE",
"1100 1967 OFFCURVE",
"937 1967 CURVE SMOOTH"
);
},
{
closed = 1;
nodes = (
"2367 1928 LINE",
"1867 1221 LINE",
"1867 1097 LINE",
"2383 1097 LINE",
"2383 840 LINE",
"2547 840 LINE",
"2547 1097 LINE",
"2712 1097 LINE",
"2699 1243 LINE",
"2550 1243 LINE",
"2550 1928 LINE"
);
},
{
closed = 1;
nodes = (
"2383 1243 LINE",
"2057 1243 LINE",
"2383 1699 LINE"
);
}
);
width = 5028;
}
);
unicode = 00BE;
},
{
glyphname = brokenbar;
lastChange = "2013-01-27 18:07:42 -0800";
layers = (
{
layerId = "E08CDE4C-5D6C-43D8-8149-5F9E51F0B944";
name = "Bold Condensed";
paths = (
{
closed = 1;
nodes = (
"344 201 LINE",
"344 -1006 LINE",
"559 -1006 LINE",
"559 201 LINE"
);
},
{
closed = 1;
nodes = (
"344 1774 LINE",
"344 589 LINE",
"559 589 LINE",
"559 1774 LINE"
);
}
);
width = 1024;
}
);
unicode = 00A6;
},
{
glyphname = minus;
lastChange = "2013-01-27 18:07:42 -0800";
layers = (
{
layerId = "E08CDE4C-5D6C-43D8-8149-5F9E51F0B944";
name = "Bold Condensed";
paths = (
{
closed = 1;
nodes = (
"406 1203 LINE",
"406 1016 LINE",
"1838 1016 LINE",
"1838 1203 LINE"
);
}
);
width = 2986;
}
);
unicode = 2212;
},
{
glyphname = multiply;
lastChange = "2013-01-27 18:07:42 -0800";
layers = (
{
layerId = "E08CDE4C-5D6C-43D8-8149-5F9E51F0B944";
name = "Bold Condensed";
paths = (
{
closed = 1;
nodes = (
"1206 1002 LINE",
"800 1408 LINE",
"659 1267 LINE",
"1064 862 LINE",
"659 456 LINE",
"800 315 LINE",
"1206 720 LINE",
"1610 315 LINE",
"1752 457 LINE",
"1346 862 LINE",
"1752 1266 LINE",
"1610 1408 LINE"
);
}
);
width = 2986;
}
);
unicode = 00D7;
},
{
glyphname = exclam;
lastChange = "2013-01-27 18:07:42 -0800";
layers = (
{
layerId = "E08CDE4C-5D6C-43D8-8149-5F9E51F0B944";
name = "Bold Condensed";
paths = (
{
closed = 1;
nodes = (
"427 1981 LINE",
"533 602 LINE",
"683 602 LINE",
"792 1981 LINE"
);
},
{
closed = 1;
nodes = (
"495 408 OFFCURVE",
"406 323 OFFCURVE",
"406 207 CURVE SMOOTH",
"406 87 OFFCURVE",
"493 0 OFFCURVE",
"615 0 CURVE SMOOTH",
"736 0 OFFCURVE",
"825 86 OFFCURVE",
"825 203 CURVE SMOOTH",
"825 322 OFFCURVE",
"737 408 OFFCURVE",
"616 408 CURVE SMOOTH"
);
}
);
width = 1509;
}
);
unicode = 0021;
},
{
glyphname = quotedbl;
lastChange = "2013-01-27 18:07:42 -0800";
layers = (
{
layerId = "E08CDE4C-5D6C-43D8-8149-5F9E51F0B944";
name = "Bold Condensed";
paths = (
{
closed = 1;
nodes = (
"233 2656 LINE",
"282 2025 LINE",
"461 2025 LINE",
"461 2656 LINE"
);
},
{
closed = 1;
nodes = (
"628 2656 LINE",
"677 2025 LINE",
"854 2025 LINE",
"854 2656 LINE"
);
}
);
width = 1475;
}
);
unicode = 0022;
},
{
glyphname = numbersign;
lastChange = "2013-01-27 18:07:42 -0800";
layers = (
{
layerId = "E08CDE4C-5D6C-43D8-8149-5F9E51F0B944";
name = "Bold Condensed";
paths = (
{
closed = 1;
nodes = (
"1223 1980 LINE",
"1119 1420 LINE",
"763 1420 LINE",
"869 1980 LINE",
"669 1980 LINE",
"561 1420 LINE",
"193 1420 LINE",
"175 1251 LINE",
"531 1251 LINE",
"508 1124 OFFCURVE",
"485 1004 OFFCURVE",
"463 875 CURVE",
"101 875 LINE",
"86 703 LINE",
"430 703 LINE",
"315 123 LINE",
"515 123 LINE",
"627 703 LINE",
"983 703 LINE",
"874 123 LINE",
"1072 123 LINE",
"1185 703 LINE",
"1540 703 LINE",
"1559 875 LINE",
"1215 875 LINE",
"1285 1251 LINE",
"1626 1251 LINE",
"1645 1420 LINE",
"1316 1420 LINE",
"1423 1980 LINE"
);
},
{
closed = 1;
nodes = (
"1017 875 LINE",
"657 875 LINE",
"731 1251 LINE",
"1087 1251 LINE"
);
}
);
width = 2544;
}
);
unicode = 0023;
},
{
glyphname = dollar;
lastChange = "2013-01-27 18:07:42 -0800";
layers = (
{
layerId = "E08CDE4C-5D6C-43D8-8149-5F9E51F0B944";
name = "Bold Condensed";
paths = (
{
closed = 1;
nodes = (
"817 2033 LINE",
"823 1845 LINE",
"668 1833 OFFCURVE",
"538 1763 OFFCURVE",
"447 1678 CURVE SMOOTH",
"360 1595 OFFCURVE",
"281 1472 OFFCURVE",
"281 1312 CURVE SMOOTH",
"281 1236 OFFCURVE",
"296 1171 OFFCURVE",
"324 1117 CURVE SMOOTH",
"422 937 OFFCURVE",
"626 855 OFFCURVE",
"823 767 CURVE",
"818 56 LINE",
"668 63 OFFCURVE",
"538 119 OFFCURVE",
"436 187 CURVE",
"370 4 LINE",
"491 -83 OFFCURVE",
"630 -135 OFFCURVE",
"820 -139 CURVE",
"826 -352 LINE",
"994 -352 LINE",
"989 -133 LINE",
"1067 -125 OFFCURVE",
"1142 -111 OFFCURVE",
"1212 -85 CURVE SMOOTH",
"1400 -16 OFFCURVE",
"1568 124 OFFCURVE",
"1568 375 CURVE SMOOTH",
"1568 534 OFFCURVE",
"1511 629 OFFCURVE",
"1421 707 CURVE SMOOTH",
"1306 807 OFFCURVE",
"1157 869 OFFCURVE",
"989 934 CURVE",
"992 1656 LINE",
"1160 1651 OFFCURVE",
"1292 1605 OFFCURVE",
"1388 1519 CURVE",
"1455 1693 LINE",
"1346 1786 OFFCURVE",
"1183 1843 OFFCURVE",
"991 1847 CURVE",
"986 2033 LINE"
);
},
{
closed = 1;
nodes = (
"1138 646 OFFCURVE",
"1324 575 OFFCURVE",
"1324 371 CURVE SMOOTH",
"1324 327 OFFCURVE",
"1314 287 OFFCURVE",
"1296 251 CURVE SMOOTH",
"1242 145 OFFCURVE",
"1128 81 OFFCURVE",
"986 61 CURVE",
"992 709 LINE"
);
},
{
closed = 1;
nodes = (
"820 999 LINE",
"674 1054 OFFCURVE",
"539 1129 OFFCURVE",
"539 1329 CURVE SMOOTH",
"539 1511 OFFCURVE",
"659 1627 OFFCURVE",
"823 1648 CURVE"
);
}
);
width = 2437;
}
);
unicode = 0024;
},
{
glyphname = percent;
lastChange = "2013-01-27 18:07:42 -0800";
layers = (
{
layerId = "E08CDE4C-5D6C-43D8-8149-5F9E51F0B944";
name = "Bold Condensed";
paths = (
{
closed = 1;
nodes = (
"1950 1942 LINE",
"715 -25 LINE",
"926 -25 LINE",
"2161 1942 LINE"
);
},
{
closed = 1;
nodes = (
"758 1957 OFFCURVE",
"689 1945 OFFCURVE",
"629 1918 CURVE SMOOTH",
"460 1842 OFFCURVE",
"344 1675 OFFCURVE",
"344 1434 CURVE SMOOTH",
"344 1362 OFFCURVE",
"355 1294 OFFCURVE",
"377 1231 CURVE SMOOTH",
"438 1051 OFFCURVE",
"585 918 OFFCURVE",
"825 918 CURVE SMOOTH",
"900 918 OFFCURVE",
"967 932 OFFCURVE",
"1027 959 CURVE SMOOTH",
"1195 1036 OFFCURVE",
"1312 1200 OFFCURVE",
"1312 1440 CURVE SMOOTH",
"1312 1748 OFFCURVE",
"1143 1957 OFFCURVE",
"833 1957 CURVE SMOOTH"
);
},
{
closed = 1;
nodes = (
"879 1804 OFFCURVE",
"923 1795 OFFCURVE",
"959 1776 CURVE SMOOTH",
"1063 1720 OFFCURVE",
"1117 1601 OFFCURVE",
"1117 1441 CURVE SMOOTH",
"1117 1242 OFFCURVE",
"1029 1072 OFFCURVE",
"830 1072 CURVE SMOOTH",
"628 1072 OFFCURVE",
"541 1234 OFFCURVE",
"541 1436 CURVE SMOOTH",
"541 1636 OFFCURVE",
"629 1804 OFFCURVE",
"831 1804 CURVE SMOOTH"
);
},
{
closed = 1;
nodes = (
"2026 985 OFFCURVE",
"1958 972 OFFCURVE",
"1898 944 CURVE SMOOTH",
"1729 868 OFFCURVE",
"1613 702 OFFCURVE",
"1613 461 CURVE SMOOTH",
"1613 388 OFFCURVE",
"1623 320 OFFCURVE",
"1645 258 CURVE SMOOTH",
"1708 77 OFFCURVE",
"1853 -55 OFFCURVE",
"2093 -55 CURVE SMOOTH",
"2168 -55 OFFCURVE",
"2235 -42 OFFCURVE",
"2295 -14 CURVE SMOOTH",
"2463 62 OFFCURVE",
"2581 228 OFFCURVE",
"2581 468 CURVE SMOOTH",
"2581 776 OFFCURVE",
"2411 985 OFFCURVE",
"2101 985 CURVE SMOOTH"
);
},
{
closed = 1;
nodes = (
"2299 831 OFFCURVE",
"2384 670 OFFCURVE",
"2384 469 CURVE SMOOTH",
"2384 270 OFFCURVE",
"2298 99 OFFCURVE",
"2097 99 CURVE SMOOTH",
"2048 99 OFFCURVE",
"2004 108 OFFCURVE",
"1969 128 CURVE SMOOTH",
"1863 184 OFFCURVE",
"1809 301 OFFCURVE",
"1809 460 CURVE SMOOTH",
"1809 660 OFFCURVE",
"1898 831 OFFCURVE",
"2100 831 CURVE SMOOTH"
);
}
);
width = 4065;
}
);
unicode = 0025;
},
{
glyphname = ampersand;
lastChange = "2013-01-27 18:07:42 -0800";
layers = (
{
layerId = "E08CDE4C-5D6C-43D8-8149-5F9E51F0B944";
name = "Bold Condensed";
paths = (
{
closed = 1;
nodes = (
"709 1993 OFFCURVE",
"487 1867 OFFCURVE",
"487 1596 CURVE SMOOTH",
"487 1548 OFFCURVE",
"494 1504 OFFCURVE",
"509 1464 CURVE SMOOTH",
"558 1330 OFFCURVE",
"659 1239 OFFCURVE",
"753 1145 CURVE",
"625 1076 OFFCURVE",
"494 998 OFFCURVE",
"397 899 CURVE SMOOTH",
"309 810 OFFCURVE",
"236 696 OFFCURVE",
"236 530 CURVE SMOOTH",
"236 438 OFFCURVE",
"253 354 OFFCURVE",
"291 282 CURVE SMOOTH",
"405 66 OFFCURVE",
"653 -55 OFFCURVE",
"981 -55 CURVE SMOOTH",
"1299 -55 OFFCURVE",
"1508 77 OFFCURVE",
"1671 236 CURVE",
"1793 118 OFFCURVE",
"1905 -5 OFFCURVE",
"2107 -35 CURVE",
"2288 99 LINE",
"2231 112 OFFCURVE",
"2180 124 OFFCURVE",
"2137 137 CURVE SMOOTH",
"1989 186 OFFCURVE",
"1900 266 OFFCURVE",
"1799 370 CURVE",
"1951 564 OFFCURVE",
"2064 835 OFFCURVE",
"2076 1160 CURVE",
"1848 1188 LINE",
"1848 1131 OFFCURVE",
"1843 1074 OFFCURVE",
"1833 1014 CURVE SMOOTH",
"1802 826 OFFCURVE",
"1732 655 OFFCURVE",
"1641 525 CURVE",
"1074 1104 LINE",
"1181 1161 OFFCURVE",
"1287 1231 OFFCURVE",
"1365 1316 CURVE SMOOTH",
"1431 1386 OFFCURVE",
"1493 1478 OFFCURVE",
"1493 1604 CURVE SMOOTH",
"1493 1670 OFFCURVE",
"1479 1726 OFFCURVE",
"1449 1776 CURVE SMOOTH",
"1366 1912 OFFCURVE",
"1198 1993 OFFCURVE",
"981 1993 CURVE SMOOTH"
);
},
{
closed = 1;
nodes = (
"1203 696 LINE SMOOTH",
"1297 602 OFFCURVE",
"1399 494 OFFCURVE",
"1491 406 CURVE SMOOTH",
"1509 388 OFFCURVE",
"1521 379 OFFCURVE",
"1523 379 CURVE",
"1391 250 OFFCURVE",
"1237 140 OFFCURVE",
"977 140 CURVE SMOOTH",
"905 140 OFFCURVE",
"838 150 OFFCURVE",
"778 170 CURVE SMOOTH",
"622 222 OFFCURVE",
"481 335 OFFCURVE",
"481 536 CURVE SMOOTH",
"481 595 OFFCURVE",
"493 648 OFFCURVE",
"515 694 CURVE SMOOTH",
"589 844 OFFCURVE",
"741 929 OFFCURVE",
"890 1006 CURVE"
);
},
{
closed = 1;
nodes = (
"1139 1811 OFFCURVE",
"1260 1739 OFFCURVE",
"1260 1590 CURVE SMOOTH",
"1260 1552 OFFCURVE",
"1250 1516 OFFCURVE",
"1231 1482 CURVE SMOOTH",
"1169 1370 OFFCURVE",
"1048 1296 OFFCURVE",
"932 1235 CURVE",
"901 1264 OFFCURVE",
"873 1291 OFFCURVE",
"847 1318 CURVE SMOOTH",
"785 1385 OFFCURVE",
"723 1466 OFFCURVE",
"723 1590 CURVE SMOOTH",
"723 1740 OFFCURVE",
"842 1811 OFFCURVE",
"992 1811 CURVE SMOOTH"
);
}
);
width = 3373;
}
);
unicode = 0026;
},
{
glyphname = quotesingle;
lastChange = "2013-01-27 18:07:42 -0800";
layers = (
{
layerId = "E08CDE4C-5D6C-43D8-8149-5F9E51F0B944";
name = "Bold Condensed";
paths = (
{
closed = 1;
nodes = (
"360 2656 LINE",
"409 2025 LINE",
"587 2025 LINE",
"587 2656 LINE"
);
}
);
width = 1135;
}
);
unicode = 0027;
},
{
glyphname = parenleft;
lastChange = "2013-01-27 18:07:42 -0800";
layers = (
{
layerId = "E08CDE4C-5D6C-43D8-8149-5F9E51F0B944";
name = "Bold Condensed";
paths = (
{
closed = 1;
nodes = (
"209 1518 OFFCURVE",
"86 1149 OFFCURVE",
"86 782 CURVE SMOOTH",
"86 424 OFFCURVE",
"202 66 OFFCURVE",
"437 -367 CURVE",
"743 -367 LINE",
"542 66 OFFCURVE",
"444 422 OFFCURVE",
"444 779 CURVE SMOOTH",
"444 1148 OFFCURVE",
"550 1516 OFFCURVE",
"757 1968 CURVE",
"451 1968 LINE"
);
}
);
width = 1286;
}
);
unicode = 0028;
},
{
glyphname = parenright;
lastChange = "2013-01-27 18:07:42 -0800";
layers = (
{
layerId = "E08CDE4C-5D6C-43D8-8149-5F9E51F0B944";
name = "Bold Condensed";
paths = (
{
closed = 1;
nodes = (
"86 1968 LINE",
"292 1516 OFFCURVE",
"399 1148 OFFCURVE",
"399 779 CURVE SMOOTH",
"399 422 OFFCURVE",
"301 66 OFFCURVE",
"99 -367 CURVE",
"405 -367 LINE",
"641 66 OFFCURVE",
"757 424 OFFCURVE",
"757 782 CURVE SMOOTH",
"757 1149 OFFCURVE",
"633 1518 OFFCURVE",
"392 1968 CURVE"
);
}
);
width = 1286;
}
);
unicode = 0029;
},
{
glyphname = asterisk;
lastChange = "2013-01-27 18:07:42 -0800";
layers = (
{
layerId = "E08CDE4C-5D6C-43D8-8149-5F9E51F0B944";
name = "Bold Condensed";
paths = (
{
closed = 1;
nodes = (
"719 2484 LINE",
"737 2348 OFFCURVE",
"757 2207 OFFCURVE",
"775 2070 CURVE",
"387 2238 LINE",
"358 2054 LINE",
"731 1948 LINE",
"470 1622 LINE",
"639 1520 LINE",
"849 1872 LINE",
"1064 1509 LINE",
"1236 1609 LINE",
"962 1952 LINE",
"1321 2072 LINE",
"1233 2242 LINE",
"913 2077 LINE",
"913 2484 LINE"
);
}
);
width = 2181;
}
);
unicode = 002A;
},
{
glyphname = plus;
lastChange = "2013-01-27 18:07:42 -0800";
layers = (
{
layerId = "E08CDE4C-5D6C-43D8-8149-5F9E51F0B944";
name = "Bold Condensed";
paths = (
{
closed = 1;
nodes = (
"1021 1472 LINE",
"1021 894 LINE",
"406 894 LINE",
"406 704 LINE",
"1017 704 LINE",
"1017 127 LINE",
"1221 127 LINE",
"1221 704 LINE",
"1837 704 LINE",
"1837 894 LINE",
"1223 894 LINE",
"1223 1472 LINE"
);
}
);
width = 2986;
}
);
unicode = 002B;
},
{
glyphname = comma;
lastChange = "2013-01-27 18:07:42 -0800";
layers = (
{
layerId = "E08CDE4C-5D6C-43D8-8149-5F9E51F0B944";
name = "Bold Condensed";
paths = (
{
closed = 1;
nodes = (
"306 108 LINE",
"160 -524 LINE",
"339 -524 LINE",
"561 108 LINE"
);
}
);
width = 1106;
}
);
unicode = 002C;
},
{
glyphname = hyphen;
lastChange = "2013-01-27 18:31:20 -0800";
layers = (
{
layerId = "E08CDE4C-5D6C-43D8-8149-5F9E51F0B944";
name = "Bold Condensed";
paths = (
{
closed = 1;
nodes = (
"162 1159 LINE",
"162 1001 LINE",
"824 1001 LINE",
"824 1159 LINE"
);
}
);
width = 1491;
}
);
unicode = 002D;
},
{
glyphname = period;
lastChange = "2013-01-27 18:31:18 -0800";
layers = (
{
layerId = "E08CDE4C-5D6C-43D8-8149-5F9E51F0B944";
name = "Bold Condensed";
paths = (
{
closed = 1;
nodes = (
"256 374 OFFCURVE",
"176 297 OFFCURVE",
"176 190 CURVE SMOOTH",
"176 79 OFFCURVE",
"255 0 OFFCURVE",
"367 0 CURVE SMOOTH",
"479 0 OFFCURVE",
"559 77 OFFCURVE",
"559 186 CURVE SMOOTH",
"559 296 OFFCURVE",
"480 374 OFFCURVE",
"368 374 CURVE SMOOTH"
);
}
);
width = 1106;
}
);
unicode = 002E;
},
{
glyphname = slash;
lastChange = "2013-01-27 18:31:15 -0800";
layers = (
{
layerId = "E08CDE4C-5D6C-43D8-8149-5F9E51F0B944";
name = "Bold Condensed";
paths = (
{
closed = 1;
nodes = (
"640 1488 LINE",
"-96 -440 LINE",
"93 -440 LINE",
"834 1488 LINE"
);
}
);
width = 1468;
}
);
unicode = 002F;
},
{
glyphname = zero;
lastChange = "2013-01-27 18:31:12 -0800";
layers = (
{
layerId = "E08CDE4C-5D6C-43D8-8149-5F9E51F0B944";
name = "Bold Condensed";
paths = (
{
closed = 1;
nodes = (
"334 1661 OFFCURVE",
"68 1317 OFFCURVE",
"68 801 CURVE SMOOTH",
"68 292 OFFCURVE",
"334 -47 OFFCURVE",
"732 -47 CURVE SMOOTH",
"1133 -47 OFFCURVE",
"1402 292 OFFCURVE",
"1402 801 CURVE SMOOTH",
"1402 1317 OFFCURVE",
"1133 1661 OFFCURVE",
"732 1661 CURVE SMOOTH"
);
},
{
closed = 1;
nodes = (
"939 1406 OFFCURVE",
"1076 1164 OFFCURVE",
"1076 801 CURVE SMOOTH",
"1076 445 OFFCURVE",
"939 207 OFFCURVE",
"732 207 CURVE SMOOTH",
"523 207 OFFCURVE",
"385 445 OFFCURVE",
"385 801 CURVE SMOOTH",
"385 1164 OFFCURVE",
"523 1406 OFFCURVE",
"732 1406 CURVE SMOOTH"
);
}
);
width = 2497;
}
);
unicode = 0030;
},
{
glyphname = one;
lastChange = "2013-01-27 18:31:10 -0800";
layers = (
{
layerId = "E08CDE4C-5D6C-43D8-8149-5F9E51F0B944";
name = "Bold Condensed";
paths = (
{
closed = 1;
nodes = (
"854 1662 LINE",
"776 1603 OFFCURVE",
"612 1506 OFFCURVE",
"477 1445 CURVE",
"547 1247 LINE",
"670 1298 OFFCURVE",
"769 1353 OFFCURVE",
"846 1412 CURVE",
"846 0 LINE",
"1158 0 LINE",
"1158 1664 LINE"
);
}
);
width = 2437;
}
);
unicode = 0031;
},
{
glyphname = two;
lastChange = "2013-01-27 18:31:09 -0800";
layers = (
{
guideLines = (
{
angle = 0;
position = "{252, 1721}";
},
{
angle = 0;
position = "{1212, 1472}";
}
);
layerId = "E08CDE4C-5D6C-43D8-8149-5F9E51F0B944";
name = "Bold Condensed";
paths = (
{
closed = 1;
nodes = (
"1020 1721 OFFCURVE",
"725 1721 CURVE SMOOTH",
"474 1721 OFFCURVE",
"220 1613 OFFCURVE",
"129 1406 CURVE",
"322 1247 LINE",
"408 1394 OFFCURVE",
"567 1465 OFFCURVE",
"708 1465 CURVE SMOOTH",
"854 1465 OFFCURVE",
"979 1389 OFFCURVE",
"979 1219 CURVE SMOOTH",
"979 867 OFFCURVE",
"423 459 OFFCURVE",
"170 230 CURVE",
"171 0 LINE",
"1254 0 LINE",
"1254 250 LINE",
"582 250 LINE",
"735 391 OFFCURVE",
"1308 794 OFFCURVE",
"1308 1222 CURVE SMOOTH",
"1308 1569 OFFCURVE"
);
}
);
width = 2556;
}
);
unicode = 0032;
},
{
glyphname = three;
lastChange = "2013-01-27 18:31:08 -0800";
layers = (
{
guideLines = (
{
angle = 0;
position = "{1502, 1702}";
},
{
angle = 0;
position = "{1047, 1448}";
},
{
angle = 0;
position = "{719, -44}";
},
{
angle = 0;
position = "{680, 209}";
}
);
layerId = "E08CDE4C-5D6C-43D8-8149-5F9E51F0B944";
name = "Bold Condensed";
paths = (
{
closed = 1;
nodes = (
"989 1700 OFFCURVE",
"713 1700 CURVE SMOOTH",
"513 1700 OFFCURVE",
"300 1621 OFFCURVE",
"166 1465 CURVE",
"326 1287 LINE",
"413 1393 OFFCURVE",
"552 1446 OFFCURVE",
"680 1446 CURVE SMOOTH",
"829 1446 OFFCURVE",
"971 1375 OFFCURVE",
"971 1204 CURVE",
"971 985 OFFCURVE",
"741 966 OFFCURVE",
"588 966 CURVE SMOOTH",
"515 966 LINE",
"518 724 LINE",
"607 726 LINE",
"607 727 LINE",
"621 727 OFFCURVE",
"635 729 OFFCURVE",
"648 729 CURVE SMOOTH",
"845 729 OFFCURVE",
"1022 678 OFFCURVE",
"1022 438 CURVE SMOOTH",
"1022 311 OFFCURVE",
"899 208 OFFCURVE",
"727 208 CURVE SMOOTH",
"600 208 OFFCURVE",
"447 264 OFFCURVE",
"293 404 CURVE",
"185 194 LINE",
"300 37 OFFCURVE",
"509 -43 OFFCURVE",
"716 -43 CURVE SMOOTH",
"1005 -43 OFFCURVE",
"1285 115 OFFCURVE",
"1285 435 CURVE SMOOTH",
"1285 727 OFFCURVE",
"1091 838 OFFCURVE",
"999 868 CURVE",
"1085 910 OFFCURVE",
"1241 1010 OFFCURVE",
"1241 1238 CURVE SMOOTH",
"1241 1550 OFFCURVE"
);
}
);
width = 2437;
}
);
unicode = 0033;
},
{
glyphname = four;
lastChange = "2013-01-27 18:31:07 -0800";
layers = (
{
layerId = "E08CDE4C-5D6C-43D8-8149-5F9E51F0B944";
name = "Bold Condensed";
paths = (
{
closed = 1;
nodes = (
"798 1643 LINE",
"51 596 LINE",
"51 374 LINE",
"827 374 LINE",
"827 0 LINE",
"1128 0 LINE",
"1128 374 LINE",
"1343 374 LINE",
"1343 605 LINE",
"1128 605 LINE",
"1128 1643 LINE"
);
},
{
closed = 1;
nodes = (
"827 605 LINE",
"354 605 LINE",
"703 1106 LINE",
"827 1309 LINE"
);
}
);
width = 2435;
}
);
unicode = 0034;
},
{
glyphname = five;
lastChange = "2013-01-27 18:31:05 -0800";
layers = (
{
guideLines = (
{
angle = 0;
position = "{1287, -37}";
},
{
angle = 0;
position = "{1417, 218}";
}
);
layerId = "E08CDE4C-5D6C-43D8-8149-5F9E51F0B944";
name = "Bold Condensed";
paths = (
{
closed = 1;
nodes = (
"366 1633 LINE",
"366 725 LINE",
"570 725 LINE",
"794 951 OFFCURVE",
"1127 874 OFFCURVE",
"1127 507 CURVE SMOOTH",
"1127 260 OFFCURVE",
"763 52 OFFCURVE",
"406 411 CURVE",
"301 184 LINE",
"652 -227 OFFCURVE",
"1409 -33 OFFCURVE",
"1409 504 CURVE SMOOTH",
"1409 1088 OFFCURVE",
"861 1201 OFFCURVE",
"619 966 CURVE",
"636 1401 LINE",
"1282 1401 LINE",
"1282 1633 LINE"
);
}
);
width = 2437;
}
);
unicode = 0035;
},
{
glyphname = six;
lastChange = "2013-01-27 18:31:04 -0800";
layers = (
{
guideLines = (
{
angle = 0;
position = "{1, -40}";
}
);
layerId = "E08CDE4C-5D6C-43D8-8149-5F9E51F0B944";
name = "Bold Condensed";
paths = (
{
closed = 1;
nodes = (
"1105 1695 LINE",
"864 1827 LINE",
"427 1093 LINE",
"330 932 OFFCURVE",
"219 680 OFFCURVE",
"219 534 CURVE SMOOTH",
"219 151 OFFCURVE",
"519 -41 OFFCURVE",
"817 -41 CURVE SMOOTH",
"1113 -41 OFFCURVE",
"1407 148 OFFCURVE",
"1407 529 CURVE SMOOTH",
"1407 839 OFFCURVE",
"1167 1085 OFFCURVE",
"843 1085 CURVE SMOOTH",
"688 1085 OFFCURVE",
"728 1058 OFFCURVE",
"719 1051 CURVE"
);
},
{
closed = 1;
nodes = (
"969 195 OFFCURVE",
"805 195 CURVE SMOOTH",
"640 195 OFFCURVE",
"475 302 OFFCURVE",
"475 514 CURVE SMOOTH",
"475 744 OFFCURVE",
"637 856 OFFCURVE",
"800 856 CURVE SMOOTH",
"966 856 OFFCURVE",
"1132 740 OFFCURVE",
"1132 512 CURVE SMOOTH",
"1132 301 OFFCURVE"
);
}
);
width = 2556;
}
);
unicode = 0036;
},
{
glyphname = seven;
lastChange = "2013-01-27 18:31:03 -0800";
layers = (
{
layerId = "E08CDE4C-5D6C-43D8-8149-5F9E51F0B944";
name = "Bold Condensed";
paths = (
{
closed = 1;
nodes = (
"240 1643 LINE",
"240 1412 LINE",
"1054 1412 LINE",
"434 0 LINE",
"750 0 LINE",
"1362 1433 LINE",
"1362 1643 LINE"
);
}
);
width = 2449;
}
);
unicode = 0037;
},
{
glyphname = eight;
lastChange = "2013-01-27 18:31:02 -0800";
layers = (
{
layerId = "E08CDE4C-5D6C-43D8-8149-5F9E51F0B944";
name = "Bold Condensed";
paths = (
{
closed = 1;
nodes = (
"710 1661 OFFCURVE",
"643 1650 OFFCURVE",
"577 1632 CURVE SMOOTH",
"405 1581 OFFCURVE",
"254 1461 OFFCURVE",
"254 1242 CURVE SMOOTH",
"254 1018 OFFCURVE",
"396 900 OFFCURVE",
"578 844 CURVE",
"371 783 OFFCURVE",
"213 650 OFFCURVE",
"213 405 CURVE SMOOTH",
"213 332 OFFCURVE",
"229 267 OFFCURVE",
"260 211 CURVE SMOOTH",
"349 51 OFFCURVE",
"538 -47 OFFCURVE",
"785 -47 CURVE SMOOTH",
"945 -47 OFFCURVE",
"1087 0 OFFCURVE",
"1183 70 CURVE SMOOTH",
"1280 139 OFFCURVE",
"1356 245 OFFCURVE",
"1356 405 CURVE SMOOTH",
"1356 650 OFFCURVE",
"1198 783 OFFCURVE",
"990 844 CURVE",
"1173 900 OFFCURVE",
"1316 1018 OFFCURVE",
"1316 1242 CURVE SMOOTH",
"1316 1308 OFFCURVE",
"1302 1367 OFFCURVE",
"1274 1419 CURVE SMOOTH",
"1194 1572 OFFCURVE",
"1017 1661 OFFCURVE",
"785 1661 CURVE SMOOTH"
);
},
{
closed = 1;
nodes = (
"966 722 OFFCURVE",
"1151 635 OFFCURVE",
"1151 419 CURVE SMOOTH",
"1151 369 OFFCURVE",
"1143 327 OFFCURVE",
"1124 289 CURVE SMOOTH",
"1070 178 OFFCURVE",
"949 117 OFFCURVE",
"785 117 CURVE SMOOTH",
"577 117 OFFCURVE",
"417 212 OFFCURVE",
"417 419 CURVE SMOOTH",
"417 467 OFFCURVE",
"427 508 OFFCURVE",
"446 545 CURVE SMOOTH",
"505 664 OFFCURVE",
"634 728 OFFCURVE",
"785 758 CURVE"
);
},
{
closed = 1;
nodes = (
"965 1503 OFFCURVE",
"1116 1417 OFFCURVE",
"1116 1236 CURVE SMOOTH",
"1116 1040 OFFCURVE",
"966 962 OFFCURVE",
"785 928 CURVE",
"603 962 OFFCURVE",
"453 1040 OFFCURVE",
"453 1236 CURVE SMOOTH",
"453 1279 OFFCURVE",
"461 1317 OFFCURVE",
"479 1350 CURVE SMOOTH",
"530 1447 OFFCURVE",
"640 1503 OFFCURVE",
"785 1503 CURVE SMOOTH"
);
}
);
width = 2449;
}
);
unicode = 0038;
},
{
glyphname = nine;
lastChange = "2013-01-27 18:31:00 -0800";
layers = (
{
guideLines = (
{
angle = 0;
position = "{333, 1611}";
},
{
angle = 0;
position = "{550, 1355}";
}
);
layerId = "E08CDE4C-5D6C-43D8-8149-5F9E51F0B944";
name = "Bold Condensed";
paths = (
{
closed = 1;
nodes = (
"522 -127 LINE",
"763 -258 LINE",
"1200 475 LINE SMOOTH",
"1296 636 OFFCURVE",
"1407 889 OFFCURVE",
"1407 1034 CURVE SMOOTH",
"1407 1417 OFFCURVE",
"1108 1609 OFFCURVE",
"810 1609 CURVE SMOOTH",
"513 1609 OFFCURVE",
"219 1421 OFFCURVE",
"219 1039 CURVE SMOOTH",
"219 730 OFFCURVE",
"459 484 OFFCURVE",
"784 484 CURVE SMOOTH",
"938 484 OFFCURVE",
"898 511 OFFCURVE",
"908 517 CURVE"
);
},
{
closed = 1;
nodes = (
"657 1373 OFFCURVE",
"821 1373 CURVE SMOOTH",
"986 1373 OFFCURVE",
"1152 1266 OFFCURVE",
"1152 1054 CURVE SMOOTH",
"1152 825 OFFCURVE",
"989 711 OFFCURVE",
"827 711 CURVE SMOOTH",
"661 711 OFFCURVE",
"494 828 OFFCURVE",
"494 1056 CURVE SMOOTH",
"494 1268 OFFCURVE"
);
}
);
width = 2556;
}
);
unicode = 0039;
},
{
glyphname = colon;
lastChange = "2013-01-27 18:07:42 -0800";
layers = (
{
layerId = "E08CDE4C-5D6C-43D8-8149-5F9E51F0B944";
name = "Bold Condensed";
paths = (
{
closed = 1;
nodes = (
"326 1427 LINE",
"326 1140 LINE",
"622 1140 LINE",
"622 1427 LINE"
);
},
{
closed = 1;
nodes = (
"326 264 LINE",
"326 -23 LINE",
"622 -23 LINE",
"622 264 LINE"
);
}
);
width = 1106;
}
);
unicode = 003A;
},
{
glyphname = semicolon;
lastChange = "2013-01-27 18:07:42 -0800";
layers = (
{
layerId = "E08CDE4C-5D6C-43D8-8149-5F9E51F0B944";
name = "Bold Condensed";
paths = (
{
closed = 1;
nodes = (
"350 108 LINE",
"205 -524 LINE",
"384 -524 LINE",
"606 108 LINE"
);
},
{
closed = 1;
nodes = (
"350 1260 LINE",
"286 973 LINE",
"582 973 LINE",
"582 1260 LINE"
);
}
);
width = 1106;
}
);
unicode = 003B;
},
{
glyphname = less;
lastChange = "2013-01-27 18:30:57 -0800";
layers = (
{
layerId = "E08CDE4C-5D6C-43D8-8149-5F9E51F0B944";
name = "Bold Condensed";
paths = (
{
closed = 1;
nodes = (
"449 731 LINE",
"449 630 LINE",
"1611 98 LINE",
"1611 274 LINE",
"702 681 LINE",
"1615 1101 LINE",
"1615 1277 LINE"
);
}
);
width = 2986;
}
);
unicode = 003C;
},
{
glyphname = equal;
lastChange = "2013-01-27 18:30:55 -0800";
layers = (
{
layerId = "E08CDE4C-5D6C-43D8-8149-5F9E51F0B944";
name = "Bold Condensed";
paths = (
{
closed = 1;
nodes = (
"403 1210 LINE",
"403 1049 LINE",
"1617 1049 LINE",
"1617 1210 LINE"
);
},
{
closed = 1;
nodes = (
"405 738 LINE",
"405 580 LINE",
"1618 580 LINE",
"1618 738 LINE"
);
}
);
width = 2986;
}
);
unicode = 003D;
},
{
glyphname = greater;
lastChange = "2013-01-27 18:30:54 -0800";
layers = (
{
layerId = "E08CDE4C-5D6C-43D8-8149-5F9E51F0B944";
name = "Bold Condensed";
paths = (
{
closed = 1;
nodes = (
"446 1123 LINE",
"1353 694 LINE",
"440 297 LINE",
"440 119 LINE",
"1609 636 LINE",
"1609 739 LINE",
"446 1300 LINE"
);
}
);
width = 2986;
}
);
unicode = 003E;
},
{
glyphname = question;
lastChange = "2013-01-27 18:30:53 -0800";
layers = (
{
layerId = "E08CDE4C-5D6C-43D8-8149-5F9E51F0B944";
name = "Bold Condensed";
paths = (
{
closed = 1;
nodes = (
"1001 1711 OFFCURVE",
"745 1711 CURVE SMOOTH",
"625 1711 OFFCURVE",
"495 1685 OFFCURVE",
"375 1635 CURVE",
"410 1443 LINE",
"496 1492 OFFCURVE",
"603 1523 OFFCURVE",
"699 1523 CURVE SMOOTH",
"841 1523 OFFCURVE",
"961 1455 OFFCURVE",
"961 1279 CURVE SMOOTH",
"961 1036 OFFCURVE",
"574 984 OFFCURVE",
"574 475 CURVE SMOOTH",
"574 458 OFFCURVE",
"574 442 OFFCURVE",
"575 426 CURVE",
"707 426 LINE",
"707 858 OFFCURVE",
"1215 897 OFFCURVE",
"1215 1311 CURVE SMOOTH",
"1215 1590 OFFCURVE"
);
},
{
closed = 1;
nodes = (
"533 346 OFFCURVE",
"458 274 OFFCURVE",
"458 175 CURVE SMOOTH",
"458 74 OFFCURVE",
"532 0 OFFCURVE",
"635 0 CURVE SMOOTH",
"739 0 OFFCURVE",
"813 73 OFFCURVE",
"813 172 CURVE SMOOTH",
"813 273 OFFCURVE",
"739 346 OFFCURVE",
"637 346 CURVE SMOOTH"
);
}
);
width = 2114;
}
);
unicode = 003F;
},
{
glyphname = at;
lastChange = "2013-01-27 18:30:51 -0800";
layers = (
{
guideLines = (
{
angle = 0;
position = "{597, 1611}";
},
{
angle = 0;
position = "{414, -223}";
},
{
angle = 0;
position = "{322, -23}";
},
{
angle = 0;
position = "{2224, 1413}";
}
);
layerId = "E08CDE4C-5D6C-43D8-8149-5F9E51F0B944";
name = "Bold Condensed";
paths = (
{
closed = 1;
nodes = (
"1733 102 LINE",
"1575 20 OFFCURVE",
"1397 -22 OFFCURVE",
"1225 -22 CURVE SMOOTH",
"817 -22 OFFCURVE",
"438 213 OFFCURVE",
"438 695 CURVE SMOOTH",
"438 1176 OFFCURVE",
"829 1412 OFFCURVE",
"1203 1412 CURVE SMOOTH",
"1545 1412 OFFCURVE",
"1873 1213 OFFCURVE",
"1873 824 CURVE SMOOTH",
"1873 483 OFFCURVE",
"1733 352 OFFCURVE",
"1630 352 CURVE SMOOTH",
"1571 352 OFFCURVE",
"1524 395 OFFCURVE",
"1524 465 CURVE SMOOTH",
"1524 485 OFFCURVE",
"1587 772 OFFCURVE",
"1681 1184 CURVE",
"1467 1184 LINE",
"1422 1085 LINE",
"1343 1180 OFFCURVE",
"1246 1220 OFFCURVE",
"1145 1220 CURVE SMOOTH",
"889 1220 OFFCURVE",
"616 956 OFFCURVE",
"616 633 CURVE SMOOTH",
"616 359 OFFCURVE",
"791 199 OFFCURVE",
"982 199 CURVE SMOOTH",
"1104 199 OFFCURVE",
"1231 264 OFFCURVE",
"1322 405 CURVE",
"1323 261 OFFCURVE",
"1454 198 OFFCURVE",
"1585 198 CURVE SMOOTH",
"1899 198 OFFCURVE",
"2107 446 OFFCURVE",
"2107 819 CURVE SMOOTH",
"2107 1352 OFFCURVE",
"1667 1612 OFFCURVE",
"1206 1612 CURVE SMOOTH",
"697 1612 OFFCURVE",
"164 1344 OFFCURVE",
"164 689 CURVE SMOOTH",
"164 100 OFFCURVE",
"653 -223 OFFCURVE",
"1190 -223 CURVE SMOOTH",
"1407 -223 OFFCURVE",
"1633 -170 OFFCURVE",
"1837 -59 CURVE"
);
},
{
closed = 1;
nodes = (
"1072 1041 OFFCURVE",
"1206 1041 CURVE SMOOTH",
"1283 1041 OFFCURVE",
"1345 985 OFFCURVE",
"1345 861 CURVE SMOOTH",
"1345 551 OFFCURVE",
"1182 392 OFFCURVE",
"1053 392 CURVE SMOOTH",
"966 392 OFFCURVE",
"893 463 OFFCURVE",
"893 608 CURVE SMOOTH",
"893 878 OFFCURVE"
);
}
);
width = 3881;
}
);
unicode = 0040;
},
{
glyphname = A;
lastChange = "2013-01-27 18:38:46 -0800";
layers = (
{
anchors = (
{
name = ogonek;
position = "{1541, 11}";
},
{
name = top;
position = "{883, 1685}";
}
);
layerId = "E08CDE4C-5D6C-43D8-8149-5F9E51F0B944";
name = "Bold Condensed";
paths = (
{
closed = 1;
nodes = (
"749 1685 LINE",
"88 0 LINE",
"407 0 LINE",
"733 872 LINE",
"883 1303 LINE",
"1038 872 LINE",
"1353 0 LINE",
"1685 0 LINE",
"1031 1685 LINE"
);
},
{
closed = 1;
nodes = (
"492 620 LINE",
"492 389 LINE",
"1302 389 LINE",
"1302 620 LINE"
);
}
);
width = 1773;
}
);
unicode = 0041;
},
{
glyphname = B;
lastChange = "2013-01-27 18:29:57 -0800";
layers = (
{
layerId = "E08CDE4C-5D6C-43D8-8149-5F9E51F0B944";
name = "Bold Condensed";
paths = (
{
closed = 1;
nodes = (
"340 1685 LINE",
"340 0 LINE",
"986 0 LINE SMOOTH",
"1467 0 OFFCURVE",
"1673 147 OFFCURVE",
"1673 488 CURVE SMOOTH",
"1673 736 OFFCURVE",
"1568 860 OFFCURVE",
"1321 901 CURVE",
"1517 957 OFFCURVE",
"1600 1070 OFFCURVE",
"1600 1279 CURVE SMOOTH",
"1600 1564 OFFCURVE",
"1393 1685 OFFCURVE",
"909 1685 CURVE SMOOTH"
);
},
{
closed = 1;
nodes = (
"641 1451 LINE",
"909 1451 LINE SMOOTH",
"1193 1451 OFFCURVE",
"1314 1390 OFFCURVE",
"1314 1235 CURVE SMOOTH",
"1314 1055 OFFCURVE",
"1198 978 OFFCURVE",
"926 978 CURVE SMOOTH",
"641 978 LINE"
);
},
{
closed = 1;
nodes = (
"641 764 LINE",
"960 764 LINE SMOOTH",
"1259 764 OFFCURVE",
"1387 686 OFFCURVE",
"1387 503 CURVE SMOOTH",
"1387 311 OFFCURVE",
"1265 234 OFFCURVE",
"978 234 CURVE SMOOTH",
"641 234 LINE"
);
}
);
width = 2949;
}
);
unicode = 0042;
},
{
glyphname = C;
lastChange = "2013-01-27 18:29:55 -0800";
layers = (
{
anchors = (
{
name = bottom;
position = "{1065, -20}";
},
{
name = top;
position = "{1085, 1665}";
}
);
layerId = "E08CDE4C-5D6C-43D8-8149-5F9E51F0B944";
name = "Bold Condensed";
paths = (
{
closed = 1;
nodes = (
"1563 380 LINE",
"1448 288 OFFCURVE",
"1265 228 OFFCURVE",
"1109 228 CURVE SMOOTH",
"756 228 OFFCURVE",
"520 464 OFFCURVE",
"520 819 CURVE SMOOTH",
"520 1183 OFFCURVE",
"757 1424 OFFCURVE",
"1110 1424 CURVE SMOOTH",
"1256 1424 OFFCURVE",
"1426 1365 OFFCURVE",
"1534 1278 CURVE",
"1636 1522 LINE",
"1506 1627 OFFCURVE",
"1292 1697 OFFCURVE",
"1100 1697 CURVE SMOOTH",
"561 1697 OFFCURVE",
"203 1346 OFFCURVE",
"203 820 CURVE SMOOTH",
"203 301 OFFCURVE",
"561 -45 OFFCURVE",
"1099 -45 CURVE SMOOTH",
"1303 -45 OFFCURVE",
"1526 24 OFFCURVE",
"1653 127 CURVE"
);
}
);
width = 2117;
}
);
unicode = 0043;
},
{
glyphname = D;
lastChange = "2013-01-27 19:05:39 -0800";
layers = (
{
anchors = (
{
name = center;
position = "{386, 882}";
},
{
name = top;
position = "{885, 1685}";
}
);
layerId = "E08CDE4C-5D6C-43D8-8149-5F9E51F0B944";
name = "Bold Condensed";
paths = (
{
closed = 1;
nodes = (
"216 1685 LINE",
"216 0 LINE",
"742 0 LINE SMOOTH",
"1434 0 OFFCURVE",
"1730 257 OFFCURVE",
"1730 858 CURVE SMOOTH",
"1730 1437 OFFCURVE",
"1413 1685 OFFCURVE",
"674 1685 CURVE SMOOTH"
);
},
{
closed = 1;
nodes = (
"526 1440 LINE",
"713 1440 LINE SMOOTH",
"1207 1440 OFFCURVE",
"1419 1265 OFFCURVE",
"1419 855 CURVE SMOOTH",
"1419 428 OFFCURVE",
"1222 245 OFFCURVE",
"761 245 CURVE SMOOTH",
"526 245 LINE"
);
}
);
width = 1902;
}
);
unicode = 0044;
},
{
glyphname = E;
lastChange = "2013-01-27 19:06:19 -0800";
layers = (
{
anchors = (
{
name = bottom;
position = "{785, 0}";
},
{
name = ogonek;
position = "{973, 0}";
},
{
name = top;
position = "{777, 1685}";
}
);
layerId = "E08CDE4C-5D6C-43D8-8149-5F9E51F0B944";
name = "Bold Condensed";
paths = (
{
closed = 1;
nodes = (
"1271 1685 LINE",
"216 1685 LINE",
"216 0 LINE",
"1329 0 LINE",
"1329 245 LINE",
"517 245 LINE",
"517 747 LINE",
"1227 747 LINE",
"1227 974 LINE",
"517 974 LINE",
"517 1440 LINE",
"1271 1440 LINE"
);
}
);
width = 1468;
}
);
unicode = 0045;
},
{
glyphname = F;
lastChange = "2013-01-27 19:25:59 -0800";
layers = (
{
layerId = "E08CDE4C-5D6C-43D8-8149-5F9E51F0B944";
name = "Bold Condensed";
paths = (
{
closed = 1;
nodes = (
"216 1685 LINE",
"216 0 LINE",
"517 0 LINE",
"517 772 LINE",
"1210 772 LINE",
"1210 1001 LINE",
"517 1001 LINE",
"517 1440 LINE",
"1249 1440 LINE",
"1249 1685 LINE"
);
}
);
width = 1406;
}
);
unicode = 0046;
},
{
glyphname = G;
lastChange = "2013-01-27 19:26:26 -0800";
layers = (
{
anchors = (
{
name = bottom;
position = "{1071, -20}";
},
{
name = top;
position = "{1088, 1665}";
}
);
guideLines = (
{
angle = 0;
position = "{1103, 1705}";
},
{
angle = 0;
position = "{722, 1449}";
}
);
layerId = "E08CDE4C-5D6C-43D8-8149-5F9E51F0B944";
name = "Bold Condensed";
paths = (
{
closed = 1;
nodes = (
"1706 891 LINE",
"1054 891 LINE",
"1054 684 LINE",
"1442 684 LINE",
"1442 265 LINE",
"1361 231 OFFCURVE",
"1227 210 OFFCURVE",
"1105 210 CURVE SMOOTH",
"736 210 OFFCURVE",
"489 447 OFFCURVE",
"489 807 CURVE SMOOTH",
"489 1193 OFFCURVE",
"751 1451 OFFCURVE",
"1142 1451 CURVE SMOOTH",
"1280 1451 OFFCURVE",
"1459 1403 OFFCURVE",
"1594 1332 CURVE",
"1689 1548 LINE",
"1534 1643 OFFCURVE",
"1302 1706 OFFCURVE",
"1109 1706 CURVE SMOOTH",
"547 1706 OFFCURVE",
"172 1340 OFFCURVE",
"172 791 CURVE SMOOTH",
"172 290 OFFCURVE",
"539 -45 OFFCURVE",
"1090 -45 CURVE SMOOTH",
"1307 -45 OFFCURVE",
"1553 2 OFFCURVE",
"1706 74 CURVE"
);
}
);
width = 1910;
}
);
unicode = 0047;
},
{
glyphname = H;
lastChange = "2013-01-27 18:38:16 -0800";
layers = (
{
anchors = (
{
name = center;
position = "{929, 1403}";
},
{
name = top;
position = "{929, 1684}";
}
);
layerId = "E08CDE4C-5D6C-43D8-8149-5F9E51F0B944";
name = "Bold Condensed";
paths = (
{
closed = 1;
nodes = (
"1379 1684 LINE",
"1379 988 LINE",
"517 988 LINE",
"517 1684 LINE",
"216 1684 LINE",
"216 0 LINE",
"517 0 LINE",
"517 738 LINE",
"1379 738 LINE",
"1379 0 LINE",
"1669 0 LINE",
"1669 1684 LINE"
);
}
);
width = 1885;
}
);
unicode = 0048;
},
{
glyphname = I;
lastChange = "2013-01-27 19:26:51 -0800";
layers = (
{
anchors = (
{
name = ogonek;
position = "{438, 0}";
},
{
name = top;
position = "{366, 1685}";
}
);
layerId = "E08CDE4C-5D6C-43D8-8149-5F9E51F0B944";
name = "Bold Condensed";
paths = (
{
closed = 1;
nodes = (
"216 1685 LINE",
"216 0 LINE",
"517 0 LINE",
"517 1685 LINE"
);
}
);
width = 733;
}
);
unicode = 0049;
},
{
glyphname = J;
lastChange = "2013-01-27 19:28:29 -0800";
layers = (
{
anchors = (
{
name = top;
position = "{789, 1684}";
}
);
layerId = "E08CDE4C-5D6C-43D8-8149-5F9E51F0B944";
name = "Bold Condensed";
paths = (
{
closed = 1;
nodes = (
"249 1684 LINE",
"249 1439 LINE",
"691 1439 LINE",
"691 339 LINE SMOOTH",
"691 17 OFFCURVE",
"488 -49 OFFCURVE",
"180 105 CURVE",
"96 -133 LINE",
"482 -369 OFFCURVE",
"992 -251 OFFCURVE",
"992 341 CURVE SMOOTH",
"992 1439 LINE",
"1306 1439 LINE",
"1306 1684 LINE"
);
}
);
width = 1500;
}
);
unicode = 004A;
},
{
glyphname = K;
lastChange = "2013-01-27 19:29:13 -0800";
layers = (
{
anchors = (
{
name = bottom;
position = "{783, 0}";
},
{
name = top;
position = "{827, 1685}";
}
);
layerId = "E08CDE4C-5D6C-43D8-8149-5F9E51F0B944";
name = "Bold Condensed";
paths = (
{
closed = 1;
nodes = (
"1158 1685 LINE",
"517 956 LINE",
"517 1685 LINE",
"216 1685 LINE",
"216 0 LINE",
"517 0 LINE",
"517 792 LINE",
"1175 0 LINE",
"1559 0 LINE",
"812 899 LINE",
"1520 1685 LINE"
);
}
);
width = 1557;
}
);
unicode = 004B;
},
{
glyphname = L;
lastChange = "2013-01-27 19:30:07 -0800";
layers = (
{
anchors = (
{
name = bottom;
position = "{719, 0}";
},
{
name = top;
position = "{675, 1685}";
}
);
layerId = "E08CDE4C-5D6C-43D8-8149-5F9E51F0B944";
name = "Bold Condensed";
paths = (
{
closed = 1;
nodes = (
"517 245 LINE",
"517 1685 LINE",
"216 1685 LINE",
"216 0 LINE",
"1268 0 LINE",
"1268 245 LINE"
);
}
);
width = 1307;
}
);
unicode = 004C;
},
{
glyphname = M;
lastChange = "2013-01-27 19:31:09 -0800";
layers = (
{
layerId = "E08CDE4C-5D6C-43D8-8149-5F9E51F0B944";
name = "Bold Condensed";
paths = (
{
closed = 1;
nodes = (
"2104 1685 LINE",
"1759 1685 LINE",
"1264 855 LINE",
"1166 662 LINE",
"1066 852 LINE",
"574 1685 LINE",
"216 1685 LINE",
"216 0 LINE",
"519 0 LINE",
"519 1272 LINE",
"642 1017 LINE",
"1091 266 LINE",
"1236 266 LINE",
"1688 1003 LINE",
"1813 1252 LINE",
"1813 0 LINE",
"2104 0 LINE"
);
}
);
width = 2320;
}
);
unicode = 004D;
},
{
glyphname = N;
lastChange = "2013-01-27 19:31:25 -0800";
layers = (
{
anchors = (
{
name = bottom;
position = "{980, 0}";
},
{
name = top;
position = "{980, 1685}";
}
);
layerId = "E08CDE4C-5D6C-43D8-8149-5F9E51F0B944";
name = "Bold Condensed";
paths = (
{
closed = 1;
nodes = (
"1746 1685 LINE",
"1478 1685 LINE",
"1478 364 LINE",
"1330 581 LINE",
"524 1685 LINE",
"216 1685 LINE",
"216 0 LINE",
"485 0 LINE",
"485 1292 LINE",
"625 1103 LINE",
"1435 0 LINE",
"1746 0 LINE"
);
}
);
width = 1962;
}
);
unicode = 004E;
},
{
glyphname = O;
lastChange = "2013-01-27 18:33:10 -0800";
layers = (
{
anchors = (
{
name = top;
position = "{1019, 1665}";
}
);
guideLines = (
{
angle = 0;
position = "{1022, 1700}";
},
{
angle = 0;
position = "{1022, 1446}";
},
{
angle = 0;
position = "{-737, 1700}";
}
);
layerId = "E08CDE4C-5D6C-43D8-8149-5F9E51F0B944";
name = "Bold Condensed";
paths = (
{
closed = 1;
nodes = (
"512 1700 OFFCURVE",
"172 1351 OFFCURVE",
"172 826 CURVE SMOOTH",
"172 303 OFFCURVE",
"512 -45 OFFCURVE",
"1022 -45 CURVE SMOOTH",
"1532 -45 OFFCURVE",
"1873 303 OFFCURVE",
"1873 826 CURVE SMOOTH",
"1873 1351 OFFCURVE",
"1532 1700 OFFCURVE",
"1022 1700 CURVE SMOOTH"
);
},
{
closed = 1;
nodes = (
"1342 1446 OFFCURVE",
"1556 1197 OFFCURVE",
"1556 823 CURVE SMOOTH",
"1556 455 OFFCURVE",
"1342 210 OFFCURVE",
"1022 210 CURVE SMOOTH",
"702 210 OFFCURVE",
"489 455 OFFCURVE",
"489 823 CURVE SMOOTH",
"489 1197 OFFCURVE",
"702 1446 OFFCURVE",
"1022 1446 CURVE SMOOTH"
);
}
);
width = 2045;
}
);
unicode = 004F;
},
{
glyphname = P;
lastChange = "2013-01-27 19:31:52 -0800";
layers = (
{
layerId = "E08CDE4C-5D6C-43D8-8149-5F9E51F0B944";
name = "Bold Condensed";
paths = (
{
closed = 1;
nodes = (
"216 1685 LINE",
"216 0 LINE",
"526 0 LINE",
"526 621 LINE",
"774 621 LINE SMOOTH",
"1274 621 OFFCURVE",
"1490 785 OFFCURVE",
"1490 1166 CURVE SMOOTH",
"1490 1530 OFFCURVE",
"1267 1685 OFFCURVE",
"745 1685 CURVE SMOOTH"
);
},
{
closed = 1;
nodes = (
"773 1455 LINE SMOOTH",
"1056 1455 OFFCURVE",
"1178 1370 OFFCURVE",
"1178 1164 CURVE SMOOTH",
"1178 948 OFFCURVE",
"1063 857 OFFCURVE",
"796 857 CURVE SMOOTH",
"526 857 LINE",
"526 1455 LINE"
);
}
);
width = 1548;
}
);
unicode = 0050;
},
{
glyphname = Q;
lastChange = "2013-01-27 19:32:20 -0800";
layers = (
{
components = (
{
name = O;
transform = "{1, 0, 0, 1, 0, 0}";
}
);
layerId = "E08CDE4C-5D6C-43D8-8149-5F9E51F0B944";
name = "Bold Condensed";
paths = (
{
closed = 1;
nodes = (
"1119 -21 LINE",
"1207 -209 OFFCURVE",
"1334 -359 OFFCURVE",
"1468 -494 CURVE",
"1679 -312 LINE",
"1566 -206 OFFCURVE",
"1464 -86 OFFCURVE",
"1391 64 CURVE"
);
}
);
width = 2045;
}
);
unicode = 0051;
},
{
glyphname = R;
lastChange = "2013-01-27 19:32:46 -0800";
layers = (
{
anchors = (
{
name = bottom;
position = "{834, 0}";
},
{
name = top;
position = "{785, 1685}";
}
);
layerId = "E08CDE4C-5D6C-43D8-8149-5F9E51F0B944";
name = "Bold Condensed";
paths = (
{
closed = 1;
nodes = (
"216 1685 LINE",
"216 0 LINE",
"517 0 LINE",
"517 742 LINE",
"748 742 LINE SMOOTH",
"891 742 OFFCURVE",
"978 664 OFFCURVE",
"1037 485 CURVE SMOOTH",
"1202 0 LINE",
"1524 0 LINE",
"1358 475 LINE SMOOTH",
"1288 677 OFFCURVE",
"1200 782 OFFCURVE",
"1063 827 CURVE",
"1330 897 OFFCURVE",
"1445 1021 OFFCURVE",
"1445 1243 CURVE SMOOTH",
"1445 1552 OFFCURVE",
"1241 1685 OFFCURVE",
"764 1685 CURVE SMOOTH"
);
},
{
closed = 1;
nodes = (
"791 1455 LINE SMOOTH",
"1045 1455 OFFCURVE",
"1153 1411 OFFCURVE",
"1153 1225 CURVE SMOOTH",
"1153 1031 OFFCURVE",
"1041 947 OFFCURVE",
"779 947 CURVE SMOOTH",
"517 947 LINE",
"517 1455 LINE"
);
}
);
width = 1620;
}
);
unicode = 0052;
},
{
glyphname = S;
lastChange = "2013-01-27 19:33:20 -0800";
layers = (
{
anchors = (
{
name = bottom;
position = "{775, -20}";
},
{
name = top;
position = "{791, 1697}";
}
);
guideLines = (
{
angle = 0;
position = "{1250, 1697}";
},
{
angle = 0;
position = "{1520, -44}";
},
{
angle = 0;
position = "{656, 1447}";
},
{
angle = 0;
position = "{1491, 211}";
}
);
layerId = "E08CDE4C-5D6C-43D8-8149-5F9E51F0B944";
name = "Bold Condensed";
paths = (
{
closed = 1;
nodes = (
"979 1697 OFFCURVE",
"791 1697 CURVE SMOOTH",
"352 1697 OFFCURVE",
"192 1459 OFFCURVE",
"192 1207 CURVE SMOOTH",
"192 1006 OFFCURVE",
"284 858 OFFCURVE",
"673 746 CURVE SMOOTH",
"1089 624 OFFCURVE",
"1123 560 OFFCURVE",
"1123 442 CURVE SMOOTH",
"1123 284 OFFCURVE",
"995 199 OFFCURVE",
"803 199 CURVE SMOOTH",
"649 199 OFFCURVE",
"452 253 OFFCURVE",
"247 367 CURVE",
"201 123 LINE",
"363 21 OFFCURVE",
"611 -45 OFFCURVE",
"826 -45 CURVE SMOOTH",
"1217 -45 OFFCURVE",
"1391 173 OFFCURVE",
"1391 437 CURVE SMOOTH",
"1391 673 OFFCURVE",
"1318 833 OFFCURVE",
"851 958 CURVE SMOOTH",
"528 1045 OFFCURVE",
"469 1124 OFFCURVE",
"469 1227 CURVE SMOOTH",
"469 1359 OFFCURVE",
"561 1459 OFFCURVE",
"808 1459 CURVE SMOOTH",
"947 1459 OFFCURVE",
"1110 1422 OFFCURVE",
"1257 1344 CURVE",
"1332 1552 LINE",
"1179 1646 OFFCURVE"
);
}
);
width = 1503;
}
);
unicode = 0053;
},
{
glyphname = T;
lastChange = "2013-01-27 19:33:50 -0800";
layers = (
{
anchors = (
{
name = bottom;
position = "{711, 0}";
},
{
name = center;
position = "{712, 953}";
},
{
name = top;
position = "{712, 1685}";
}
);
layerId = "E08CDE4C-5D6C-43D8-8149-5F9E51F0B944";
name = "Bold Condensed";
paths = (
{
closed = 1;
nodes = (
"1358 1685 LINE",
"66 1685 LINE",
"66 1455 LINE",
"562 1455 LINE",
"562 0 LINE",
"862 0 LINE",
"862 1455 LINE",
"1358 1455 LINE"
);
}
);
width = 1424;
}
);
unicode = 0054;
},
{
glyphname = U;
lastChange = "2013-01-27 19:34:21 -0800";
layers = (
{
anchors = (
{
name = ogonek;
position = "{959, -20}";
},
{
name = top;
position = "{929, 1665}";
}
);
layerId = "E08CDE4C-5D6C-43D8-8149-5F9E51F0B944";
name = "Bold Condensed";
paths = (
{
closed = 1;
nodes = (
"1355 1665 LINE",
"1355 611 LINE SMOOTH",
"1355 367 OFFCURVE",
"1189 203 OFFCURVE",
"938 203 CURVE SMOOTH",
"673 203 OFFCURVE",
"497 370 OFFCURVE",
"497 619 CURVE SMOOTH",
"497 1665 LINE",
"196 1665 LINE",
"196 613 LINE SMOOTH",
"196 219 OFFCURVE",
"493 -45 OFFCURVE",
"940 -45 CURVE SMOOTH",
"1370 -45 OFFCURVE",
"1655 224 OFFCURVE",
"1655 625 CURVE SMOOTH",
"1655 1665 LINE"
);
}
);
width = 1851;
}
);
unicode = 0055;
},
{
glyphname = V;
lastChange = "2013-01-27 19:34:37 -0800";
layers = (
{
layerId = "E08CDE4C-5D6C-43D8-8149-5F9E51F0B944";
name = "Bold Condensed";
paths = (
{
closed = 1;
nodes = (
"1618 1686 LINE",
"1287 1686 LINE",
"940 734 LINE",
"815 378 LINE",
"681 735 LINE",
"323 1686 LINE",
"4 1686 LINE",
"652 2 LINE",
"976 2 LINE"
);
}
);
width = 1622;
}
);
unicode = 0056;
},
{
glyphname = W;
lastChange = "2013-01-27 19:34:59 -0800";
layers = (
{
anchors = (
{
name = top;
position = "{1293, 1685}";
}
);
layerId = "E08CDE4C-5D6C-43D8-8149-5F9E51F0B944";
name = "Bold Condensed";
paths = (
{
closed = 1;
nodes = (
"1748 0 LINE",
"2005 0 LINE",
"2529 1685 LINE",
"2240 1685 LINE",
"1957 714 LINE",
"1873 449 LINE",
"1779 709 LINE",
"1404 1685 LINE",
"1195 1685 LINE",
"817 714 LINE",
"718 448 LINE",
"640 714 LINE",
"350 1685 LINE",
"54 1685 LINE",
"579 1 LINE",
"836 1 LINE",
"1293 1223 LINE"
);
}
);
width = 2583;
}
);
unicode = 0057;
},
{
glyphname = X;
lastChange = "2013-01-27 19:35:51 -0800";
layers = (
{
layerId = "E08CDE4C-5D6C-43D8-8149-5F9E51F0B944";
name = "Bold Condensed";
paths = (
{
closed = 1;
nodes = (
"311 0 LINE",
"869 728 LINE",
"979 805 LINE",
"1628 1685 LINE",
"1311 1685 LINE",
"796 992 LINE",
"693 926 LINE",
"-8 0 LINE"
);
},
{
closed = 1;
nodes = (
"379 1685 LINE",
"49 1685 LINE",
"1293 0 LINE SMOOTH",
"1608 0 LINE"
);
}
);
width = 1620;
}
);
unicode = 0058;
},
{
glyphname = Y;
lastChange = "2013-01-27 19:36:12 -0800";
layers = (
{
anchors = (
{
name = top;
position = "{744, 1685}";
}
);
layerId = "E08CDE4C-5D6C-43D8-8149-5F9E51F0B944";
name = "Bold Condensed";
paths = (
{
closed = 1;
nodes = (
"584 0 LINE",
"896 0 LINE",
"896 677 LINE",
"1491 1685 LINE",
"1189 1685 LINE",
"743 916 LINE",
"326 1685 LINE",
"12 1685 LINE",
"584 674 LINE"
);
}
);
width = 1503;
}
);
unicode = 0059;
},
{
glyphname = Z;
lastChange = "2013-01-27 19:36:34 -0800";
layers = (
{
anchors = (
{
name = top;
position = "{797, 1685}";
}
);
layerId = "E08CDE4C-5D6C-43D8-8149-5F9E51F0B944";
name = "Bold Condensed";
paths = (
{
closed = 1;
nodes = (
"152 1685 LINE",
"152 1440 LINE",
"1038 1440 LINE",
"116 230 LINE",
"116 0 LINE",
"1374 0 LINE",
"1374 245 LINE",
"465 245 LINE",
"1384 1474 LINE",
"1384 1685 LINE"
);
}
);
width = 1502;
}
);
unicode = 005A;
},
{
glyphname = bracketleft;
lastChange = "2013-01-27 18:30:32 -0800";
layers = (
{
layerId = "E08CDE4C-5D6C-43D8-8149-5F9E51F0B944";
name = "Bold Condensed";
paths = (
{
closed = 1;
nodes = (
"193 1449 LINE",
"193 -530 LINE",
"718 -530 LINE",
"718 -380 LINE",
"494 -380 LINE",
"494 1298 LINE",
"717 1298 LINE",
"717 1449 LINE"
);
}
);
width = 1286;
}
);
unicode = 005B;
},
{
glyphname = backslash;
lastChange = "2013-01-27 18:30:33 -0800";
layers = (
{
layerId = "E08CDE4C-5D6C-43D8-8149-5F9E51F0B944";
name = "Bold Condensed";
paths = (
{
closed = 1;
nodes = (
"-143 1573 LINE",
"571 -244 LINE",
"844 -244 LINE",
"132 1573 LINE"
);
}
);
width = 1446;
}
);
unicode = 005C;
},
{
glyphname = bracketright;
lastChange = "2013-01-27 18:30:35 -0800";
layers = (
{
layerId = "E08CDE4C-5D6C-43D8-8149-5F9E51F0B944";
name = "Bold Condensed";
paths = (
{
closed = 1;
nodes = (
"194 1298 LINE",
"418 1298 LINE",
"418 -380 LINE",
"193 -380 LINE",
"193 -530 LINE",
"718 -530 LINE",
"718 1449 LINE",
"194 1449 LINE"
);
}
);
width = 1286;
}
);
unicode = 005D;
},
{
glyphname = asciicircum;
lastChange = "2013-01-27 18:30:37 -0800";
layers = (
{
layerId = "E08CDE4C-5D6C-43D8-8149-5F9E51F0B944";
name = "Bold Condensed";
paths = (
{
closed = 1;
nodes = (
"934 2147 LINE",
"377 1126 LINE",
"558 1126 LINE",
"990 1947 LINE",
"1437 1126 LINE",
"1616 1126 LINE",
"1051 2147 LINE"
);
}
);
width = 2984;
}
);
unicode = 005E;
},
{
glyphname = underscore;
lastChange = "2013-01-27 18:30:38 -0800";
layers = (
{
layerId = "E08CDE4C-5D6C-43D8-8149-5F9E51F0B944";
name = "Bold Condensed";
paths = (
{
closed = 1;
nodes = (
"-10 -411 LINE",
"-10 -559 LINE",
"1150 -559 LINE",
"1150 -411 LINE"
);
}
);
width = 2042;
}
);
unicode = 005F;
},
{
glyphname = grave;
lastChange = "2013-01-27 18:30:40 -0800";
layers = (
{
anchors = (
{
name = _top;
position = "{346, 2231}";
}
);
layerId = "E08CDE4C-5D6C-43D8-8149-5F9E51F0B944";
name = "Bold Condensed";
paths = (
{
closed = 1;
nodes = (
"-121 2770 LINE",
"263 2400 LINE",
"482 2400 LINE",
"196 2770 LINE"
);
}
);
width = 1214;
}
);
unicode = 0060;
},
{
glyphname = a;
lastChange = "2013-01-27 18:14:56 -0800";
layers = (
{
anchors = (
{
name = ogonek;
position = "{1284, -2}";
},
{
name = top;
position = "{731, 1162}";
}
);
layerId = "E08CDE4C-5D6C-43D8-8149-5F9E51F0B944";
name = "Bold Condensed";
paths = (
{
closed = 1;
nodes = (
"390 1162 OFFCURVE",
"110 876 OFFCURVE",
"110 474 CURVE SMOOTH",
"110 171 OFFCURVE",
"316 -45 OFFCURVE",
"622 -45 CURVE SMOOTH",
"785 -45 OFFCURVE",
"950 44 OFFCURVE",
"1013 166 CURVE",
"1044 54 OFFCURVE",
"1183 -24 OFFCURVE",
"1354 -24 CURVE",
"1445 210 LINE",
"1336 210 OFFCURVE",
"1250 277 OFFCURVE",
"1250 368 CURVE SMOOTH",
"1250 1034 LINE",
"1138 1100 OFFCURVE",
"946 1162 OFFCURVE",
"786 1162 CURVE SMOOTH"
);
},
{
closed = 1;
nodes = (
"838 931 OFFCURVE",
"921 918 OFFCURVE",
"969 892 CURVE",
"969 468 LINE SMOOTH",
"969 302 OFFCURVE",
"835 184 OFFCURVE",
"644 184 CURVE SMOOTH",
"501 184 OFFCURVE",
"399 308 OFFCURVE",
"399 485 CURVE SMOOTH",
"399 747 OFFCURVE",
"553 931 OFFCURVE",
"771 931 CURVE SMOOTH"
);
}
);
width = 1481;
}
);
unicode = 0061;
},
{
glyphname = b;
lastChange = "2013-01-27 18:07:42 -0800";
layers = (
{
layerId = "E08CDE4C-5D6C-43D8-8149-5F9E51F0B944";
name = "Bold Condensed";
paths = (
{
closed = 1;
nodes = (
"266 1749 LINE",
"266 60 LINE",
"267 60 OFFCURVE",
"516 -45 OFFCURVE",
"885 -45 CURVE SMOOTH",
"1253 -45 OFFCURVE",
"1499 210 OFFCURVE",
"1499 594 CURVE SMOOTH",
"1499 935 OFFCURVE",
"1290 1162 OFFCURVE",
"976 1162 CURVE SMOOTH",
"801 1162 OFFCURVE",
"628 1082 OFFCURVE",
"550 962 CURVE",
"550 1782 LINE"
);
},
{
closed = 1;
nodes = (
"1093 932 OFFCURVE",
"1209 794 OFFCURVE",
"1209 590 CURVE SMOOTH",
"1209 346 OFFCURVE",
"1072 184 OFFCURVE",
"865 184 CURVE SMOOTH",
"680 184 OFFCURVE",
"549 220 OFFCURVE",
"550 220 CURVE",
"550 686 LINE",
"636 834 OFFCURVE",
"787 932 OFFCURVE",
"919 932 CURVE SMOOTH"
);
}
);
width = 2292;
}
);
unicode = 0062;
},
{
glyphname = c;
lastChange = "2013-01-27 18:07:42 -0800";
layers = (
{
anchors = (
{
name = bottom;
position = "{1044, 0}";
},
{
name = top;
position = "{1044, 0}";
}
);
associatedMasterId = "E08CDE4C-5D6C-43D8-8149-5F9E51F0B944";
layerId = "02438C44-437D-4400-B12E-E740F31AE227";
name = "Bold Jan 22 13, 14:00";
paths = (
{
closed = 1;
nodes = (
"1880 631 OFFCURVE",
"1659 371 OFFCURVE",
"1286 371 CURVE SMOOTH",
"899 371 OFFCURVE",
"688 635 OFFCURVE",
"688 1049 CURVE SMOOTH",
"688 1468 OFFCURVE",
"899 1729 OFFCURVE",
"1284 1729 CURVE SMOOTH",
"1659 1729 OFFCURVE",
"1880 1466 OFFCURVE",
"1880 1049 CURVE SMOOTH"
);
},
{
closed = 1;
nodes = (
"164 377 OFFCURVE",
"604 -45 OFFCURVE",
"1284 -45 CURVE SMOOTH",
"1952 -45 OFFCURVE",
"2404 377 OFFCURVE",
"2404 1051 CURVE SMOOTH",
"2404 1724 OFFCURVE",
"1950 2146 OFFCURVE",
"1282 2146 CURVE SMOOTH",
"604 2146 OFFCURVE",
"164 1722 OFFCURVE",
"164 1047 CURVE SMOOTH"
);
}
);
width = 2087;
},
{
anchors = (
{
name = bottom;
position = "{799, -15}";
},
{
name = top;
position = "{787, 1162}";
}
);
guideLines = (
{
angle = 0;
position = "{623, 1162}";
},
{
angle = 0;
position = "{632, -46}";
},
{
angle = 0;
position = "{766, 934}";
},
{
angle = 0;
position = "{843, 190}";
}
);
layerId = "E08CDE4C-5D6C-43D8-8149-5F9E51F0B944";
name = "Bold Condensed";
paths = (
{
closed = 1;
nodes = (
"434 1162 OFFCURVE",
"176 916 OFFCURVE",
"176 548 CURVE SMOOTH",
"176 192 OFFCURVE",
"439 -45 OFFCURVE",
"835 -45 CURVE SMOOTH",
"994 -45 OFFCURVE",
"1171 14 OFFCURVE",
"1282 101 CURVE",
"1192 318 LINE",
"1106 243 OFFCURVE",
"969 192 OFFCURVE",
"851 192 CURVE SMOOTH",
"616 192 OFFCURVE",
"465 337 OFFCURVE",
"465 553 CURVE SMOOTH",
"465 780 OFFCURVE",
"611 931 OFFCURVE",
"839 931 CURVE SMOOTH",
"946 931 OFFCURVE",
"1076 886 OFFCURVE",
"1162 819 CURVE",
"1244 1020 LINE",
"1132 1104 OFFCURVE",
"963 1162 OFFCURVE",
"822 1162 CURVE SMOOTH"
);
}
);
width = 1913;
},
{
anchors = (
{
name = bottom;
position = "{1044, 0}";
},
{
name = top;
position = "{1044, 0}";
}
);
associatedMasterId = "E08CDE4C-5D6C-43D8-8149-5F9E51F0B944";
layerId = "0BE29DC9-66A4-451E-B354-0D72A6C42DA9";
name = "Bold Jan 22 13, 14:00";
paths = (
{
closed = 1;
nodes = (
"152 414 OFFCURVE",
"561 -45 OFFCURVE",
"1253 -45 CURVE SMOOTH",
"1536 -45 OFFCURVE",
"1790 23 OFFCURVE",
"2046 221 CURVE",
"1880 557 LINE",
"1653 391 OFFCURVE",
"1483 311 OFFCURVE",
"1262 311 CURVE SMOOTH",
"874 311 OFFCURVE",
"614 571 OFFCURVE",
"614 1040 CURVE SMOOTH",
"614 1540 OFFCURVE",
"895 1782 OFFCURVE",
"1245 1782 CURVE SMOOTH",
"1460 1782 OFFCURVE",
"1610 1718 OFFCURVE",
"1794 1561 CURVE",
"1958 1868 LINE",
"1753 2064 OFFCURVE",
"1540 2146 OFFCURVE",
"1245 2146 CURVE SMOOTH",
"657 2146 OFFCURVE",
"152 1794 OFFCURVE",
"152 1030 CURVE SMOOTH"
);
}
);
width = 2087;
}
);
unicode = 0063;
},
{
glyphname = d;
lastChange = "2013-01-27 18:09:30 -0800";
layers = (
{
anchors = (
{
name = center;
position = "{1237, 1386}";
}
);
layerId = "E08CDE4C-5D6C-43D8-8149-5F9E51F0B944";
name = "Bold Condensed";
paths = (
{
closed = 1;
nodes = (
"1110 1761 LINE",
"1110 1060 LINE",
"1028 1122 OFFCURVE",
"907 1162 OFFCURVE",
"788 1162 CURVE SMOOTH",
"421 1162 OFFCURVE",
"176 916 OFFCURVE",
"176 545 CURVE SMOOTH",
"176 191 OFFCURVE",
"403 -45 OFFCURVE",
"743 -45 CURVE SMOOTH",
"920 -45 OFFCURVE",
"1067 33 OFFCURVE",
"1129 149 CURVE",
"1141 98 OFFCURVE",
"1174 26 OFFCURVE",
"1213 -36 CURVE",
"1483 14 LINE",
"1428 92 OFFCURVE",
"1394 260 OFFCURVE",
"1394 432 CURVE SMOOTH",
"1394 1776 LINE"
);
},
{
closed = 1;
nodes = (
"930 931 OFFCURVE",
"1055 884 OFFCURVE",
"1111 810 CURVE",
"1111 582 LINE SMOOTH",
"1111 344 OFFCURVE",
"968 184 OFFCURVE",
"767 184 CURVE SMOOTH",
"586 184 OFFCURVE",
"465 330 OFFCURVE",
"465 552 CURVE SMOOTH",
"465 781 OFFCURVE",
"603 931 OFFCURVE",
"809 931 CURVE SMOOTH"
);
}
);
width = 2275;
}
);
unicode = 0064;
},
{
glyphname = e;
lastChange = "2013-01-27 18:07:42 -0800";
layers = (
{
anchors = (
{
name = bottom;
position = "{857, -45}";
},
{
name = ogonek;
position = "{1208, 80}";
},
{
name = top;
position = "{804, 1162}";
}
);
guideLines = (
{
angle = 0;
position = "{867, -45}";
},
{
angle = 0;
position = "{895, 225}";
}
);
layerId = "E08CDE4C-5D6C-43D8-8149-5F9E51F0B944";
name = "Bold Condensed";
paths = (
{
closed = 1;
nodes = (
"437 1162 OFFCURVE",
"176 901 OFFCURVE",
"176 561 CURVE SMOOTH",
"176 196 OFFCURVE",
"434 -45 OFFCURVE",
"822 -45 CURVE SMOOTH",
"999 -45 OFFCURVE",
"1204 30 OFFCURVE",
"1335 145 CURVE",
"1233 343 LINE",
"1131 244 OFFCURVE",
"968 179 OFFCURVE",
"827 179 CURVE SMOOTH",
"671 179 OFFCURVE",
"534 261 OFFCURVE",
"487 384 CURVE",
"957 386 OFFCURVE",
"1252 564 OFFCURVE",
"1252 828 CURVE SMOOTH",
"1252 1028 OFFCURVE",
"1071 1162 OFFCURVE",
"804 1162 CURVE SMOOTH"
);
},
{
closed = 1;
nodes = (
"911 946 OFFCURVE",
"977 896 OFFCURVE",
"977 820 CURVE SMOOTH",
"977 687 OFFCURVE",
"781 591 OFFCURVE",
"459 582 CURVE",
"459 800 OFFCURVE",
"623 946 OFFCURVE",
"811 946 CURVE SMOOTH"
);
}
);
width = 2015;
}
);
unicode = 0065;
},
{
glyphname = f;
lastChange = "2013-01-27 18:07:42 -0800";
layers = (
{
layerId = "E08CDE4C-5D6C-43D8-8149-5F9E51F0B944";
name = "Bold Condensed";
paths = (
{
closed = 1;
nodes = (
"585 1403 OFFCURVE",
"380 1271 OFFCURVE",
"380 993 CURVE SMOOTH",
"380 831 LINE",
"152 831 LINE",
"152 655 LINE",
"380 655 LINE",
"380 -331 LINE SMOOTH",
"380 -489 OFFCURVE",
"318 -573 OFFCURVE",
"172 -607 CURVE",
"197 -854 LINE",
"522 -812 OFFCURVE",
"663 -644 OFFCURVE",
"663 -339 CURVE SMOOTH",
"663 655 LINE",
"909 655 LINE",
"909 831 LINE",
"663 831 LINE",
"663 952 LINE SMOOTH",
"663 1127 OFFCURVE",
"744 1187 OFFCURVE",
"865 1187 CURVE SMOOTH",
"896 1187 OFFCURVE",
"931 1185 OFFCURVE",
"968 1175 CURVE",
"995 1365 LINE",
"933 1389 OFFCURVE",
"866 1403 OFFCURVE",
"799 1403 CURVE SMOOTH"
);
}
);
width = 1368;
}
);
unicode = 0066;
},
{
glyphname = g;
lastChange = "2013-01-27 18:07:42 -0800";
layers = (
{
anchors = (
{
name = top;
position = "{852, 859}";
}
);
guideLines = (
{
angle = 0;
position = "{-1273, -805}";
},
{
angle = 0;
position = "{-444, -1106}";
}
);
layerId = "E08CDE4C-5D6C-43D8-8149-5F9E51F0B944";
name = "Bold Condensed";
paths = (
{
closed = 1;
nodes = (
"456 859 OFFCURVE",
"176 573 OFFCURVE",
"176 171 CURVE SMOOTH",
"176 -132 OFFCURVE",
"382 -348 OFFCURVE",
"688 -348 CURVE SMOOTH",
"811 -348 OFFCURVE",
"937 -296 OFFCURVE",
"1017 -218 CURVE",
"1017 -339 LINE SMOOTH",
"1017 -557 OFFCURVE",
"855 -703 OFFCURVE",
"611 -703 CURVE SMOOTH",
"508 -703 OFFCURVE",
"377 -671 OFFCURVE",
"283 -624 CURVE",
"228 -857 LINE",
"347 -916 OFFCURVE",
"521 -954 OFFCURVE",
"662 -954 CURVE SMOOTH",
"1054 -954 OFFCURVE",
"1316 -705 OFFCURVE",
"1316 -330 CURVE SMOOTH",
"1316 731 LINE",
"1204 797 OFFCURVE",
"1012 859 OFFCURVE",
"852 859 CURVE SMOOTH"
);
},
{
closed = 1;
nodes = (
"904 628 OFFCURVE",
"987 615 OFFCURVE",
"1035 589 CURVE",
"1035 165 LINE SMOOTH",
"1035 -1 OFFCURVE",
"901 -119 OFFCURVE",
"710 -119 CURVE SMOOTH",
"567 -119 OFFCURVE",
"465 5 OFFCURVE",
"465 182 CURVE SMOOTH",
"465 444 OFFCURVE",
"619 628 OFFCURVE",
"837 628 CURVE SMOOTH"
);
}
);
width = 2091;
}
);
unicode = 0067;
},
{
glyphname = h;
lastChange = "2013-01-27 18:07:42 -0800";
layers = (
{
anchors = (
{
name = center;
position = "{363, 1370}";
},
{
name = top;
position = "{849, 1617}";
}
);
guideLines = (
{
angle = 0;
position = "{643, 1404}";
},
{
angle = 0;
position = "{1343, 1109}";
}
);
layerId = "E08CDE4C-5D6C-43D8-8149-5F9E51F0B944";
name = "Bold Condensed";
paths = (
{
closed = 1;
nodes = (
"726 1146 OFFCURVE",
"557 1074 OFFCURVE",
"453 942 CURVE",
"525 734 LINE",
"607 833 OFFCURVE",
"726 900 OFFCURVE",
"825 900 CURVE SMOOTH",
"966 900 OFFCURVE",
"1062 782 OFFCURVE",
"1062 604 CURVE SMOOTH",
"1062 227 LINE SMOOTH",
"1062 -4 OFFCURVE",
"1159 -139 OFFCURVE",
"1467 -79 CURVE",
"1496 144 LINE",
"1353 123 OFFCURVE",
"1343 192 OFFCURVE",
"1343 336 CURVE SMOOTH",
"1343 630 LINE SMOOTH",
"1343 940 OFFCURVE",
"1156 1146 OFFCURVE",
"875 1146 CURVE SMOOTH"
);
},
{
closed = 1;
nodes = (
"236 1726 LINE",
"236 -31 LINE",
"525 -31 LINE",
"525 1763 LINE"
);
}
);
width = 2234;
}
);
unicode = 0068;
},
{
glyphname = i;
lastChange = "2013-01-27 18:07:42 -0800";
layers = (
{
layerId = "E08CDE4C-5D6C-43D8-8149-5F9E51F0B944";
name = "Bold Condensed";
paths = (
{
closed = 1;
nodes = (
"228 1139 LINE",
"228 295 LINE SMOOTH",
"228 -53 OFFCURVE",
"601 -102 OFFCURVE",
"868 18 CURVE",
"831 231 LINE",
"667 174 OFFCURVE",
"512 162 OFFCURVE",
"512 367 CURVE SMOOTH",
"512 1139 LINE"
);
},
{
closed = 1;
nodes = (
"261 1701 OFFCURVE",
"180 1628 OFFCURVE",
"180 1521 CURVE SMOOTH",
"180 1414 OFFCURVE",
"261 1341 OFFCURVE",
"375 1341 CURVE SMOOTH",
"490 1341 OFFCURVE",
"571 1414 OFFCURVE",
"571 1520 CURVE SMOOTH",
"571 1626 OFFCURVE",
"490 1701 OFFCURVE",
"377 1701 CURVE SMOOTH"
);
}
);
width = 1300;
}
);
unicode = 0069;
},
{
glyphname = j;
lastChange = "2013-01-27 18:07:42 -0800";
layers = (
{
layerId = "E08CDE4C-5D6C-43D8-8149-5F9E51F0B944";
name = "Bold Condensed";
paths = (
{
closed = 1;
nodes = (
"8 860 LINE",
"8 -362 LINE SMOOTH",
"8 -549 OFFCURVE",
"-56 -640 OFFCURVE",
"-175 -640 CURVE SMOOTH",
"-181 -640 OFFCURVE",
"-223 -635 OFFCURVE",
"-298 -624 CURVE",
"-336 -850 LINE",
"-258 -868 OFFCURVE",
"-189 -877 OFFCURVE",
"-125 -877 CURVE SMOOTH",
"154 -877 OFFCURVE",
"292 -706 OFFCURVE",
"292 -354 CURVE SMOOTH",
"292 860 LINE"
);
},
{
closed = 1;
nodes = (
"22 1424 OFFCURVE",
"-59 1349 OFFCURVE",
"-59 1242 CURVE SMOOTH",
"-59 1137 OFFCURVE",
"22 1062 OFFCURVE",
"135 1062 CURVE SMOOTH",
"251 1062 OFFCURVE",
"332 1136 OFFCURVE",
"332 1241 CURVE SMOOTH",
"332 1349 OFFCURVE",
"251 1424 OFFCURVE",
"137 1424 CURVE SMOOTH"
);
}
);
width = 1104;
}
);
unicode = 006A;
},
{
glyphname = k;
lastChange = "2013-01-27 18:08:30 -0800";
layers = (
{
anchors = (
{
name = bottom;
position = "{737, -42}";
}
);
layerId = "E08CDE4C-5D6C-43D8-8149-5F9E51F0B944";
name = "Bold Condensed";
paths = (
{
closed = 1;
nodes = (
"240 1713 LINE",
"240 56 LINE SMOOTH",
"240 -94 OFFCURVE",
"415 -146 OFFCURVE",
"503 -22 CURVE",
"765 310 LINE",
"951 94 LINE SMOOTH",
"1078 -55 OFFCURVE",
"1207 -125 OFFCURVE",
"1325 -125 CURVE",
"1459 100 LINE",
"1314 103 OFFCURVE",
"1249 160 OFFCURVE",
"1139 288 CURVE SMOOTH",
"940 520 LINE",
"1317 1045 LINE",
"1048 1101 LINE",
"521 392 LINE",
"427 1736 LINE"
);
}
);
width = 2382;
}
);
unicode = 006B;
},
{
glyphname = l;
lastChange = "2013-01-27 18:07:42 -0800";
layers = (
{
anchors = (
{
name = bottom;
position = "{598, -15}";
},
{
name = top;
position = "{635, 1386}";
},
{
name = topright;
position = "{868, 1386}";
}
);
layerId = "E08CDE4C-5D6C-43D8-8149-5F9E51F0B944";
name = "Bold Condensed";
paths = (
{
closed = 1;
nodes = (
"266 1742 LINE",
"266 317 LINE SMOOTH",
"266 63 OFFCURVE",
"434 -45 OFFCURVE",
"666 -45 CURVE SMOOTH",
"755 -45 OFFCURVE",
"852 -28 OFFCURVE",
"953 0 CURVE",
"924 221 LINE",
"869 204 OFFCURVE",
"781 190 OFFCURVE",
"729 190 CURVE SMOOTH",
"617 190 OFFCURVE",
"550 248 OFFCURVE",
"550 378 CURVE SMOOTH",
"550 1776 LINE"
);
}
);
width = 1380;
}
);
unicode = 006C;
},
{
glyphname = m;
lastChange = "2013-01-27 18:14:17 -0800";
layers = (
{
layerId = "E08CDE4C-5D6C-43D8-8149-5F9E51F0B944";
name = "Bold Condensed";
paths = (
{
closed = 1;
nodes = (
"100 1049 LINE",
"145 991 OFFCURVE",
"218 938 OFFCURVE",
"218 706 CURVE SMOOTH",
"218 0 LINE",
"507 0 LINE",
"507 731 LINE",
"492 891 LINE",
"492 1001 OFFCURVE",
"447 1088 OFFCURVE",
"379 1153 CURVE"
);
},
{
closed = 1;
nodes = (
"609 1177 OFFCURVE",
"496 1066 OFFCURVE",
"429 926 CURVE",
"502 696 LINE",
"547 875 OFFCURVE",
"691 947 OFFCURVE",
"802 947 CURVE SMOOTH",
"947 947 OFFCURVE",
"989 838 OFFCURVE",
"989 606 CURVE SMOOTH",
"989 0 LINE",
"1271 0 LINE",
"1271 632 LINE SMOOTH",
"1271 961 OFFCURVE",
"1127 1177 OFFCURVE",
"846 1177 CURVE SMOOTH"
);
},
{
closed = 1;
nodes = (
"1465 1146 OFFCURVE",
"1296 1074 OFFCURVE",
"1192 942 CURVE",
"1265 734 LINE",
"1347 833 OFFCURVE",
"1465 900 OFFCURVE",
"1565 900 CURVE SMOOTH",
"1705 900 OFFCURVE",
"1801 782 OFFCURVE",
"1801 604 CURVE SMOOTH",
"1801 227 LINE",
"1801 -4 OFFCURVE",
"1898 -139 OFFCURVE",
"2207 -79 CURVE",
"2235 144 LINE",
"2092 123 OFFCURVE",
"2082 192 OFFCURVE",
"2082 336 CURVE SMOOTH",
"2082 630 LINE",
"2082 940 OFFCURVE",
"1895 1146 OFFCURVE",
"1614 1146 CURVE SMOOTH"
);
}
);
width = 2297;
}
);
unicode = 006D;
},
{
glyphname = n;
lastChange = "2013-01-27 18:13:41 -0800";
layers = (
{
anchors = (
{
name = bottom;
position = "{798, -31}";
},
{
name = top;
position = "{806, 1146}";
}
);
layerId = "E08CDE4C-5D6C-43D8-8149-5F9E51F0B944";
name = "Bold Condensed";
paths = (
{
closed = 1;
nodes = (
"100 1016 LINE",
"171 928 OFFCURVE",
"218 791 OFFCURVE",
"218 674 CURVE SMOOTH",
"218 -31 LINE",
"507 -31 LINE",
"507 698 LINE",
"492 859 LINE",
"492 952 OFFCURVE",
"447 1056 OFFCURVE",
"379 1120 CURVE"
);
},
{
closed = 1;
nodes = (
"675 1146 OFFCURVE",
"506 1074 OFFCURVE",
"402 942 CURVE",
"475 734 LINE",
"557 833 OFFCURVE",
"675 900 OFFCURVE",
"775 900 CURVE SMOOTH",
"915 900 OFFCURVE",
"1011 782 OFFCURVE",
"1011 604 CURVE SMOOTH",
"1011 227 LINE",
"1011 -4 OFFCURVE",
"1108 -139 OFFCURVE",
"1417 -79 CURVE",
"1445 144 LINE",
"1302 123 OFFCURVE",
"1292 192 OFFCURVE",
"1292 336 CURVE SMOOTH",
"1292 630 LINE",
"1292 940 OFFCURVE",
"1105 1146 OFFCURVE",
"824 1146 CURVE SMOOTH"
);
}
);
width = 1507;
}
);
unicode = 006E;
},
{
glyphname = o;
lastChange = "2013-01-27 18:12:47 -0800";
layers = (
{
anchors = (
{
name = top;
position = "{726, 1162}";
}
);
guideLines = (
{
angle = 90;
position = "{-555, 1138}";
},
{
angle = 0;
position = "{-578, 232}";
},
{
angle = 0;
position = "{-595, 1138}";
},
{
angle = 0;
position = "{-581, 232}";
}
);
layerId = "E08CDE4C-5D6C-43D8-8149-5F9E51F0B944";
name = "Bold Condensed";
paths = (
{
closed = 1;
nodes = (
"356 1162 OFFCURVE",
"110 920 OFFCURVE",
"110 557 CURVE SMOOTH",
"110 195 OFFCURVE",
"357 -45 OFFCURVE",
"727 -45 CURVE SMOOTH",
"1099 -45 OFFCURVE",
"1346 196 OFFCURVE",
"1346 558 CURVE SMOOTH",
"1346 922 OFFCURVE",
"1097 1162 OFFCURVE",
"726 1162 CURVE SMOOTH"
);
},
{
closed = 1;
nodes = (
"925 930 OFFCURVE",
"1056 781 OFFCURVE",
"1056 557 CURVE SMOOTH",
"1056 333 OFFCURVE",
"925 184 OFFCURVE",
"729 184 CURVE SMOOTH",
"531 184 OFFCURVE",
"399 333 OFFCURVE",
"399 557 CURVE SMOOTH",
"399 781 OFFCURVE",
"531 930 OFFCURVE",
"727 930 CURVE SMOOTH"
);
}
);
width = 1456;
}
);
unicode = 006F;
},
{
glyphname = p;
lastChange = "2013-01-27 18:07:42 -0800";
layers = (
{
guideLines = (
{
angle = 0;
position = "{758, 886}";
}
);
layerId = "E08CDE4C-5D6C-43D8-8149-5F9E51F0B944";
name = "Bold Condensed";
paths = (
{
closed = 1;
nodes = (
"694 886 OFFCURVE",
"511 806 OFFCURVE",
"435 650 CURVE",
"185 513 LINE",
"464 -218 LINE",
"554 -279 OFFCURVE",
"698 -321 OFFCURVE",
"814 -321 CURVE SMOOTH",
"1162 -321 OFFCURVE",
"1408 -65 OFFCURVE",
"1408 297 CURVE SMOOTH",
"1408 661 OFFCURVE",
"1168 886 OFFCURVE",
"843 886 CURVE SMOOTH"
);
},
{
closed = 1;
nodes = (
"55 758 LINE",
"100 699 OFFCURVE",
"172 646 OFFCURVE",
"172 414 CURVE SMOOTH",
"172 -872 LINE",
"462 -872 LINE",
"462 439 LINE",
"447 599 LINE",
"447 710 OFFCURVE",
"402 797 OFFCURVE",
"334 860 CURVE"
);
},
{
closed = 1;
nodes = (
"1007 657 OFFCURVE",
"1119 512 OFFCURVE",
"1119 289 CURVE SMOOTH",
"1119 64 OFFCURVE",
"977 -93 OFFCURVE",
"774 -93 CURVE SMOOTH",
"641 -93 OFFCURVE",
"512 -41 OFFCURVE",
"462 33 CURVE",
"462 189 LINE SMOOTH",
"462 461 OFFCURVE",
"608 657 OFFCURVE",
"813 657 CURVE SMOOTH"
);
}
);
width = 2261;
}
);
unicode = 0070;
},
{
glyphname = q;
lastChange = "2013-01-27 18:07:42 -0800";
layers = (
{
layerId = "E08CDE4C-5D6C-43D8-8149-5F9E51F0B944";
name = "Bold Condensed";
paths = (
{
closed = 1;
nodes = (
"1721 -679 LINE",
"1412 -835 LINE",
"1412 321 LINE",
"1412 719 LINE",
"1183 740 LINE",
"1137 506 LINE",
"1122 345 LINE",
"1122 -965 LINE SMOOTH",
"1122 -1056 OFFCURVE",
"1213 -1222 OFFCURVE",
"1407 -1120 CURVE SMOOTH",
"1829 -899 LINE"
);
},
{
closed = 1;
nodes = (
"890 -414 OFFCURVE",
"1136 -357 OFFCURVE",
"1177 -151 CURVE SMOOTH",
"1320 567 LINE",
"1121 691 LINE",
"1031 751 OFFCURVE",
"886 793 OFFCURVE",
"770 793 CURVE SMOOTH",
"422 793 OFFCURVE",
"176 537 OFFCURVE",
"176 176 CURVE SMOOTH",
"176 -189 OFFCURVE",
"417 -414 OFFCURVE",
"741 -414 CURVE SMOOTH"
);
},
{
closed = 1;
nodes = (
"577 -185 OFFCURVE",
"465 -40 OFFCURVE",
"465 183 CURVE SMOOTH",
"465 408 OFFCURVE",
"607 565 OFFCURVE",
"811 565 CURVE SMOOTH",
"943 565 OFFCURVE",
"1072 513 OFFCURVE",
"1122 439 CURVE",
"1122 229 LINE",
"1122 -66 OFFCURVE",
"976 -185 OFFCURVE",
"771 -185 CURVE SMOOTH"
);
}
);
width = 2329;
}
);
unicode = 0071;
},
{
glyphname = r;
lastChange = "2013-01-27 18:07:42 -0800";
layers = (
{
anchors = (
{
name = bottom;
position = "{557, 0}";
},
{
name = top;
position = "{613, 1177}";
}
);
layerId = "E08CDE4C-5D6C-43D8-8149-5F9E51F0B944";
name = "Bold Condensed";
paths = (
{
closed = 1;
nodes = (
"119 1054 LINE",
"164 997 OFFCURVE",
"236 942 OFFCURVE",
"236 711 CURVE SMOOTH",
"236 0 LINE",
"526 0 LINE",
"526 736 LINE",
"511 897 LINE",
"511 1006 OFFCURVE",
"466 1093 OFFCURVE",
"398 1158 CURVE"
);
},
{
closed = 1;
nodes = (
"672 1177 OFFCURVE",
"492 1099 OFFCURVE",
"497 977 CURVE SMOOTH",
"522 568 LINE SMOOTH",
"522 561 OFFCURVE",
"518 919 OFFCURVE",
"822 919 CURVE SMOOTH",
"863 919 OFFCURVE",
"906 913 OFFCURVE",
"957 900 CURVE",
"978 1155 LINE",
"937 1166 OFFCURVE",
"897 1177 OFFCURVE",
"804 1177 CURVE SMOOTH"
);
}
);
width = 1423;
}
);
unicode = 0072;
},
{
glyphname = s;
lastChange = "2013-01-27 18:07:42 -0800";
layers = (
{
anchors = (
{
name = bottom;
position = "{725, -15}";
},
{
name = top;
position = "{725, 1162}";
}
);
layerId = "E08CDE4C-5D6C-43D8-8149-5F9E51F0B944";
name = "Bold Condensed";
paths = (
{
closed = 1;
nodes = (
"397 1162 OFFCURVE",
"315 964 OFFCURVE",
"315 815 CURVE SMOOTH",
"315 647 OFFCURVE",
"394 554 OFFCURVE",
"655 470 CURVE SMOOTH",
"860 403 OFFCURVE",
"919 389 OFFCURVE",
"919 300 CURVE SMOOTH",
"919 234 OFFCURVE",
"879 176 OFFCURVE",
"752 176 CURVE SMOOTH",
"648 176 OFFCURVE",
"513 214 OFFCURVE",
"388 276 CURVE",
"328 72 LINE",
"411 10 OFFCURVE",
"592 -45 OFFCURVE",
"752 -45 CURVE SMOOTH",
"1039 -45 OFFCURVE",
"1176 105 OFFCURVE",
"1176 334 CURVE SMOOTH",
"1176 526 OFFCURVE",
"1077 602 OFFCURVE",
"807 684 CURVE SMOOTH",
"639 734 OFFCURVE",
"584 770 OFFCURVE",
"584 837 CURVE SMOOTH",
"584 909 OFFCURVE",
"628 948 OFFCURVE",
"741 948 CURVE SMOOTH",
"840 948 OFFCURVE",
"966 916 OFFCURVE",
"1073 863 CURVE",
"1122 1072 LINE",
"1039 1118 OFFCURVE",
"867 1162 OFFCURVE",
"725 1162 CURVE SMOOTH"
);
}
);
width = 1858;
}
);
unicode = 0073;
},
{
glyphname = t;
lastChange = "2013-01-27 18:07:42 -0800";
layers = (
{
anchors = (
{
name = bottom;
position = "{680, -12}";
},
{
name = center;
position = "{408, 660}";
}
);
layerId = "E08CDE4C-5D6C-43D8-8149-5F9E51F0B944";
name = "Bold Condensed";
paths = (
{
closed = 1;
nodes = (
"266 1503 LINE",
"266 325 LINE SMOOTH",
"266 71 OFFCURVE",
"436 -37 OFFCURVE",
"666 -37 CURVE SMOOTH",
"755 -37 OFFCURVE",
"852 -20 OFFCURVE",
"953 8 CURVE",
"924 229 LINE",
"871 212 OFFCURVE",
"782 198 OFFCURVE",
"729 198 CURVE SMOOTH",
"617 198 OFFCURVE",
"552 256 OFFCURVE",
"552 386 CURVE SMOOTH",
"552 1537 LINE"
);
},
{
closed = 1;
nodes = (
"49 1140 LINE",
"49 935 LINE",
"875 935 LINE",
"875 1140 LINE"
);
}
);
width = 1745;
}
);
unicode = 0074;
},
{
glyphname = u;
lastChange = "2013-01-27 18:07:42 -0800";
layers = (
{
anchors = (
{
name = ogonek;
position = "{1572, -15}";
},
{
name = top;
position = "{981, 1138}";
}
);
layerId = "E08CDE4C-5D6C-43D8-8149-5F9E51F0B944";
name = "Bold Condensed";
paths = (
{
closed = 1;
nodes = (
"1254 1138 LINE",
"1254 530 LINE SMOOTH",
"1254 318 OFFCURVE",
"1118 178 OFFCURVE",
"914 178 CURVE SMOOTH",
"798 178 OFFCURVE",
"726 276 OFFCURVE",
"730 423 CURVE SMOOTH",
"736 651 LINE SMOOTH",
"746 1008 OFFCURVE",
"693 1138 OFFCURVE",
"693 1138 CURVE",
"403 1107 LINE",
"403 1107 OFFCURVE",
"458 962 OFFCURVE",
"447 636 CURVE SMOOTH",
"442 392 LINE SMOOTH",
"434 130 OFFCURVE",
"611 -45 OFFCURVE",
"885 -45 CURVE SMOOTH",
"1052 -45 OFFCURVE",
"1213 38 OFFCURVE",
"1291 164 CURVE",
"1318 52 OFFCURVE",
"1466 -24 OFFCURVE",
"1654 -24 CURVE",
"1694 226 LINE",
"1602 226 OFFCURVE",
"1542 294 OFFCURVE",
"1542 393 CURVE SMOOTH",
"1542 1138 LINE"
);
}
);
width = 2619;
}
);
unicode = 0075;
},
{
glyphname = v;
lastChange = "2013-01-27 18:07:42 -0800";
layers = (
{
layerId = "E08CDE4C-5D6C-43D8-8149-5F9E51F0B944";
name = "Bold Condensed";
paths = (
{
closed = 1;
nodes = (
"1101 1158 LINE",
"846 563 LINE SMOOTH",
"832 531 OFFCURVE",
"819 493 OFFCURVE",
"783 378 CURVE",
"765 439 OFFCURVE",
"741 509 OFFCURVE",
"717 563 CURVE SMOOTH",
"457 1158 LINE",
"162 1158 LINE",
"669 0 LINE",
"903 0 LINE",
"1391 1158 LINE"
);
}
);
width = 2177;
}
);
unicode = 0076;
},
{
glyphname = w;
lastChange = "2013-01-27 18:07:42 -0800";
layers = (
{
anchors = (
{
name = top;
position = "{1296, 1158}";
}
);
layerId = "E08CDE4C-5D6C-43D8-8149-5F9E51F0B944";
name = "Bold Condensed";
paths = (
{
closed = 1;
nodes = (
"350 1158 LINE",
"811 0 LINE",
"1047 0 LINE",
"1423 987 LINE SMOOTH",
"1485 1144 OFFCURVE",
"1227 1251 OFFCURVE",
"1151 1035 CURVE SMOOTH",
"989 563 LINE",
"975 531 OFFCURVE",
"961 493 OFFCURVE",
"926 378 CURVE",
"909 439 OFFCURVE",
"880 509 OFFCURVE",
"861 563 CURVE SMOOTH",
"645 1158 LINE"
);
},
{
closed = 1;
nodes = (
"1964 1158 LINE",
"1754 563 LINE",
"1740 531 OFFCURVE",
"1725 493 OFFCURVE",
"1691 378 CURVE",
"1672 439 OFFCURVE",
"1643 509 OFFCURVE",
"1624 563 CURVE SMOOTH",
"1445 1041 LINE SMOOTH",
"1370 1243 OFFCURVE",
"1115 1158 OFFCURVE",
"1190 965 CURVE SMOOTH",
"1575 0 LINE",
"1810 0 LINE",
"2252 1158 LINE"
);
}
);
width = 3553;
}
);
unicode = 0077;
},
{
glyphname = x;
lastChange = "2013-01-27 18:07:42 -0800";
layers = (
{
layerId = "E08CDE4C-5D6C-43D8-8149-5F9E51F0B944";
name = "Bold Condensed";
paths = (
{
closed = 1;
nodes = (
"979 1158 LINE",
"640 692 LINE",
"557 662 LINE",
"37 0 LINE",
"347 0 LINE",
"744 501 LINE",
"849 557 LINE",
"1304 1158 LINE"
);
},
{
closed = 1;
nodes = (
"429 1158 LINE",
"89 1158 LINE",
"971 0 LINE",
"1323 0 LINE"
);
}
);
width = 2226;
}
);
unicode = 0078;
},
{
glyphname = y;
lastChange = "2013-01-27 18:07:42 -0800";
layers = (
{
anchors = (
{
name = top;
position = "{949, 835}";
}
);
layerId = "E08CDE4C-5D6C-43D8-8149-5F9E51F0B944";
name = "Bold Condensed";
paths = (
{
closed = 1;
nodes = (
"1222 835 LINE",
"1222 227 LINE SMOOTH",
"1225 15 OFFCURVE",
"1086 -125 OFFCURVE",
"882 -125 CURVE SMOOTH",
"768 -125 OFFCURVE",
"694 -27 OFFCURVE",
"699 120 CURVE SMOOTH",
"704 348 LINE SMOOTH",
"716 705 OFFCURVE",
"662 835 OFFCURVE",
"662 835 CURVE",
"373 804 LINE",
"373 804 OFFCURVE",
"428 659 OFFCURVE",
"416 333 CURVE SMOOTH",
"410 89 LINE SMOOTH",
"403 -173 OFFCURVE",
"580 -348 OFFCURVE",
"854 -348 CURVE SMOOTH",
"1020 -348 OFFCURVE",
"1184 -265 OFFCURVE",
"1263 -139 CURVE",
"1290 -251 OFFCURVE",
"1510 -9 OFFCURVE",
"1510 90 CURVE SMOOTH",
"1510 835 LINE"
);
},
{
closed = 1;
nodes = (
"1226 15 LINE",
"1229 -177 LINE",
"1225 -375 LINE SMOOTH",
"1225 -653 OFFCURVE",
"1035 -701 OFFCURVE",
"819 -701 CURVE SMOOTH",
"709 -701 OFFCURVE",
"591 -675 OFFCURVE",
"490 -624 CURVE",
"436 -857 LINE",
"571 -920 OFFCURVE",
"724 -954 OFFCURVE",
"870 -954 CURVE SMOOTH",
"1211 -954 OFFCURVE",
"1509 -789 OFFCURVE",
"1510 -330 CURVE SMOOTH",
"1512 90 LINE"
);
}
);
width = 2507;
}
);
unicode = 0079;
},
{
glyphname = z;
lastChange = "2013-01-27 18:07:42 -0800";
layers = (
{
anchors = (
{
name = top;
position = "{794, 1158}";
}
);
layerId = "E08CDE4C-5D6C-43D8-8149-5F9E51F0B944";
name = "Bold Condensed";
paths = (
{
closed = 1;
nodes = (
"343 1158 LINE",
"343 959 LINE",
"903 959 LINE",
"313 180 LINE",
"313 0 LINE",
"1261 0 LINE",
"1261 215 LINE",
"658 215 LINE",
"1242 980 LINE",
"1242 1158 LINE"
);
}
);
width = 2003;
}
);
unicode = 007A;
},
{
glyphname = braceleft;
lastChange = "2013-01-27 18:07:42 -0800";
layers = (
{
layerId = "E08CDE4C-5D6C-43D8-8149-5F9E51F0B944";
name = "Bold Condensed";
paths = (
{
closed = 1;
nodes = (
"537 1805 OFFCURVE",
"391 1675 OFFCURVE",
"391 1384 CURVE",
"392 1327 OFFCURVE",
"393 1268 OFFCURVE",
"393 1211 CURVE SMOOTH",
"393 1153 OFFCURVE",
"395 1096 OFFCURVE",
"396 1039 CURVE",
"396 859 OFFCURVE",
"340 734 OFFCURVE",
"176 719 CURVE",
"176 553 LINE",
"362 533 OFFCURVE",
"392 399 OFFCURVE",
"392 197 CURVE SMOOTH",
"391 -161 LINE SMOOTH",
"391 -427 OFFCURVE",
"577 -519 OFFCURVE",
"831 -530 CURVE",
"831 -358 LINE",
"789 -358 OFFCURVE",
"753 -353 OFFCURVE",
"725 -343 CURVE SMOOTH",
"620 -307 OFFCURVE",
"609 -179 OFFCURVE",
"609 -31 CURVE SMOOTH",
"609 58 OFFCURVE",
"611 180 OFFCURVE",
"611 267 CURVE SMOOTH",
"611 445 OFFCURVE",
"550 577 OFFCURVE",
"425 636 CURVE",
"538 697 OFFCURVE",
"616 829 OFFCURVE",
"616 1009 CURVE SMOOTH",
"617 1403 LINE SMOOTH",
"617 1561 OFFCURVE",
"679 1628 OFFCURVE",
"831 1633 CURVE",
"831 1805 LINE"
);
}
);
width = 1284;
}
);
unicode = 007B;
},
{
glyphname = bar;
lastChange = "2013-01-27 18:07:42 -0800";
layers = (
{
layerId = "E08CDE4C-5D6C-43D8-8149-5F9E51F0B944";
name = "Bold Condensed";
paths = (
{
closed = 1;
nodes = (
"344 1774 LINE",
"344 -1006 LINE",
"559 -1006 LINE",
"559 1774 LINE"
);
}
);
width = 1024;
}
);
unicode = 007C;
},
{
glyphname = braceright;
lastChange = "2013-01-27 18:07:42 -0800";
layers = (
{
layerId = "E08CDE4C-5D6C-43D8-8149-5F9E51F0B944";
name = "Bold Condensed";
paths = (
{
closed = 1;
nodes = (
"135 1633 LINE",
"288 1628 OFFCURVE",
"350 1561 OFFCURVE",
"350 1403 CURVE",
"351 1009 LINE",
"351 828 OFFCURVE",
"426 696 OFFCURVE",
"542 636 CURVE",
"416 577 OFFCURVE",
"355 445 OFFCURVE",
"355 267 CURVE SMOOTH",
"355 178 OFFCURVE",
"358 58 OFFCURVE",
"358 -31 CURVE SMOOTH",
"358 -95 OFFCURVE",
"354 -148 OFFCURVE",
"347 -190 CURVE SMOOTH",
"326 -308 OFFCURVE",
"272 -358 OFFCURVE",
"135 -358 CURVE",
"135 -530 LINE",
"389 -519 OFFCURVE",
"576 -427 OFFCURVE",
"576 -161 CURVE SMOOTH",
"575 197 LINE SMOOTH",
"575 240 OFFCURVE",
"575 279 OFFCURVE",
"578 320 CURVE SMOOTH",
"586 459 OFFCURVE",
"652 539 OFFCURVE",
"790 553 CURVE",
"792 719 LINE",
"628 734 OFFCURVE",
"570 859 OFFCURVE",
"570 1039 CURVE SMOOTH",
"572 1096 OFFCURVE",
"574 1153 OFFCURVE",
"574 1211 CURVE SMOOTH",
"574 1268 OFFCURVE",
"575 1327 OFFCURVE",
"576 1384 CURVE SMOOTH",
"576 1675 OFFCURVE",
"428 1805 OFFCURVE",
"135 1805 CURVE"
);
}
);
width = 1284;
}
);
unicode = 007D;
},
{
glyphname = asciitilde;
lastChange = "2013-01-27 18:07:42 -0800";
layers = (
{
layerId = "E08CDE4C-5D6C-43D8-8149-5F9E51F0B944";
name = "Bold Condensed";
paths = (
{
closed = 1;
nodes = (
"1647 1138 OFFCURVE",
"1572 1007 OFFCURVE",
"1436 1007 CURVE SMOOTH",
"1414 1007 OFFCURVE",
"1388 1012 OFFCURVE",
"1358 1023 CURVE SMOOTH",
"1247 1064 OFFCURVE",
"1138 1125 OFFCURVE",
"1028 1169 CURVE SMOOTH",
"960 1195 OFFCURVE",
"882 1225 OFFCURVE",
"800 1225 CURVE SMOOTH",
"742 1225 OFFCURVE",
"690 1216 OFFCURVE",
"644 1195 CURVE SMOOTH",
"511 1138 OFFCURVE",
"420 1018 OFFCURVE",
"387 863 CURVE",
"544 788 LINE",
"573 911 OFFCURVE",
"653 1042 OFFCURVE",
"804 1042 CURVE SMOOTH",
"832 1042 OFFCURVE",
"864 1037 OFFCURVE",
"899 1026 CURVE SMOOTH",
"1016 989 OFFCURVE",
"1127 927 OFFCURVE",
"1235 880 CURVE SMOOTH",
"1292 854 OFFCURVE",
"1363 823 OFFCURVE",
"1434 823 CURVE SMOOTH",
"1489 823 OFFCURVE",
"1538 831 OFFCURVE",
"1583 850 CURVE SMOOTH",
"1722 909 OFFCURVE",
"1806 1035 OFFCURVE",
"1844 1197 CURVE",
"1673 1250 LINE"
);
}
);
width = 2986;
}
);
unicode = 007E;
},
{
glyphname = dagger;
lastChange = "2013-01-27 18:07:42 -0800";
layers = (
{
layerId = "E08CDE4C-5D6C-43D8-8149-5F9E51F0B944";
name = "Bold Condensed";
paths = (
{
closed = 1;
nodes = (
"664 2058 LINE",
"664 1532 LINE",
"219 1532 LINE",
"219 1352 LINE",
"664 1352 LINE",
"664 231 LINE",
"839 231 LINE",
"839 1352 LINE",
"1328 1352 LINE",
"1328 1532 LINE",
"858 1532 LINE",
"858 2058 LINE"
);
}
);
width = 2093;
}
);
unicode = 2020;
},
{
glyphname = degree;
lastChange = "2013-01-27 18:07:42 -0800";
layers = (
{
layerId = "E08CDE4C-5D6C-43D8-8149-5F9E51F0B944";
name = "Bold Condensed";
paths = (
{
closed = 1;
nodes = (
"572 2555 OFFCURVE",
"516 2544 OFFCURVE",
"462 2524 CURVE SMOOTH",
"323 2468 OFFCURVE",
"195 2344 OFFCURVE",
"195 2154 CURVE SMOOTH",
"195 2098 OFFCURVE",
"206 2047 OFFCURVE",
"229 1998 CURVE SMOOTH",
"293 1863 OFFCURVE",
"435 1751 OFFCURVE",
"630 1751 CURVE SMOOTH",
"689 1751 OFFCURVE",
"744 1760 OFFCURVE",
"797 1782 CURVE SMOOTH",
"936 1838 OFFCURVE",
"1066 1962 OFFCURVE",
"1066 2154 CURVE SMOOTH",
"1066 2210 OFFCURVE",
"1055 2260 OFFCURVE",
"1032 2310 CURVE SMOOTH",
"968 2444 OFFCURVE",
"827 2555 OFFCURVE",
"630 2555 CURVE SMOOTH"
);
},
{
closed = 1;
nodes = (
"666 2397 OFFCURVE",
"698 2390 OFFCURVE",
"731 2378 CURVE SMOOTH",
"817 2345 OFFCURVE",
"895 2272 OFFCURVE",
"895 2155 CURVE SMOOTH",
"895 2121 OFFCURVE",
"888 2088 OFFCURVE",
"874 2058 CURVE SMOOTH",
"836 1975 OFFCURVE",
"750 1910 OFFCURVE",
"630 1910 CURVE SMOOTH",
"594 1910 OFFCURVE",
"558 1916 OFFCURVE",
"526 1928 CURVE SMOOTH",
"440 1962 OFFCURVE",
"366 2036 OFFCURVE",
"366 2155 CURVE SMOOTH",
"366 2189 OFFCURVE",
"374 2222 OFFCURVE",
"387 2252 CURVE SMOOTH",
"427 2334 OFFCURVE",
"512 2397 OFFCURVE",
"630 2397 CURVE SMOOTH"
);
}
);
width = 1729;
}
);
unicode = 00B0;
},
{
glyphname = cent;
lastChange = "2013-01-27 18:07:42 -0800";
layers = (
{
layerId = "E08CDE4C-5D6C-43D8-8149-5F9E51F0B944";
name = "Bold Condensed";
paths = (
{
closed = 1;
nodes = (
"459 1274 OFFCURVE",
"193 965 OFFCURVE",
"193 526 CURVE SMOOTH",
"193 103 OFFCURVE",
"494 -192 OFFCURVE",
"896 -192 CURVE SMOOTH",
"1052 -192 OFFCURVE",
"1224 -145 OFFCURVE",
"1397 -42 CURVE",
"1348 147 LINE",
"1191 39 OFFCURVE",
"1039 0 OFFCURVE",
"906 0 CURVE SMOOTH",
"627 0 OFFCURVE",
"429 192 OFFCURVE",
"429 533 CURVE SMOOTH",
"429 846 OFFCURVE",
"596 1081 OFFCURVE",
"910 1081 CURVE SMOOTH",
"1072 1081 OFFCURVE",
"1192 1030 OFFCURVE",
"1270 933 CURVE",
"1375 1085 LINE",
"1282 1208 OFFCURVE",
"1114 1274 OFFCURVE",
"897 1274 CURVE SMOOTH"
);
},
{
closed = 1;
nodes = (
"820 1588 LINE",
"820 -481 LINE",
"974 -481 LINE",
"974 1588 LINE"
);
}
);
width = 2435;
}
);
unicode = 00A2;
},
{
glyphname = sterling;
lastChange = "2013-01-27 18:07:42 -0800";
layers = (
{
layerId = "E08CDE4C-5D6C-43D8-8149-5F9E51F0B944";
name = "Bold Condensed";
paths = (
{
closed = 1;
nodes = (
"596 1977 OFFCURVE",
"479 1653 OFFCURVE",
"479 1175 CURVE SMOOTH",
"479 1162 OFFCURVE",
"480 1149 OFFCURVE",
"482 1136 CURVE",
"233 1136 LINE",
"233 942 LINE",
"483 942 LINE",
"483 601 LINE SMOOTH",
"483 371 OFFCURVE",
"375 272 OFFCURVE",
"233 189 CURVE",
"235 0 LINE",
"1554 0 LINE",
"1554 193 LINE",
"583 193 LINE",
"605 210 OFFCURVE",
"624 233 OFFCURVE",
"639 265 CURVE SMOOTH",
"714 417 OFFCURVE",
"716 650 OFFCURVE",
"716 875 CURVE SMOOTH",
"716 942 LINE",
"1167 942 LINE",
"1167 1136 LINE",
"714 1136 LINE",
"710 1293 LINE SMOOTH",
"710 1578 OFFCURVE",
"798 1785 OFFCURVE",
"1082 1785 CURVE SMOOTH",
"1234 1785 OFFCURVE",
"1361 1747 OFFCURVE",
"1456 1689 CURVE",
"1528 1853 LINE",
"1422 1936 OFFCURVE",
"1274 1977 OFFCURVE",
"1078 1977 CURVE SMOOTH"
);
}
);
width = 2435;
}
);
unicode = 00A3;
},
{
glyphname = section;
lastChange = "2013-01-27 18:07:42 -0800";
layers = (
{
layerId = "E08CDE4C-5D6C-43D8-8149-5F9E51F0B944";
name = "Bold Condensed";
paths = (
{
closed = 1;
nodes = (
"676 2006 OFFCURVE",
"428 1901 OFFCURVE",
"428 1629 CURVE SMOOTH",
"428 1455 OFFCURVE",
"521 1369 OFFCURVE",
"637 1299 CURVE",
"517 1239 OFFCURVE",
"379 1140 OFFCURVE",
"379 963 CURVE SMOOTH",
"379 919 OFFCURVE",
"387 878 OFFCURVE",
"402 841 CURVE SMOOTH",
"454 714 OFFCURVE",
"573 642 OFFCURVE",
"701 587 CURVE SMOOTH",
"816 538 LINE SMOOTH",
"861 519 OFFCURVE",
"902 501 OFFCURVE",
"938 485 CURVE SMOOTH",
"1016 448 OFFCURVE",
"1102 407 OFFCURVE",
"1102 299 CURVE SMOOTH",
"1102 269 OFFCURVE",
"1096 242 OFFCURVE",
"1081 216 CURVE SMOOTH",
"1032 130 OFFCURVE",
"916 89 OFFCURVE",
"778 89 CURVE SMOOTH",
"636 89 OFFCURVE",
"526 126 OFFCURVE",
"413 176 CURVE",
"416 -27 LINE",
"520 -69 OFFCURVE",
"645 -98 OFFCURVE",
"784 -98 CURVE SMOOTH",
"939 -98 OFFCURVE",
"1076 -57 OFFCURVE",
"1171 8 CURVE SMOOTH",
"1261 71 OFFCURVE",
"1339 167 OFFCURVE",
"1339 311 CURVE SMOOTH",
"1339 483 OFFCURVE",
"1232 564 OFFCURVE",
"1116 623 CURVE",
"1230 692 OFFCURVE",
"1370 795 OFFCURVE",
"1370 973 CURVE SMOOTH",
"1370 1021 OFFCURVE",
"1358 1065 OFFCURVE",
"1336 1103 CURVE SMOOTH",
"1235 1274 OFFCURVE",
"995 1334 OFFCURVE",
"817 1431 CURVE SMOOTH",
"738 1475 OFFCURVE",
"663 1524 OFFCURVE",
"663 1635 CURVE SMOOTH",
"663 1781 OFFCURVE",
"808 1819 OFFCURVE",
"956 1819 CURVE SMOOTH",
"1071 1819 OFFCURVE",
"1183 1786 OFFCURVE",
"1265 1748 CURVE",
"1262 1950 LINE",
"1160 1981 OFFCURVE",
"1076 2006 OFFCURVE",
"950 2006 CURVE SMOOTH"
);
},
{
closed = 1;
nodes = (
"912 1153 OFFCURVE",
"1127 1123 OFFCURVE",
"1127 955 CURVE SMOOTH",
"1127 927 OFFCURVE",
"1122 903 OFFCURVE",
"1110 879 CURVE SMOOTH",
"1072 807 OFFCURVE",
"1000 757 OFFCURVE",
"933 714 CURVE",
"887 733 OFFCURVE",
"844 751 OFFCURVE",
"806 769 CURVE SMOOTH",
"719 809 OFFCURVE",
"620 859 OFFCURVE",
"620 979 CURVE SMOOTH",
"620 1102 OFFCURVE",
"720 1169 OFFCURVE",
"802 1213 CURVE"
);
}
);
width = 2247;
}
);
unicode = 00A7;
},
{
glyphname = bullet;
lastChange = "2013-01-27 18:07:42 -0800";
layers = (
{
layerId = "E08CDE4C-5D6C-43D8-8149-5F9E51F0B944";
name = "Bold Condensed";
paths = (
{
closed = 1;
nodes = (
"726 1641 OFFCURVE",
"666 1631 OFFCURVE",
"610 1607 CURVE SMOOTH",
"461 1547 OFFCURVE",
"322 1412 OFFCURVE",
"322 1210 CURVE SMOOTH",
"322 1153 OFFCURVE",
"334 1098 OFFCURVE",
"357 1048 CURVE SMOOTH",
"424 903 OFFCURVE",
"571 788 OFFCURVE",
"781 788 CURVE SMOOTH",
"919 788 OFFCURVE",
"1031 844 OFFCURVE",
"1107 915 CURVE SMOOTH",
"1181 983 OFFCURVE",
"1245 1087 OFFCURVE",
"1245 1220 CURVE SMOOTH",
"1245 1277 OFFCURVE",
"1233 1331 OFFCURVE",
"1208 1382 CURVE SMOOTH",
"1141 1525 OFFCURVE",
"995 1641 OFFCURVE",
"787 1641 CURVE SMOOTH"
);
}
);
width = 2023;
}
);
unicode = 2022;
},
{
glyphname = paragraph;
lastChange = "2013-01-27 18:07:42 -0800";
layers = (
{
layerId = "E08CDE4C-5D6C-43D8-8149-5F9E51F0B944";
name = "Bold Condensed";
paths = (
{
closed = 1;
nodes = (
"924 1880 LINE SMOOTH",
"563 1880 OFFCURVE",
"219 1802 OFFCURVE",
"219 1442 CURVE SMOOTH",
"219 1372 OFFCURVE",
"232 1308 OFFCURVE",
"256 1251 CURVE SMOOTH",
"322 1096 OFFCURVE",
"464 975 OFFCURVE",
"676 972 CURVE",
"676 -303 LINE",
"872 -303 LINE",
"872 1711 LINE",
"1156 1711 LINE",
"1156 -303 LINE",
"1332 -303 LINE",
"1332 1711 LINE",
"1450 1711 LINE",
"1450 1880 LINE"
);
}
);
width = 2486;
}
);
unicode = 00B6;
},
{
glyphname = germandbls;
lastChange = "2013-01-27 18:07:42 -0800";
layers = (
{
layerId = "E08CDE4C-5D6C-43D8-8149-5F9E51F0B944";
name = "Bold Condensed";
paths = (
{
closed = 1;
nodes = (
"849 2048 OFFCURVE",
"766 2034 OFFCURVE",
"692 2005 CURVE SMOOTH",
"483 1923 OFFCURVE",
"356 1735 OFFCURVE",
"356 1446 CURVE",
"359 -16 LINE",
"584 -16 LINE",
"584 122 OFFCURVE",
"583 280 OFFCURVE",
"583 430 CURVE SMOOTH",
"583 599 OFFCURVE",
"580 786 OFFCURVE",
"580 955 CURVE SMOOTH",
"580 1104 OFFCURVE",
"579 1264 OFFCURVE",
"579 1402 CURVE SMOOTH",
"579 1661 OFFCURVE",
"683 1871 OFFCURVE",
"942 1871 CURVE SMOOTH",
"1117 1871 OFFCURVE",
"1243 1784 OFFCURVE",
"1243 1610 CURVE SMOOTH",
"1243 1564 OFFCURVE",
"1234 1520 OFFCURVE",
"1217 1480 CURVE SMOOTH",
"1161 1351 OFFCURVE",
"1049 1260 OFFCURVE",
"921 1202 CURVE",
"899 1016 LINE",
"1036 939 OFFCURVE",
"1179 860 OFFCURVE",
"1290 762 CURVE SMOOTH",
"1380 684 OFFCURVE",
"1465 581 OFFCURVE",
"1465 424 CURVE SMOOTH",
"1465 253 OFFCURVE",
"1363 133 OFFCURVE",
"1195 133 CURVE SMOOTH",
"1046 133 OFFCURVE",
"934 220 OFFCURVE",
"851 316 CURVE",
"762 173 LINE",
"860 48 OFFCURVE",
"1003 -47 OFFCURVE",
"1200 -47 CURVE SMOOTH",
"1267 -47 OFFCURVE",
"1331 -35 OFFCURVE",
"1394 -12 CURVE SMOOTH",
"1571 55 OFFCURVE",
"1720 208 OFFCURVE",
"1720 450 CURVE SMOOTH",
"1720 540 OFFCURVE",
"1703 618 OFFCURVE",
"1665 686 CURVE SMOOTH",
"1558 887 OFFCURVE",
"1342 1004 OFFCURVE",
"1105 1074 CURVE SMOOTH",
"1079 1082 OFFCURVE",
"1065 1090 OFFCURVE",
"1065 1098 CURVE SMOOTH",
"1065 1114 OFFCURVE",
"1088 1123 OFFCURVE",
"1101 1128 CURVE SMOOTH",
"1195 1170 OFFCURVE",
"1282 1235 OFFCURVE",
"1351 1306 CURVE SMOOTH",
"1423 1377 OFFCURVE",
"1499 1476 OFFCURVE",
"1499 1612 CURVE SMOOTH",
"1499 1672 OFFCURVE",
"1487 1728 OFFCURVE",
"1462 1781 CURVE SMOOTH",
"1381 1950 OFFCURVE",
"1195 2048 OFFCURVE",
"943 2048 CURVE SMOOTH"
);
}
);
width = 2574;
}
);
unicode = 00DF;
},
{
glyphname = registered;
lastChange = "2013-01-27 18:07:42 -0800";
layers = (
{
layerId = "E08CDE4C-5D6C-43D8-8149-5F9E51F0B944";
name = "Bold Condensed";
paths = (
{
closed = 1;
nodes = (
"970 2003 OFFCURVE",
"718 1869 OFFCURVE",
"536 1698 CURVE SMOOTH",
"361 1533 OFFCURVE",
"211 1298 OFFCURVE",
"211 969 CURVE SMOOTH",
"211 875 OFFCURVE",
"224 783 OFFCURVE",
"250 696 CURVE SMOOTH",
"306 512 OFFCURVE",
"406 360 OFFCURVE",
"534 240 CURVE SMOOTH",
"716 69 OFFCURVE",
"974 -66 OFFCURVE",
"1318 -66 CURVE SMOOTH",
"1658 -66 OFFCURVE",
"1911 69 OFFCURVE",
"2091 240 CURVE SMOOTH",
"2266 405 OFFCURVE",
"2414 640 OFFCURVE",
"2414 968 CURVE SMOOTH",
"2414 1062 OFFCURVE",
"2401 1152 OFFCURVE",
"2375 1239 CURVE SMOOTH",
"2319 1424 OFFCURVE",
"2218 1575 OFFCURVE",
"2091 1695 CURVE SMOOTH",
"1910 1866 OFFCURVE",
"1654 2003 OFFCURVE",
"1310 2003 CURVE SMOOTH"
);
},
{
closed = 1;
nodes = (
"1594 1843 OFFCURVE",
"1822 1733 OFFCURVE",
"1974 1589 CURVE SMOOTH",
"2122 1449 OFFCURVE",
"2241 1239 OFFCURVE",
"2241 967 CURVE SMOOTH",
"2241 687 OFFCURVE",
"2125 486 OFFCURVE",
"1976 347 CURVE SMOOTH",
"1824 203 OFFCURVE",
"1608 94 OFFCURVE",
"1317 94 CURVE SMOOTH",
"1033 94 OFFCURVE",
"805 202 OFFCURVE",
"652 347 CURVE SMOOTH",
"503 487 OFFCURVE",
"384 697 OFFCURVE",
"384 971 CURVE SMOOTH",
"384 1242 OFFCURVE",
"503 1451 OFFCURVE",
"652 1592 CURVE SMOOTH",
"804 1735 OFFCURVE",
"1030 1843 OFFCURVE",
"1312 1843 CURVE SMOOTH"
);
},
{
closed = 1;
nodes = (
"886 1605 LINE",
"886 351 LINE",
"1088 351 LINE",
"1088 885 LINE",
"1274 885 LINE",
"1358 831 OFFCURVE",
"1418 739 OFFCURVE",
"1475 640 CURVE SMOOTH",
"1643 351 LINE",
"1872 351 LINE",
"1828 425 OFFCURVE",
"1788 490 OFFCURVE",
"1751 549 CURVE SMOOTH",
"1668 681 OFFCURVE",
"1590 809 OFFCURVE",
"1485 908 CURVE",
"1684 934 OFFCURVE",
"1846 1036 OFFCURVE",
"1846 1255 CURVE SMOOTH",
"1846 1368 OFFCURVE",
"1799 1455 OFFCURVE",
"1702 1515 CURVE SMOOTH",
"1605 1575 OFFCURVE",
"1458 1605 OFFCURVE",
"1258 1605 CURVE SMOOTH"
);
},
{
closed = 1;
nodes = (
"1462 1441 OFFCURVE",
"1635 1440 OFFCURVE",
"1635 1234 CURVE SMOOTH",
"1635 1049 OFFCURVE",
"1444 1047 OFFCURVE",
"1256 1047 CURVE SMOOTH",
"1085 1047 LINE",
"1084 1441 LINE",
"1253 1441 LINE SMOOTH"
);
}
);
width = 3746;
}
);
unicode = 00AE;
},
{
glyphname = copyright;
lastChange = "2013-01-27 18:07:42 -0800";
layers = (
{
layerId = "E08CDE4C-5D6C-43D8-8149-5F9E51F0B944";
name = "Bold Condensed";
paths = (
{
closed = 1;
nodes = (
"970 2003 OFFCURVE",
"718 1869 OFFCURVE",
"536 1698 CURVE SMOOTH",
"361 1533 OFFCURVE",
"211 1298 OFFCURVE",
"211 969 CURVE SMOOTH",
"211 875 OFFCURVE",
"224 783 OFFCURVE",
"250 696 CURVE SMOOTH",
"306 512 OFFCURVE",
"406 360 OFFCURVE",
"534 240 CURVE SMOOTH",
"716 69 OFFCURVE",
"974 -66 OFFCURVE",
"1318 -66 CURVE SMOOTH",
"1658 -66 OFFCURVE",
"1911 69 OFFCURVE",
"2091 240 CURVE SMOOTH",
"2266 405 OFFCURVE",
"2414 640 OFFCURVE",
"2414 968 CURVE SMOOTH",
"2414 1062 OFFCURVE",
"2401 1152 OFFCURVE",
"2375 1239 CURVE SMOOTH",
"2319 1424 OFFCURVE",
"2218 1575 OFFCURVE",
"2091 1695 CURVE SMOOTH",
"1910 1866 OFFCURVE",
"1654 2003 OFFCURVE",
"1310 2003 CURVE SMOOTH"
);
},
{
closed = 1;
nodes = (
"1268 1627 OFFCURVE",
"1176 1611 OFFCURVE",
"1094 1578 CURVE SMOOTH",
"866 1488 OFFCURVE",
"698 1287 OFFCURVE",
"698 973 CURVE SMOOTH",
"698 882 OFFCURVE",
"715 797 OFFCURVE",
"748 718 CURVE SMOOTH",
"839 494 OFFCURVE",
"1044 318 OFFCURVE",
"1354 318 CURVE SMOOTH",
"1518 318 OFFCURVE",
"1658 359 OFFCURVE",
"1776 441 CURVE",
"1722 606 LINE",
"1640 539 OFFCURVE",
"1536 497 OFFCURVE",
"1398 497 CURVE SMOOTH",
"1317 497 OFFCURVE",
"1246 511 OFFCURVE",
"1184 535 CURVE SMOOTH",
"1019 603 OFFCURVE",
"907 751 OFFCURVE",
"907 979 CURVE SMOOTH",
"907 1044 OFFCURVE",
"918 1106 OFFCURVE",
"939 1163 CURVE SMOOTH",
"999 1328 OFFCURVE",
"1138 1453 OFFCURVE",
"1359 1453 CURVE SMOOTH",
"1505 1453 OFFCURVE",
"1628 1409 OFFCURVE",
"1728 1323 CURVE",
"1770 1487 LINE",
"1660 1581 OFFCURVE",
"1526 1627 OFFCURVE",
"1369 1627 CURVE SMOOTH"
);
},
{
closed = 1;
nodes = (
"1594 1843 OFFCURVE",
"1822 1733 OFFCURVE",
"1974 1589 CURVE SMOOTH",
"2122 1449 OFFCURVE",
"2241 1239 OFFCURVE",
"2241 967 CURVE SMOOTH",
"2241 695 OFFCURVE",
"2122 486 OFFCURVE",
"1975 347 CURVE SMOOTH",
"1824 203 OFFCURVE",
"1600 94 OFFCURVE",
"1317 94 CURVE SMOOTH",
"1033 94 OFFCURVE",
"805 202 OFFCURVE",
"652 347 CURVE SMOOTH",
"503 487 OFFCURVE",
"384 697 OFFCURVE",
"384 971 CURVE SMOOTH",
"384 1242 OFFCURVE",
"503 1453 OFFCURVE",
"652 1592 CURVE SMOOTH",
"804 1734 OFFCURVE",
"1030 1843 OFFCURVE",
"1312 1843 CURVE SMOOTH"
);
}
);
width = 3746;
}
);
unicode = 00A9;
},
{
glyphname = trademark;
lastChange = "2013-01-27 18:07:42 -0800";
layers = (
{
layerId = "E08CDE4C-5D6C-43D8-8149-5F9E51F0B944";
name = "Bold Condensed";
paths = (
{
closed = 1;
nodes = (
"2089 2450 LINE",
"1748 1697 LINE",
"1425 2450 LINE",
"1166 2450 LINE",
"1166 1405 LINE",
"1331 1405 LINE",
"1331 2216 LINE",
"1685 1405 LINE",
"1794 1405 LINE",
"2168 2217 LINE",
"2168 1405 LINE",
"2334 1405 LINE",
"2334 2450 LINE"
);
},
{
closed = 1;
nodes = (
"143 2450 LINE",
"143 2312 LINE",
"489 2312 LINE",
"489 1405 LINE",
"658 1405 LINE",
"658 2312 LINE",
"1013 2312 LINE",
"1013 2450 LINE"
);
}
);
width = 3828;
}
);
unicode = 2122;
},
{
glyphname = acute;
lastChange = "2013-01-27 18:07:42 -0800";
layers = (
{
anchors = (
{
name = _top;
position = "{501, 2201}";
}
);
layerId = "E08CDE4C-5D6C-43D8-8149-5F9E51F0B944";
name = "Bold Condensed";
paths = (
{
closed = 1;
nodes = (
"667 2837 LINE",
"358 2400 LINE",
"618 2400 LINE",
"1038 2837 LINE"
);
}
);
width = 1243;
}
);
unicode = 00B4;
},
{
glyphname = dieresis;
lastChange = "2013-01-27 18:07:42 -0800";
layers = (
{
anchors = (
{
name = _top;
position = "{559, 2208}";
}
);
layerId = "E08CDE4C-5D6C-43D8-8149-5F9E51F0B944";
name = "Bold Condensed";
paths = (
{
closed = 1;
nodes = (
"660 2727 LINE",
"660 2423 LINE",
"966 2423 LINE",
"966 2727 LINE"
);
},
{
closed = 1;
nodes = (
"166 2727 LINE",
"166 2423 LINE",
"472 2423 LINE",
"472 2727 LINE"
);
}
);
width = 1522;
}
);
unicode = 00A8;
},
{
glyphname = notequal;
lastChange = "2013-01-27 18:07:42 -0800";
layers = (
{
layerId = "E08CDE4C-5D6C-43D8-8149-5F9E51F0B944";
name = "Bold Condensed";
paths = (
{
closed = 1;
nodes = (
"1103 1191 LINE",
"328 1191 LINE",
"341 1025 LINE",
"1025 1025 LINE",
"825 639 LINE",
"329 639 LINE",
"341 475 LINE",
"741 475 LINE",
"567 119 LINE",
"733 94 LINE",
"925 475 LINE",
"1723 475 LINE",
"1711 639 LINE",
"1005 639 LINE",
"1207 1025 LINE",
"1723 1025 LINE",
"1709 1191 LINE",
"1286 1191 LINE",
"1459 1540 LINE",
"1289 1565 LINE"
);
}
);
width = 2767;
}
);
unicode = 2260;
},
{
glyphname = AE;
lastChange = "2013-01-27 18:07:42 -0800";
layers = (
{
anchors = (
{
name = top;
position = "{1388, 0}";
}
);
layerId = "E08CDE4C-5D6C-43D8-8149-5F9E51F0B944";
name = "Bold Condensed";
paths = (
{
closed = 1;
nodes = (
"1145 1988 LINE",
"10 0 LINE",
"278 0 LINE",
"586 543 LINE",
"1469 543 LINE",
"1511 0 LINE",
"2599 0 LINE",
"2599 202 LINE",
"1719 202 LINE",
"1663 917 LINE",
"2511 917 LINE",
"2511 1119 LINE",
"1637 1119 LINE",
"1586 1786 LINE",
"2567 1786 LINE",
"2567 1988 LINE"
);
},
{
closed = 1;
nodes = (
"1443 745 LINE",
"694 745 LINE",
"1292 1786 LINE",
"1361 1786 LINE"
);
}
);
width = 4153;
}
);
unicode = 00C6;
},
{
glyphname = Oslash;
lastChange = "2013-01-27 18:07:42 -0800";
layers = (
{
anchors = (
{
name = top;
position = "{1215, -113}";
}
);
layerId = "E08CDE4C-5D6C-43D8-8149-5F9E51F0B944";
name = "Bold Condensed";
paths = (
{
closed = 1;
nodes = (
"571 1912 OFFCURVE",
"238 1419 OFFCURVE",
"238 884 CURVE SMOOTH",
"238 185 OFFCURVE",
"669 -143 OFFCURVE",
"1218 -143 CURVE SMOOTH",
"1860 -143 OFFCURVE",
"2190 349 OFFCURVE",
"2190 884 CURVE SMOOTH",
"2190 1583 OFFCURVE",
"1763 1912 OFFCURVE",
"1218 1912 CURVE SMOOTH"
);
},
{
closed = 1;
nodes = (
"1704 1709 OFFCURVE",
"1933 1345 OFFCURVE",
"1933 883 CURVE SMOOTH",
"1933 338 OFFCURVE",
"1589 55 OFFCURVE",
"1218 55 CURVE SMOOTH",
"723 55 OFFCURVE",
"489 420 OFFCURVE",
"489 883 CURVE SMOOTH",
"489 1427 OFFCURVE",
"839 1709 OFFCURVE",
"1218 1709 CURVE SMOOTH"
);
},
{
closed = 1;
nodes = (
"625 -278 LINE",
"791 -338 LINE",
"1803 2046 LINE",
"1632 2106 LINE"
);
}
);
width = 3406;
}
);
unicode = 00D8;
},
{
glyphname = infinity;
lastChange = "2013-01-27 18:07:42 -0800";
layers = (
{
layerId = "E08CDE4C-5D6C-43D8-8149-5F9E51F0B944";
name = "Bold Condensed";
paths = (
{
closed = 1;
nodes = (
"1730 1450 OFFCURVE",
"1677 1442 OFFCURVE",
"1628 1425 CURVE SMOOTH",
"1457 1368 OFFCURVE",
"1344 1238 OFFCURVE",
"1242 1106 CURVE",
"1203 1158 OFFCURVE",
"1162 1206 OFFCURVE",
"1120 1248 CURVE SMOOTH",
"1016 1353 OFFCURVE",
"885 1450 OFFCURVE",
"687 1450 CURVE SMOOTH",
"544 1450 OFFCURVE",
"424 1390 OFFCURVE",
"344 1318 CURVE SMOOTH",
"265 1246 OFFCURVE",
"197 1137 OFFCURVE",
"197 996 CURVE SMOOTH",
"197 927 OFFCURVE",
"208 860 OFFCURVE",
"232 798 CURVE SMOOTH",
"300 624 OFFCURVE",
"455 483 OFFCURVE",
"694 483 CURVE SMOOTH",
"748 483 OFFCURVE",
"800 492 OFFCURVE",
"850 508 CURVE SMOOTH",
"1019 566 OFFCURVE",
"1138 695 OFFCURVE",
"1240 827 CURVE",
"1330 712 OFFCURVE",
"1419 626 OFFCURVE",
"1505 569 CURVE SMOOTH",
"1591 512 OFFCURVE",
"1685 483 OFFCURVE",
"1786 483 CURVE SMOOTH",
"1852 483 OFFCURVE",
"1914 496 OFFCURVE",
"1974 519 CURVE SMOOTH",
"2144 586 OFFCURVE",
"2279 741 OFFCURVE",
"2279 974 CURVE SMOOTH",
"2279 1043 OFFCURVE",
"2268 1106 OFFCURVE",
"2245 1164 CURVE SMOOTH",
"2178 1334 OFFCURVE",
"2024 1450 OFFCURVE",
"1789 1450 CURVE SMOOTH"
);
},
{
closed = 1;
nodes = (
"732 1293 OFFCURVE",
"777 1283 OFFCURVE",
"819 1267 CURVE SMOOTH",
"964 1210 OFFCURVE",
"1061 1088 OFFCURVE",
"1146 965 CURVE",
"1086 883 OFFCURVE",
"1017 800 OFFCURVE",
"940 740 CURVE SMOOTH",
"877 691 OFFCURVE",
"800 646 OFFCURVE",
"698 646 CURVE SMOOTH",
"648 646 OFFCURVE",
"605 655 OFFCURVE",
"566 673 CURVE SMOOTH",
"462 721 OFFCURVE",
"374 823 OFFCURVE",
"374 969 CURVE SMOOTH",
"374 1013 OFFCURVE",
"382 1054 OFFCURVE",
"396 1094 CURVE SMOOTH",
"437 1207 OFFCURVE",
"531 1293 OFFCURVE",
"684 1293 CURVE SMOOTH"
);
},
{
closed = 1;
nodes = (
"1828 1293 OFFCURVE",
"1868 1285 OFFCURVE",
"1906 1270 CURVE SMOOTH",
"2004 1229 OFFCURVE",
"2089 1140 OFFCURVE",
"2089 1005 CURVE SMOOTH",
"2089 797 OFFCURVE",
"1996 646 OFFCURVE",
"1790 646 CURVE SMOOTH",
"1690 646 OFFCURVE",
"1624 680 OFFCURVE",
"1561 728 CURVE SMOOTH",
"1473 793 OFFCURVE",
"1406 875 OFFCURVE",
"1334 969 CURVE",
"1390 1051 OFFCURVE",
"1457 1133 OFFCURVE",
"1534 1193 CURVE SMOOTH",
"1598 1244 OFFCURVE",
"1680 1293 OFFCURVE",
"1783 1293 CURVE SMOOTH"
);
}
);
width = 3531;
}
);
unicode = 221E;
},
{
glyphname = plusminus;
lastChange = "2013-01-27 18:07:42 -0800";
layers = (
{
layerId = "E08CDE4C-5D6C-43D8-8149-5F9E51F0B944";
name = "Bold Condensed";
paths = (
{
closed = 1;
nodes = (
"1009 1511 LINE",
"1009 1001 LINE",
"385 1001 LINE",
"402 813 LINE",
"1012 813 LINE",
"1012 305 LINE",
"1218 305 LINE",
"1218 813 LINE",
"1828 813 LINE",
"1828 1001 LINE",
"1212 1001 LINE",
"1212 1511 LINE"
);
},
{
closed = 1;
nodes = (
"402 189 LINE",
"402 0 LINE",
"1834 0 LINE",
"1834 189 LINE"
);
}
);
width = 2986;
}
);
unicode = 00B1;
},
{
glyphname = lessequal;
lastChange = "2013-01-27 18:07:42 -0800";
layers = (
{
layerId = "E08CDE4C-5D6C-43D8-8149-5F9E51F0B944";
name = "Bold Condensed";
paths = (
{
closed = 1;
nodes = (
"379 1026 LINE",
"379 915 LINE",
"1675 301 LINE",
"1675 493 LINE",
"618 975 LINE",
"1675 1479 LINE",
"1675 1671 LINE"
);
},
{
closed = 1;
nodes = (
"330 185 LINE",
"330 18 LINE",
"1714 18 LINE",
"1714 185 LINE"
);
}
);
width = 2767;
}
);
unicode = 2264;
},
{
glyphname = greaterequal;
lastChange = "2013-01-27 18:07:42 -0800";
layers = (
{
layerId = "E08CDE4C-5D6C-43D8-8149-5F9E51F0B944";
name = "Bold Condensed";
paths = (
{
closed = 1;
nodes = (
"377 1482 LINE",
"1440 971 LINE",
"372 496 LINE",
"372 303 LINE",
"1683 918 LINE",
"1683 1027 LINE",
"377 1673 LINE"
);
},
{
closed = 1;
nodes = (
"330 185 LINE",
"330 18 LINE",
"1709 18 LINE",
"1709 185 LINE"
);
}
);
width = 2765;
}
);
unicode = 2265;
},
{
glyphname = yen;
lastChange = "2013-01-27 18:07:42 -0800";
layers = (
{
layerId = "E08CDE4C-5D6C-43D8-8149-5F9E51F0B944";
name = "Bold Condensed";
paths = (
{
closed = 1;
nodes = (
"1346 1939 LINE",
"1177 1655 OFFCURVE",
"1010 1368 OFFCURVE",
"838 1087 CURVE",
"674 1375 OFFCURVE",
"501 1655 OFFCURVE",
"333 1939 CURVE",
"53 1939 LINE",
"661 977 LINE",
"158 977 LINE",
"158 784 LINE",
"708 784 LINE",
"708 577 LINE",
"152 577 LINE",
"166 387 LINE",
"711 387 LINE",
"711 0 LINE",
"946 0 LINE",
"946 387 LINE",
"1480 387 LINE",
"1480 577 LINE",
"942 577 LINE",
"942 784 LINE",
"1476 784 LINE",
"1476 977 LINE",
"979 977 LINE",
"1600 1939 LINE"
);
}
);
width = 2435;
}
);
unicode = 00A5;
},
{
glyphname = partialdiff;
lastChange = "2013-01-27 18:07:42 -0800";
layers = (
{
layerId = "E08CDE4C-5D6C-43D8-8149-5F9E51F0B944";
name = "Bold Condensed";
paths = (
{
closed = 1;
nodes = (
"693 2077 OFFCURVE",
"541 2021 OFFCURVE",
"439 1952 CURVE",
"454 1764 LINE",
"549 1828 OFFCURVE",
"673 1894 OFFCURVE",
"828 1894 CURVE SMOOTH",
"901 1894 OFFCURVE",
"963 1879 OFFCURVE",
"1021 1849 CURVE SMOOTH",
"1206 1749 OFFCURVE",
"1289 1517 OFFCURVE",
"1289 1228 CURVE SMOOTH",
"1289 1199 OFFCURVE",
"1288 1152 OFFCURVE",
"1288 1125 CURVE",
"1193 1249 OFFCURVE",
"1061 1352 OFFCURVE",
"857 1352 CURVE SMOOTH",
"761 1352 OFFCURVE",
"673 1331 OFFCURVE",
"589 1290 CURVE SMOOTH",
"347 1172 OFFCURVE",
"170 914 OFFCURVE",
"170 557 CURVE SMOOTH",
"170 471 OFFCURVE",
"182 392 OFFCURVE",
"205 318 CURVE SMOOTH",
"275 102 OFFCURVE",
"445 -49 OFFCURVE",
"729 -49 CURVE SMOOTH",
"817 -49 OFFCURVE",
"901 -33 OFFCURVE",
"974 -1 CURVE SMOOTH",
"1130 66 OFFCURVE",
"1245 183 OFFCURVE",
"1328 328 CURVE SMOOTH",
"1449 540 OFFCURVE",
"1523 818 OFFCURVE",
"1523 1147 CURVE SMOOTH",
"1523 1307 OFFCURVE",
"1508 1444 OFFCURVE",
"1477 1562 CURVE SMOOTH",
"1399 1858 OFFCURVE",
"1221 2077 OFFCURVE",
"859 2077 CURVE SMOOTH"
);
},
{
closed = 1;
nodes = (
"936 1170 OFFCURVE",
"979 1163 OFFCURVE",
"1019 1147 CURVE SMOOTH",
"1138 1099 OFFCURVE",
"1221 1000 OFFCURVE",
"1265 878 CURVE",
"1242 676 OFFCURVE",
"1177 488 OFFCURVE",
"1087 354 CURVE SMOOTH",
"1013 243 OFFCURVE",
"901 135 OFFCURVE",
"733 135 CURVE SMOOTH",
"682 135 OFFCURVE",
"635 145 OFFCURVE",
"595 165 CURVE SMOOTH",
"469 227 OFFCURVE",
"401 366 OFFCURVE",
"401 553 CURVE SMOOTH",
"401 730 OFFCURVE",
"461 882 OFFCURVE",
"541 986 CURVE SMOOTH",
"615 1082 OFFCURVE",
"731 1170 OFFCURVE",
"888 1170 CURVE SMOOTH"
);
}
);
width = 2390;
}
);
unicode = 2202;
},
{
glyphname = summation;
lastChange = "2013-01-27 18:07:42 -0800";
layers = (
{
layerId = "E08CDE4C-5D6C-43D8-8149-5F9E51F0B944";
name = "Bold Condensed";
paths = (
{
closed = 1;
nodes = (
"147 1718 LINE",
"147 1589 LINE",
"990 529 LINE",
"117 -551 LINE",
"117 -674 LINE",
"1705 -674 LINE",
"1705 -472 LINE",
"440 -472 LINE",
"1265 541 LINE",
"483 1524 LINE",
"1643 1524 LINE",
"1643 1718 LINE"
);
}
);
width = 2589;
}
);
unicode = 2211;
},
{
glyphname = product;
lastChange = "2013-01-27 18:07:42 -0800";
layers = (
{
layerId = "E08CDE4C-5D6C-43D8-8149-5F9E51F0B944";
name = "Bold Condensed";
paths = (
{
closed = 1;
nodes = (
"225 1718 LINE",
"247 1520 LINE",
"418 1520 LINE",
"418 -674 LINE",
"656 -674 LINE",
"656 1520 LINE",
"1644 1520 LINE",
"1644 -674 LINE",
"1887 -674 LINE",
"1887 1520 LINE",
"2041 1520 LINE",
"2063 1718 LINE"
);
}
);
width = 3211;
}
);
unicode = 220F;
},
{
glyphname = pi;
lastChange = "2013-01-27 18:07:42 -0800";
layers = (
{
layerId = "E08CDE4C-5D6C-43D8-8149-5F9E51F0B944";
name = "Bold Condensed";
paths = (
{
closed = 1;
nodes = (
"516 1415 LINE SMOOTH",
"322 1415 OFFCURVE",
"143 1411 OFFCURVE",
"35 1329 CURVE",
"58 1150 LINE",
"163 1206 OFFCURVE",
"276 1229 OFFCURVE",
"436 1233 CURVE",
"430 1003 OFFCURVE",
"416 769 OFFCURVE",
"388 556 CURVE SMOOTH",
"362 354 OFFCURVE",
"328 138 OFFCURVE",
"246 -5 CURVE",
"477 -5 LINE",
"494 23 OFFCURVE",
"508 64 OFFCURVE",
"522 115 CURVE SMOOTH",
"611 452 OFFCURVE",
"637 840 OFFCURVE",
"667 1233 CURVE",
"1174 1233 LINE",
"1174 375 LINE SMOOTH",
"1174 137 OFFCURVE",
"1224 -16 OFFCURVE",
"1460 -16 CURVE SMOOTH",
"1524 -16 OFFCURVE",
"1586 -8 OFFCURVE",
"1648 3 CURVE",
"1634 43 OFFCURVE",
"1630 83 OFFCURVE",
"1630 131 CURVE SMOOTH",
"1630 145 OFFCURVE",
"1630 159 OFFCURVE",
"1631 172 CURVE SMOOTH",
"1634 213 LINE",
"1594 201 OFFCURVE",
"1558 195 OFFCURVE",
"1524 195 CURVE SMOOTH",
"1410 195 OFFCURVE",
"1390 276 OFFCURVE",
"1390 388 CURVE SMOOTH",
"1390 1233 LINE",
"1669 1233 LINE",
"1669 1415 LINE"
);
}
);
width = 2638;
}
);
unicode = 03C0;
},
{
glyphname = integral;
lastChange = "2013-01-27 18:07:42 -0800";
layers = (
{
layerId = "E08CDE4C-5D6C-43D8-8149-5F9E51F0B944";
name = "Bold Condensed";
paths = (
{
closed = 1;
nodes = (
"724 1954 OFFCURVE",
"620 1744 OFFCURVE",
"620 1441 CURVE SMOOTH",
"620 -336 LINE SMOOTH",
"620 -522 OFFCURVE",
"586 -633 OFFCURVE",
"400 -633 CURVE SMOOTH",
"349 -633 OFFCURVE",
"285 -626 OFFCURVE",
"250 -612 CURVE",
"253 -788 LINE",
"318 -806 OFFCURVE",
"358 -817 OFFCURVE",
"438 -817 CURVE SMOOTH",
"743 -817 OFFCURVE",
"844 -607 OFFCURVE",
"844 -304 CURVE SMOOTH",
"844 1474 LINE SMOOTH",
"844 1660 OFFCURVE",
"881 1770 OFFCURVE",
"1067 1770 CURVE SMOOTH",
"1117 1770 OFFCURVE",
"1181 1764 OFFCURVE",
"1217 1750 CURVE",
"1214 1926 LINE",
"1154 1940 OFFCURVE",
"1103 1954 OFFCURVE",
"1028 1954 CURVE SMOOTH"
);
}
);
width = 1438;
}
);
unicode = 222B;
},
{
glyphname = ordfeminine;
lastChange = "2013-01-27 18:07:42 -0800";
layers = (
{
layerId = "E08CDE4C-5D6C-43D8-8149-5F9E51F0B944";
name = "Bold Condensed";
paths = (
{
closed = 1;
nodes = (
"403 2541 OFFCURVE",
"266 2485 OFFCURVE",
"196 2368 CURVE",
"288 2265 LINE",
"348 2354 OFFCURVE",
"440 2394 OFFCURVE",
"575 2394 CURVE SMOOTH",
"725 2394 OFFCURVE",
"777 2339 OFFCURVE",
"777 2189 CURVE SMOOTH",
"777 2178 LINE",
"676 2164 OFFCURVE",
"568 2166 OFFCURVE",
"467 2152 CURVE SMOOTH",
"303 2127 OFFCURVE",
"135 2042 OFFCURVE",
"135 1856 CURVE SMOOTH",
"135 1813 OFFCURVE",
"143 1775 OFFCURVE",
"161 1740 CURVE SMOOTH",
"212 1636 OFFCURVE",
"325 1573 OFFCURVE",
"478 1573 CURVE SMOOTH",
"614 1573 OFFCURVE",
"717 1624 OFFCURVE",
"778 1698 CURVE",
"786 1598 LINE",
"965 1598 LINE",
"958 1680 OFFCURVE",
"956 1712 OFFCURVE",
"956 1772 CURVE SMOOTH",
"958 2210 LINE SMOOTH",
"958 2436 OFFCURVE",
"807 2541 OFFCURVE",
"583 2541 CURVE SMOOTH"
);
},
{
closed = 1;
nodes = (
"777 2006 LINE",
"768 1838 OFFCURVE",
"684 1714 OFFCURVE",
"506 1714 CURVE SMOOTH",
"400 1714 OFFCURVE",
"321 1752 OFFCURVE",
"321 1858 CURVE SMOOTH",
"321 2047 OFFCURVE",
"624 2010 OFFCURVE",
"777 2040 CURVE"
);
}
);
width = 1526;
}
);
unicode = 00AA;
},
{
glyphname = ordmasculine;
lastChange = "2013-01-27 18:07:42 -0800";
layers = (
{
layerId = "E08CDE4C-5D6C-43D8-8149-5F9E51F0B944";
name = "Bold Condensed";
paths = (
{
closed = 1;
nodes = (
"524 2539 OFFCURVE",
"454 2525 OFFCURVE",
"393 2501 CURVE SMOOTH",
"228 2432 OFFCURVE",
"109 2286 OFFCURVE",
"109 2058 CURVE SMOOTH",
"109 1754 OFFCURVE",
"297 1571 OFFCURVE",
"604 1571 CURVE SMOOTH",
"684 1571 OFFCURVE",
"754 1583 OFFCURVE",
"814 1609 CURVE SMOOTH",
"978 1678 OFFCURVE",
"1093 1826 OFFCURVE",
"1093 2054 CURVE SMOOTH",
"1093 2122 OFFCURVE",
"1082 2185 OFFCURVE",
"1062 2244 CURVE SMOOTH",
"999 2422 OFFCURVE",
"843 2539 OFFCURVE",
"603 2539 CURVE SMOOTH"
);
},
{
closed = 1;
nodes = (
"798 2393 OFFCURVE",
"905 2250 OFFCURVE",
"905 2052 CURVE SMOOTH",
"905 1860 OFFCURVE",
"797 1718 OFFCURVE",
"604 1718 CURVE SMOOTH",
"404 1718 OFFCURVE",
"300 1858 OFFCURVE",
"300 2057 CURVE SMOOTH",
"300 2250 OFFCURVE",
"406 2393 OFFCURVE",
"600 2393 CURVE SMOOTH"
);
}
);
width = 1688;
}
);
unicode = 00BA;
},
{
glyphname = ae;
lastChange = "2013-01-27 18:07:42 -0800";
layers = (
{
anchors = (
{
name = top;
position = "{1289, -19}";
}
);
layerId = "E08CDE4C-5D6C-43D8-8149-5F9E51F0B944";
name = "Bold Condensed";
paths = (
{
closed = 1;
nodes = (
"1508 1419 OFFCURVE",
"1344 1307 OFFCURVE",
"1254 1150 CURVE",
"1242 1196 OFFCURVE",
"1221 1236 OFFCURVE",
"1189 1270 CURVE SMOOTH",
"1105 1356 OFFCURVE",
"969 1419 OFFCURVE",
"806 1419 CURVE SMOOTH",
"537 1419 OFFCURVE",
"351 1326 OFFCURVE",
"257 1150 CURVE",
"380 1023 LINE",
"462 1160 OFFCURVE",
"589 1233 OFFCURVE",
"793 1233 CURVE SMOOTH",
"1019 1233 OFFCURVE",
"1108 1064 OFFCURVE",
"1108 838 CURVE SMOOTH",
"1108 821 LINE",
"660 821 OFFCURVE",
"166 815 OFFCURVE",
"166 366 CURVE SMOOTH",
"166 300 OFFCURVE",
"178 240 OFFCURVE",
"203 188 CURVE SMOOTH",
"274 34 OFFCURVE",
"433 -57 OFFCURVE",
"657 -57 CURVE SMOOTH",
"931 -57 OFFCURVE",
"1115 79 OFFCURVE",
"1221 250 CURVE",
"1310 78 OFFCURVE",
"1481 -53 OFFCURVE",
"1737 -53 CURVE SMOOTH",
"2029 -53 OFFCURVE",
"2215 70 OFFCURVE",
"2327 262 CURVE",
"2209 380 LINE",
"2119 244 OFFCURVE",
"1963 135 OFFCURVE",
"1751 135 CURVE SMOOTH",
"1460 135 OFFCURVE",
"1340 326 OFFCURVE",
"1340 613 CURVE SMOOTH",
"1340 620 OFFCURVE",
"1341 630 OFFCURVE",
"1341 635 CURVE",
"2372 635 LINE",
"2372 696 LINE SMOOTH",
"2372 1135 OFFCURVE",
"2176 1419 OFFCURVE",
"1736 1419 CURVE SMOOTH"
);
},
{
closed = 1;
nodes = (
"1111 339 OFFCURVE",
"1003 130 OFFCURVE",
"703 130 CURVE SMOOTH",
"529 130 OFFCURVE",
"397 204 OFFCURVE",
"397 377 CURVE SMOOTH",
"397 433 OFFCURVE",
"412 476 OFFCURVE",
"441 510 CURVE SMOOTH",
"532 613 OFFCURVE",
"719 626 OFFCURVE",
"911 631 CURVE SMOOTH",
"1111 635 LINE"
);
},
{
closed = 1;
nodes = (
"2021 1233 OFFCURVE",
"2113 1060 OFFCURVE",
"2136 822 CURVE",
"1343 822 LINE",
"1347 876 OFFCURVE",
"1361 928 OFFCURVE",
"1381 978 CURVE SMOOTH",
"1441 1118 OFFCURVE",
"1564 1233 OFFCURVE",
"1762 1233 CURVE SMOOTH"
);
}
);
width = 3701;
}
);
unicode = 00E6;
},
{
glyphname = oslash;
lastChange = "2013-01-27 18:07:42 -0800";
layers = (
{
anchors = (
{
name = top;
position = "{904, -178}";
}
);
components = (
{
name = o;
transform = "{1, 0, 0, 1, 0, 0}";
}
);
layerId = "E08CDE4C-5D6C-43D8-8149-5F9E51F0B944";
name = "Bold Condensed";
paths = (
{
closed = 1;
nodes = (
"408 -491 LINE",
"543 -535 LINE",
"1419 1522 LINE",
"1278 1565 LINE"
);
}
);
width = 2535;
}
);
unicode = 00F8;
},
{
glyphname = questiondown;
lastChange = "2013-01-27 18:07:42 -0800";
layers = (
{
layerId = "E08CDE4C-5D6C-43D8-8149-5F9E51F0B944";
name = "Bold Condensed";
paths = (
{
closed = 1;
nodes = (
"892 1493 LINE",
"904 1424 LINE SMOOTH",
"912 1389 OFFCURVE",
"916 1337 OFFCURVE",
"916 1295 CURVE SMOOTH",
"916 1252 OFFCURVE",
"903 1209 OFFCURVE",
"876 1166 CURVE SMOOTH",
"782 1016 OFFCURVE",
"628 900 OFFCURVE",
"516 764 CURVE SMOOTH",
"448 682 OFFCURVE",
"375 584 OFFCURVE",
"375 448 CURVE SMOOTH",
"375 369 OFFCURVE",
"390 301 OFFCURVE",
"420 242 CURVE SMOOTH",
"510 69 OFFCURVE",
"706 -23 OFFCURVE",
"969 -23 CURVE SMOOTH",
"1114 -23 OFFCURVE",
"1243 13 OFFCURVE",
"1352 66 CURVE",
"1352 266 LINE",
"1256 211 OFFCURVE",
"1138 171 OFFCURVE",
"996 171 CURVE SMOOTH",
"787 171 OFFCURVE",
"606 250 OFFCURVE",
"606 459 CURVE SMOOTH",
"606 514 OFFCURVE",
"618 564 OFFCURVE",
"644 611 CURVE SMOOTH",
"728 761 OFFCURVE",
"878 862 OFFCURVE",
"994 986 CURVE SMOOTH",
"1059 1057 OFFCURVE",
"1130 1146 OFFCURVE",
"1130 1272 CURVE SMOOTH",
"1130 1340 OFFCURVE",
"1123 1427 OFFCURVE",
"1116 1493 CURVE"
);
},
{
closed = 1;
nodes = (
"857 2010 LINE",
"857 1724 LINE",
"1153 1724 LINE",
"1153 2010 LINE"
);
}
);
width = 2114;
}
);
unicode = 00BF;
},
{
glyphname = exclamdown;
lastChange = "2013-01-27 18:07:42 -0800";
layers = (
{
layerId = "E08CDE4C-5D6C-43D8-8149-5F9E51F0B944";
name = "Bold Condensed";
paths = (
{
closed = 1;
nodes = (
"532 685 LINE",
"532 -786 LINE",
"759 -786 LINE",
"759 685 LINE"
);
},
{
closed = 1;
nodes = (
"532 1226 LINE",
"532 945 LINE",
"825 945 LINE",
"825 1226 LINE"
);
}
);
width = 1509;
}
);
unicode = 00A1;
},
{
glyphname = logicalnot;
lastChange = "2013-01-27 18:07:42 -0800";
layers = (
{
layerId = "E08CDE4C-5D6C-43D8-8149-5F9E51F0B944";
name = "Bold Condensed";
paths = (
{
closed = 1;
nodes = (
"410 1252 LINE",
"410 1062 LINE",
"1636 1062 LINE",
"1636 487 LINE",
"1841 487 LINE",
"1841 1252 LINE"
);
}
);
width = 2986;
}
);
unicode = 00AC;
},
{
glyphname = radical;
lastChange = "2013-01-27 18:07:42 -0800";
layers = (
{
layerId = "E08CDE4C-5D6C-43D8-8149-5F9E51F0B944";
name = "Bold Condensed";
paths = (
{
closed = 1;
nodes = (
"1537 2075 LINE",
"1027 192 LINE",
"973 -48 LINE",
"893 188 LINE",
"581 1022 LINE",
"178 952 LINE",
"205 800 LINE",
"440 838 LINE",
"893 -313 LINE",
"1078 -313 LINE",
"1714 2075 LINE"
);
}
);
width = 2691;
}
);
unicode = 221A;
},
{
glyphname = florin;
lastChange = "2013-01-27 18:07:42 -0800";
layers = (
{
layerId = "E08CDE4C-5D6C-43D8-8149-5F9E51F0B944";
name = "Bold Condensed";
paths = (
{
closed = 1;
nodes = (
"928 1734 OFFCURVE",
"815 1532 OFFCURVE",
"779 1267 CURVE SMOOTH",
"748 1061 LINE",
"517 1061 LINE",
"503 870 LINE",
"715 870 LINE",
"645 508 OFFCURVE",
"592 128 OFFCURVE",
"506 -217 CURVE SMOOTH",
"476 -341 OFFCURVE",
"425 -491 OFFCURVE",
"273 -491 CURVE SMOOTH",
"239 -491 OFFCURVE",
"203 -485 OFFCURVE",
"166 -470 CURVE",
"150 -658 LINE",
"201 -673 OFFCURVE",
"249 -680 OFFCURVE",
"291 -680 CURVE SMOOTH",
"375 -680 OFFCURVE",
"446 -663 OFFCURVE",
"501 -629 CURVE SMOOTH",
"674 -524 OFFCURVE",
"731 -297 OFFCURVE",
"777 -63 CURVE SMOOTH",
"950 870 LINE",
"1241 870 LINE",
"1254 1061 LINE",
"981 1061 LINE",
"1030 1329 LINE SMOOTH",
"1055 1461 OFFCURVE",
"1109 1540 OFFCURVE",
"1267 1540 CURVE SMOOTH",
"1321 1540 OFFCURVE",
"1370 1528 OFFCURVE",
"1415 1510 CURVE",
"1426 1708 LINE",
"1366 1723 OFFCURVE",
"1299 1734 OFFCURVE",
"1231 1734 CURVE SMOOTH"
);
}
);
width = 2437;
}
);
unicode = 0192;
},
{
glyphname = approxequal;
lastChange = "2013-01-27 18:07:42 -0800";
layers = (
{
layerId = "E08CDE4C-5D6C-43D8-8149-5F9E51F0B944";
name = "Bold Condensed";
paths = (
{
closed = 1;
nodes = (
"1532 810 OFFCURVE",
"1474 697 OFFCURVE",
"1338 697 CURVE SMOOTH",
"1298 697 OFFCURVE",
"1256 710 OFFCURVE",
"1210 732 CURVE SMOOTH",
"1163 756 OFFCURVE",
"1114 782 OFFCURVE",
"1062 810 CURVE SMOOTH",
"970 861 OFFCURVE",
"854 924 OFFCURVE",
"721 924 CURVE SMOOTH",
"490 924 OFFCURVE",
"362 770 OFFCURVE",
"314 573 CURVE",
"470 535 LINE",
"505 655 OFFCURVE",
"570 760 OFFCURVE",
"717 760 CURVE SMOOTH",
"755 760 OFFCURVE",
"794 752 OFFCURVE",
"836 734 CURVE SMOOTH",
"906 704 OFFCURVE",
"1001 646 OFFCURVE",
"1069 611 CURVE SMOOTH",
"1144 573 OFFCURVE",
"1222 536 OFFCURVE",
"1330 536 CURVE SMOOTH",
"1567 536 OFFCURVE",
"1679 690 OFFCURVE",
"1724 886 CURVE",
"1574 924 LINE"
);
},
{
closed = 1;
nodes = (
"1530 1314 OFFCURVE",
"1473 1205 OFFCURVE",
"1335 1205 CURVE SMOOTH",
"1298 1205 OFFCURVE",
"1259 1214 OFFCURVE",
"1215 1232 CURVE SMOOTH",
"1068 1292 OFFCURVE",
"919 1430 OFFCURVE",
"718 1430 CURVE SMOOTH",
"484 1430 OFFCURVE",
"356 1282 OFFCURVE",
"311 1081 CURVE",
"468 1044 LINE",
"504 1163 OFFCURVE",
"568 1269 OFFCURVE",
"712 1269 CURVE SMOOTH",
"751 1269 OFFCURVE",
"790 1261 OFFCURVE",
"830 1243 CURVE SMOOTH",
"901 1212 OFFCURVE",
"995 1154 OFFCURVE",
"1065 1119 CURVE SMOOTH",
"1143 1080 OFFCURVE",
"1218 1044 OFFCURVE",
"1327 1044 CURVE SMOOTH",
"1563 1044 OFFCURVE",
"1680 1196 OFFCURVE",
"1722 1394 CURVE",
"1572 1432 LINE"
);
}
);
width = 2767;
}
);
unicode = 2248;
},
{
glyphname = Delta;
lastChange = "2013-01-27 18:07:42 -0800";
layers = (
{
layerId = "E08CDE4C-5D6C-43D8-8149-5F9E51F0B944";
name = "Bold Condensed";
paths = (
{
closed = 1;
nodes = (
"793 1951 LINE",
"82 109 LINE",
"82 0 LINE",
"1752 0 LINE",
"1752 109 LINE",
"1042 1951 LINE"
);
},
{
closed = 1;
nodes = (
"957 1517 LINE",
"1438 221 LINE",
"395 221 LINE",
"867 1517 LINE",
"911 1663 LINE"
);
}
);
width = 2691;
}
);
unicode = 0394;
},
{
glyphname = guillemotleft;
lastChange = "2013-01-27 18:07:42 -0800";
layers = (
{
layerId = "E08CDE4C-5D6C-43D8-8149-5F9E51F0B944";
name = "Bold Condensed";
paths = (
{
closed = 1;
nodes = (
"879 1365 LINE",
"504 855 LINE",
"871 350 LINE",
"1085 350 LINE",
"736 855 LINE",
"1098 1365 LINE"
);
},
{
closed = 1;
nodes = (
"1383 1365 LINE",
"1009 855 LINE",
"1376 350 LINE",
"1591 350 LINE",
"1241 855 LINE",
"1600 1365 LINE"
);
}
);
width = 2367;
}
);
unicode = 00AB;
},
{
glyphname = guillemotright;
lastChange = "2013-01-27 18:07:42 -0800";
layers = (
{
layerId = "E08CDE4C-5D6C-43D8-8149-5F9E51F0B944";
name = "Bold Condensed";
paths = (
{
closed = 1;
nodes = (
"347 1365 LINE",
"700 857 LINE",
"338 350 LINE",
"557 350 LINE",
"932 857 LINE",
"563 1365 LINE"
);
},
{
closed = 1;
nodes = (
"891 1365 LINE",
"1238 857 LINE",
"881 350 LINE",
"1096 350 LINE",
"1473 857 LINE",
"1104 1365 LINE"
);
}
);
width = 2367;
}
);
unicode = 00BB;
},
{
glyphname = ellipsis;
lastChange = "2013-01-27 18:07:42 -0800";
layers = (
{
layerId = "E08CDE4C-5D6C-43D8-8149-5F9E51F0B944";
name = "Bold Condensed";
paths = (
{
closed = 1;
nodes = (
"1800 264 LINE",
"1800 -23 LINE",
"2097 -23 LINE",
"2097 264 LINE"
);
},
{
closed = 1;
nodes = (
"326 264 LINE",
"326 -23 LINE",
"622 -23 LINE",
"622 264 LINE"
);
},
{
closed = 1;
nodes = (
"1063 264 LINE",
"1063 -23 LINE",
"1359 -23 LINE",
"1359 264 LINE"
);
}
);
width = 3318;
}
);
unicode = 2026;
},
{
glyphname = OE;
lastChange = "2013-01-27 18:07:42 -0800";
layers = (
{
anchors = (
{
name = top;
position = "{1511, -16}";
}
);
layerId = "E08CDE4C-5D6C-43D8-8149-5F9E51F0B944";
name = "Bold Condensed";
paths = (
{
closed = 1;
nodes = (
"1065 2009 OFFCURVE",
"926 1983 OFFCURVE",
"804 1931 CURVE SMOOTH",
"460 1786 OFFCURVE",
"233 1463 OFFCURVE",
"233 980 CURVE SMOOTH",
"233 822 OFFCURVE",
"255 682 OFFCURVE",
"300 555 CURVE SMOOTH",
"427 194 OFFCURVE",
"728 -47 OFFCURVE",
"1210 -47 CURVE SMOOTH",
"1402 -47 OFFCURVE",
"1538 28 OFFCURVE",
"1649 128 CURVE",
"1649 -16 LINE",
"2786 -16 LINE",
"2786 186 LINE",
"1884 186 LINE",
"1884 902 LINE",
"2694 902 LINE",
"2694 1104 LINE",
"1884 1104 LINE",
"1884 1770 LINE",
"2746 1770 LINE",
"2746 1972 LINE",
"1649 1972 LINE",
"1649 1870 LINE",
"1537 1949 OFFCURVE",
"1399 2009 OFFCURVE",
"1220 2009 CURVE SMOOTH"
);
},
{
closed = 1;
nodes = (
"1405 1807 OFFCURVE",
"1541 1743 OFFCURVE",
"1649 1649 CURVE",
"1649 346 LINE",
"1546 238 OFFCURVE",
"1406 155 OFFCURVE",
"1207 155 CURVE SMOOTH",
"1088 155 OFFCURVE",
"983 177 OFFCURVE",
"893 219 CURVE SMOOTH",
"636 339 OFFCURVE",
"484 602 OFFCURVE",
"484 974 CURVE SMOOTH",
"484 1214 OFFCURVE",
"558 1416 OFFCURVE",
"670 1556 CURVE SMOOTH",
"785 1699 OFFCURVE",
"960 1807 OFFCURVE",
"1211 1807 CURVE SMOOTH"
);
}
);
width = 4299;
}
);
unicode = 0152;
},
{
glyphname = oe;
lastChange = "2013-01-27 18:07:42 -0800";
layers = (
{
anchors = (
{
name = top;
position = "{1407, -19}";
}
);
layerId = "E08CDE4C-5D6C-43D8-8149-5F9E51F0B944";
name = "Bold Condensed";
paths = (
{
closed = 1;
nodes = (
"1723 1419 OFFCURVE",
"1558 1296 OFFCURVE",
"1465 1102 CURVE",
"1363 1297 OFFCURVE",
"1196 1419 OFFCURVE",
"909 1419 CURVE SMOOTH",
"795 1419 OFFCURVE",
"693 1400 OFFCURVE",
"603 1360 CURVE SMOOTH",
"359 1254 OFFCURVE",
"188 1020 OFFCURVE",
"188 676 CURVE SMOOTH",
"188 575 OFFCURVE",
"205 480 OFFCURVE",
"236 390 CURVE SMOOTH",
"329 131 OFFCURVE",
"546 -57 OFFCURVE",
"895 -57 CURVE SMOOTH",
"1183 -57 OFFCURVE",
"1375 59 OFFCURVE",
"1458 266 CURVE",
"1540 66 OFFCURVE",
"1719 -57 OFFCURVE",
"1988 -57 CURVE SMOOTH",
"2269 -57 OFFCURVE",
"2461 67 OFFCURVE",
"2569 262 CURVE",
"2449 380 LINE",
"2363 243 OFFCURVE",
"2212 130 OFFCURVE",
"2003 130 CURVE SMOOTH",
"1935 130 OFFCURVE",
"1876 142 OFFCURVE",
"1824 165 CURVE SMOOTH",
"1675 234 OFFCURVE",
"1588 385 OFFCURVE",
"1582 596 CURVE SMOOTH",
"1582 623 LINE",
"2613 626 LINE",
"2613 698 LINE SMOOTH",
"2613 1121 OFFCURVE",
"2419 1419 OFFCURVE",
"1997 1419 CURVE SMOOTH"
);
},
{
closed = 1;
nodes = (
"1218 1233 OFFCURVE",
"1353 998 OFFCURVE",
"1353 679 CURVE SMOOTH",
"1353 373 OFFCURVE",
"1217 130 OFFCURVE",
"909 130 CURVE SMOOTH",
"826 130 OFFCURVE",
"753 145 OFFCURVE",
"693 174 CURVE SMOOTH",
"524 254 OFFCURVE",
"425 428 OFFCURVE",
"425 673 CURVE SMOOTH",
"425 748 OFFCURVE",
"435 819 OFFCURVE",
"456 886 CURVE SMOOTH",
"513 1076 OFFCURVE",
"654 1233 OFFCURVE",
"898 1233 CURVE SMOOTH"
);
},
{
closed = 1;
nodes = (
"2257 1233 OFFCURVE",
"2377 1064 OFFCURVE",
"2377 812 CURVE",
"1582 812 LINE",
"1587 867 OFFCURVE",
"1599 920 OFFCURVE",
"1619 971 CURVE SMOOTH",
"1678 1114 OFFCURVE",
"1806 1233 OFFCURVE",
"2005 1233 CURVE SMOOTH"
);
}
);
width = 4035;
}
);
unicode = 0153;
},
{
glyphname = endash;
lastChange = "2013-01-27 18:07:42 -0800";
layers = (
{
layerId = "E08CDE4C-5D6C-43D8-8149-5F9E51F0B944";
name = "Bold Condensed";
paths = (
{
closed = 1;
nodes = (
"-12 1188 LINE",
"-12 1001 LINE",
"1476 1001 LINE",
"1476 1188 LINE"
);
}
);
width = 2222;
}
);
unicode = 2013;
},
{
glyphname = emdash;
lastChange = "2013-01-27 18:07:42 -0800";
layers = (
{
layerId = "E08CDE4C-5D6C-43D8-8149-5F9E51F0B944";
name = "Bold Condensed";
paths = (
{
closed = 1;
nodes = (
"-6 1188 LINE",
"-6 1001 LINE",
"2947 1001 LINE",
"2947 1188 LINE"
);
}
);
width = 4446;
}
);
unicode = 2014;
},
{
glyphname = quotedblleft;
lastChange = "2013-01-27 18:07:42 -0800";
layers = (
{
layerId = "E08CDE4C-5D6C-43D8-8149-5F9E51F0B944";
name = "Bold Condensed";
paths = (
{
closed = 1;
nodes = (
"1054 2696 LINE",
"843 2095 LINE",
"1093 2095 LINE",
"1235 2696 LINE"
);
},
{
closed = 1;
nodes = (
"577 2696 LINE",
"367 2095 LINE",
"615 2095 LINE",
"758 2696 LINE"
);
}
);
width = 2097;
}
);
unicode = 201C;
},
{
glyphname = quotedblright;
lastChange = "2013-01-27 18:07:42 -0800";
layers = (
{
layerId = "E08CDE4C-5D6C-43D8-8149-5F9E51F0B944";
name = "Bold Condensed";
paths = (
{
closed = 1;
nodes = (
"1015 2696 LINE",
"871 2095 LINE",
"1053 2095 LINE",
"1263 2696 LINE"
);
},
{
closed = 1;
nodes = (
"568 2696 LINE",
"426 2095 LINE",
"607 2095 LINE",
"817 2696 LINE"
);
}
);
width = 2097;
}
);
unicode = 201D;
},
{
glyphname = quoteleft;
lastChange = "2013-01-27 18:07:42 -0800";
layers = (
{
layerId = "E08CDE4C-5D6C-43D8-8149-5F9E51F0B944";
name = "Bold Condensed";
paths = (
{
closed = 1;
nodes = (
"477 2696 LINE",
"266 2095 LINE",
"515 2095 LINE",
"657 2696 LINE"
);
}
);
width = 1133;
}
);
unicode = 2018;
},
{
glyphname = quoteright;
lastChange = "2013-01-27 18:07:42 -0800";
layers = (
{
layerId = "E08CDE4C-5D6C-43D8-8149-5F9E51F0B944";
name = "Bold Condensed";
paths = (
{
closed = 1;
nodes = (
"430 2696 LINE",
"287 2095 LINE",
"467 2095 LINE",
"677 2696 LINE"
);
}
);
width = 1133;
}
);
unicode = 2019;
},
{
glyphname = divide;
lastChange = "2013-01-27 18:07:42 -0800";
layers = (
{
layerId = "E08CDE4C-5D6C-43D8-8149-5F9E51F0B944";
name = "Bold Condensed";
paths = (
{
closed = 1;
nodes = (
"406 866 LINE",
"406 676 LINE",
"1837 676 LINE",
"1837 866 LINE"
);
},
{
closed = 1;
nodes = (
"981 330 LINE",
"981 43 LINE",
"1277 43 LINE",
"1277 330 LINE"
);
},
{
closed = 1;
nodes = (
"981 1493 LINE",
"981 1206 LINE",
"1277 1206 LINE",
"1277 1493 LINE"
);
}
);
width = 2986;
}
);
unicode = 00F7;
},
{
glyphname = lozenge;
lastChange = "2013-01-27 18:07:42 -0800";
layers = (
{
layerId = "E08CDE4C-5D6C-43D8-8149-5F9E51F0B944";
name = "Bold Condensed";
paths = (
{
closed = 1;
nodes = (
"854 1977 LINE",
"229 940 LINE",
"844 -92 LINE",
"988 -92 LINE",
"1619 941 LINE",
"1000 1977 LINE"
);
},
{
closed = 1;
nodes = (
"1085 1493 OFFCURVE",
"1252 1220 OFFCURVE",
"1413 940 CURVE",
"1248 660 OFFCURVE",
"1074 389 OFFCURVE",
"916 103 CURVE",
"759 387 OFFCURVE",
"594 663 OFFCURVE",
"433 943 CURVE",
"598 1221 OFFCURVE",
"772 1490 OFFCURVE",
"930 1777 CURVE"
);
}
);
width = 2556;
}
);
unicode = 25CA;
},
{
glyphname = fraction;
lastChange = "2013-01-27 18:07:42 -0800";
layers = (
{
layerId = "E08CDE4C-5D6C-43D8-8149-5F9E51F0B944";
name = "Bold Condensed";
paths = (
{
closed = 1;
nodes = (
"545 1961 LINE",
"-690 0 LINE",
"-484 0 LINE",
"749 1961 LINE"
);
}
);
width = 754;
}
);
unicode = 2044;
},
{
glyphname = currency;
lastChange = "2013-01-27 18:07:42 -0800";
layers = (
{
layerId = "E08CDE4C-5D6C-43D8-8149-5F9E51F0B944";
name = "Bold Condensed";
paths = (
{
closed = 1;
nodes = (
"568 1571 OFFCURVE",
"311 1326 OFFCURVE",
"311 1036 CURVE SMOOTH",
"311 745 OFFCURVE",
"554 507 OFFCURVE",
"845 507 CURVE SMOOTH",
"1136 507 OFFCURVE",
"1372 732 OFFCURVE",
"1379 1022 CURVE SMOOTH",
"1386 1312 OFFCURVE",
"1150 1557 OFFCURVE",
"859 1564 CURVE SMOOTH"
);
},
{
closed = 1;
nodes = (
"238 450 LINE",
"287 399 LINE",
"542 664 LINE",
"497 719 LINE"
);
},
{
closed = 1;
nodes = (
"217 1587 LINE",
"483 1330 LINE",
"539 1380 LINE",
"270 1640 LINE"
);
},
{
closed = 1;
nodes = (
"1083 1445 OFFCURVE",
"1259 1252 OFFCURVE",
"1254 1022 CURVE SMOOTH",
"1248 791 OFFCURVE",
"1073 612 OFFCURVE",
"842 612 CURVE SMOOTH",
"612 612 OFFCURVE",
"432 800 OFFCURVE",
"432 1032 CURVE SMOOTH",
"432 1262 OFFCURVE",
"622 1456 OFFCURVE",
"853 1450 CURVE SMOOTH"
);
},
{
closed = 1;
nodes = (
"1164 675 LINE",
"1430 420 LINE",
"1480 469 LINE",
"1214 726 LINE"
);
},
{
closed = 1;
nodes = (
"1148 1394 LINE",
"1203 1344 LINE",
"1460 1609 LINE",
"1405 1662 LINE"
);
}
);
width = 2535;
}
);
unicode = 00A4;
},
{
glyphname = guilsinglleft;
lastChange = "2013-01-27 18:07:42 -0800";
layers = (
{
layerId = "E08CDE4C-5D6C-43D8-8149-5F9E51F0B944";
name = "Bold Condensed";
paths = (
{
closed = 1;
nodes = (
"589 1365 LINE",
"215 855 LINE",
"582 350 LINE",
"795 350 LINE",
"447 855 LINE",
"806 1365 LINE"
);
}
);
width = 1315;
}
);
unicode = 2039;
},
{
glyphname = guilsinglright;
lastChange = "2013-01-27 18:07:42 -0800";
layers = (
{
layerId = "E08CDE4C-5D6C-43D8-8149-5F9E51F0B944";
name = "Bold Condensed";
paths = (
{
closed = 1;
nodes = (
"222 1365 LINE",
"569 857 LINE",
"211 350 LINE",
"425 350 LINE",
"804 857 LINE",
"434 1365 LINE"
);
}
);
width = 1315;
}
);
unicode = 203A;
},
{
glyphname = daggerdbl;
lastChange = "2013-01-27 18:07:42 -0800";
layers = (
{
layerId = "E08CDE4C-5D6C-43D8-8149-5F9E51F0B944";
name = "Bold Condensed";
paths = (
{
closed = 1;
nodes = (
"643 2058 LINE",
"679 1600 LINE",
"209 1600 LINE",
"209 1419 LINE",
"670 1419 LINE",
"670 844 LINE",
"201 844 LINE",
"201 671 LINE",
"670 671 LINE",
"640 231 LINE",
"874 231 LINE",
"838 671 LINE",
"1308 671 LINE",
"1308 844 LINE",
"838 844 LINE",
"838 1419 LINE",
"1318 1419 LINE",
"1318 1600 LINE",
"848 1600 LINE",
"876 2058 LINE"
);
}
);
width = 2093;
}
);
unicode = 2021;
},
{
glyphname = periodcentered;
lastChange = "2013-01-27 18:07:42 -0800";
layers = (
{
layerId = "E08CDE4C-5D6C-43D8-8149-5F9E51F0B944";
name = "Bold Condensed";
paths = (
{
closed = 1;
nodes = (
"156 1338 LINE",
"156 1051 LINE",
"452 1051 LINE",
"452 1338 LINE"
);
}
);
width = 909;
}
);
unicode = 00B7;
},
{
glyphname = quotesinglbase;
lastChange = "2013-01-27 18:07:42 -0800";
layers = (
{
layerId = "E08CDE4C-5D6C-43D8-8149-5F9E51F0B944";
name = "Bold Condensed";
paths = (
{
closed = 1;
nodes = (
"401 112 LINE",
"256 -487 LINE",
"437 -487 LINE",
"648 112 LINE"
);
}
);
width = 1133;
}
);
unicode = 201A;
},
{
glyphname = quotedblbase;
lastChange = "2013-01-27 18:07:42 -0800";
layers = (
{
layerId = "E08CDE4C-5D6C-43D8-8149-5F9E51F0B944";
name = "Bold Condensed";
paths = (
{
closed = 1;
nodes = (
"997 112 LINE",
"855 -487 LINE",
"1036 -487 LINE",
"1247 112 LINE"
);
},
{
closed = 1;
nodes = (
"508 112 LINE",
"365 -487 LINE",
"548 -487 LINE",
"756 112 LINE"
);
}
);
width = 2097;
}
);
unicode = 201E;
},
{
glyphname = perthousand;
lastChange = "2013-01-27 18:07:42 -0800";
layers = (
{
layerId = "E08CDE4C-5D6C-43D8-8149-5F9E51F0B944";
name = "Bold Condensed";
paths = (
{
closed = 1;
nodes = (
"1665 1942 LINE",
"385 -47 LINE",
"593 -47 LINE",
"1869 1942 LINE"
);
},
{
closed = 1;
nodes = (
"1837 756 OFFCURVE",
"1917 614 OFFCURVE",
"1917 428 CURVE SMOOTH",
"1917 249 OFFCURVE",
"1833 99 OFFCURVE",
"1654 99 CURVE SMOOTH",
"1470 99 OFFCURVE",
"1388 244 OFFCURVE",
"1388 430 CURVE SMOOTH",
"1388 611 OFFCURVE",
"1471 756 OFFCURVE",
"1653 756 CURVE SMOOTH"
);
},
{
closed = 1;
nodes = (
"1581 912 OFFCURVE",
"1513 899 OFFCURVE",
"1456 874 CURVE SMOOTH",
"1294 806 OFFCURVE",
"1190 656 OFFCURVE",
"1190 430 CURVE SMOOTH",
"1190 133 OFFCURVE",
"1353 -55 OFFCURVE",
"1650 -55 CURVE SMOOTH",
"1724 -55 OFFCURVE",
"1789 -43 OFFCURVE",
"1847 -18 CURVE SMOOTH",
"2008 50 OFFCURVE",
"2113 200 OFFCURVE",
"2113 426 CURVE SMOOTH",
"2113 724 OFFCURVE",
"1955 912 OFFCURVE",
"1655 912 CURVE SMOOTH"
);
},
{
closed = 1;
nodes = (
"539 1957 OFFCURVE",
"473 1945 OFFCURVE",
"416 1920 CURVE SMOOTH",
"255 1854 OFFCURVE",
"150 1702 OFFCURVE",
"150 1477 CURVE SMOOTH",
"150 1180 OFFCURVE",
"312 992 OFFCURVE",
"610 992 CURVE SMOOTH",
"682 992 OFFCURVE",
"748 1003 OFFCURVE",
"805 1028 CURVE SMOOTH",
"965 1094 OFFCURVE",
"1073 1249 OFFCURVE",
"1073 1472 CURVE SMOOTH",
"1073 1773 OFFCURVE",
"913 1957 OFFCURVE",
"613 1957 CURVE SMOOTH"
);
},
{
closed = 1;
nodes = (
"794 1804 OFFCURVE",
"875 1658 OFFCURVE",
"875 1474 CURVE SMOOTH",
"875 1296 OFFCURVE",
"794 1146 OFFCURVE",
"615 1146 CURVE SMOOTH",
"429 1146 OFFCURVE",
"349 1292 OFFCURVE",
"349 1478 CURVE SMOOTH",
"349 1657 OFFCURVE",
"432 1804 OFFCURVE",
"611 1804 CURVE SMOOTH"
);
},
{
closed = 1;
nodes = (
"2657 912 OFFCURVE",
"2589 899 OFFCURVE",
"2532 874 CURVE SMOOTH",
"2370 806 OFFCURVE",
"2266 656 OFFCURVE",
"2266 430 CURVE SMOOTH",
"2266 134 OFFCURVE",
"2429 -55 OFFCURVE",
"2725 -55 CURVE SMOOTH",
"2799 -55 OFFCURVE",
"2864 -43 OFFCURVE",
"2921 -18 CURVE SMOOTH",
"3081 48 OFFCURVE",
"3189 202 OFFCURVE",
"3189 426 CURVE SMOOTH",
"3189 726 OFFCURVE",
"3032 912 OFFCURVE",
"2731 912 CURVE SMOOTH"
);
},
{
closed = 1;
nodes = (
"2912 756 OFFCURVE",
"2993 611 OFFCURVE",
"2993 428 CURVE SMOOTH",
"2993 248 OFFCURVE",
"2911 99 OFFCURVE",
"2730 99 CURVE SMOOTH",
"2546 99 OFFCURVE",
"2464 244 OFFCURVE",
"2464 430 CURVE SMOOTH",
"2464 611 OFFCURVE",
"2547 756 OFFCURVE",
"2729 756 CURVE SMOOTH"
);
}
);
width = 4887;
}
);
unicode = 2030;
},
{
glyphname = dotlessi;
lastChange = "2013-01-27 18:07:42 -0800";
layers = (
{
anchors = (
{
name = ogonek;
position = "{690, 10}";
},
{
name = top;
position = "{416, 1397}";
}
);
layerId = "E08CDE4C-5D6C-43D8-8149-5F9E51F0B944";
name = "Bold Condensed";
paths = (
{
closed = 1;
nodes = (
"215 1397 LINE",
"215 376 LINE SMOOTH",
"215 133 OFFCURVE",
"387 -10 OFFCURVE",
"678 -10 CURVE SMOOTH",
"745 -10 OFFCURVE",
"830 7 OFFCURVE",
"904 37 CURVE",
"877 283 LINE",
"824 263 OFFCURVE",
"768 251 OFFCURVE",
"728 251 CURVE SMOOTH",
"626 251 OFFCURVE",
"564 335 OFFCURVE",
"564 477 CURVE SMOOTH",
"564 1397 LINE"
);
}
);
width = 1235;
}
);
unicode = 0131;
},
{
glyphname = circumflex;
lastChange = "2013-01-27 18:07:42 -0800";
layers = (
{
anchors = (
{
name = _top;
position = "{477, 2199}";
}
);
layerId = "E08CDE4C-5D6C-43D8-8149-5F9E51F0B944";
name = "Bold Condensed";
paths = (
{
closed = 1;
nodes = (
"370 2839 LINE",
"31 2396 LINE",
"285 2396 LINE",
"477 2611 LINE",
"662 2396 LINE",
"924 2396 LINE",
"584 2839 LINE"
);
}
);
width = 1432;
}
);
unicode = 02C6;
},
{
glyphname = tilde;
lastChange = "2013-01-27 18:07:42 -0800";
layers = (
{
anchors = (
{
name = _top;
position = "{468, 2222}";
}
);
layerId = "E08CDE4C-5D6C-43D8-8149-5F9E51F0B944";
name = "Bold Condensed";
paths = (
{
closed = 1;
nodes = (
"760 2781 LINE",
"751 2711 OFFCURVE",
"714 2658 OFFCURVE",
"642 2658 CURVE SMOOTH",
"616 2658 OFFCURVE",
"588 2663 OFFCURVE",
"561 2673 CURVE SMOOTH",
"482 2701 OFFCURVE",
"404 2751 OFFCURVE",
"300 2751 CURVE SMOOTH",
"131 2751 OFFCURVE",
"42 2622 OFFCURVE",
"29 2464 CURVE",
"172 2464 LINE",
"182 2541 OFFCURVE",
"222 2580 OFFCURVE",
"296 2580 CURVE SMOOTH",
"426 2580 OFFCURVE",
"511 2487 OFFCURVE",
"642 2487 CURVE SMOOTH",
"811 2487 OFFCURVE",
"890 2626 OFFCURVE",
"908 2781 CURVE"
);
}
);
width = 1358;
}
);
unicode = 02DC;
},
{
glyphname = macron;
lastChange = "2013-01-27 18:07:42 -0800";
layers = (
{
anchors = (
{
name = _top;
position = "{553, 2208}";
}
);
layerId = "E08CDE4C-5D6C-43D8-8149-5F9E51F0B944";
name = "Bold Condensed";
paths = (
{
closed = 1;
nodes = (
"162 2606 LINE",
"162 2423 LINE",
"943 2423 LINE",
"943 2606 LINE"
);
}
);
width = 1491;
}
);
unicode = 00AF;
},
{
glyphname = breve;
lastChange = "2013-01-27 18:07:42 -0800";
layers = (
{
anchors = (
{
name = _top;
position = "{451, 2232}";
}
);
layerId = "E08CDE4C-5D6C-43D8-8149-5F9E51F0B944";
name = "Bold Condensed";
paths = (
{
closed = 1;
nodes = (
"718 2817 LINE",
"691 2702 OFFCURVE",
"583 2641 OFFCURVE",
"444 2641 CURVE SMOOTH",
"305 2641 OFFCURVE",
"205 2697 OFFCURVE",
"185 2817 CURVE",
"66 2817 LINE",
"83 2598 OFFCURVE",
"220 2494 OFFCURVE",
"453 2494 CURVE SMOOTH",
"680 2494 OFFCURVE",
"818 2606 OFFCURVE",
"836 2817 CURVE"
);
}
);
width = 1288;
}
);
unicode = 02D8;
},
{
glyphname = dotaccent;
lastChange = "2013-01-27 18:07:42 -0800";
layers = (
{
anchors = (
{
name = _top;
position = "{486, 2251}";
}
);
layerId = "E08CDE4C-5D6C-43D8-8149-5F9E51F0B944";
name = "Bold Condensed";
paths = (
{
closed = 1;
nodes = (
"377 2775 LINE",
"377 2552 LINE",
"596 2552 LINE",
"596 2775 LINE"
);
}
);
width = 1073;
}
);
unicode = 02D9;
},
{
glyphname = ring;
lastChange = "2013-01-27 18:07:42 -0800";
layers = (
{
anchors = (
{
name = _top;
position = "{471, 2185}";
}
);
layerId = "E08CDE4C-5D6C-43D8-8149-5F9E51F0B944";
name = "Bold Condensed";
paths = (
{
closed = 1;
nodes = (
"348 2873 OFFCURVE",
"184 2794 OFFCURVE",
"184 2612 CURVE SMOOTH",
"184 2486 OFFCURVE",
"285 2353 OFFCURVE",
"472 2353 CURVE SMOOTH",
"590 2353 OFFCURVE",
"757 2435 OFFCURVE",
"757 2614 CURVE SMOOTH",
"757 2740 OFFCURVE",
"655 2873 OFFCURVE",
"471 2873 CURVE SMOOTH"
);
},
{
closed = 1;
nodes = (
"554 2757 OFFCURVE",
"621 2698 OFFCURVE",
"621 2614 CURVE SMOOTH",
"621 2532 OFFCURVE",
"551 2470 OFFCURVE",
"469 2470 CURVE SMOOTH",
"381 2470 OFFCURVE",
"319 2526 OFFCURVE",
"319 2614 CURVE SMOOTH",
"319 2696 OFFCURVE",
"387 2757 OFFCURVE",
"469 2757 CURVE SMOOTH"
);
}
);
width = 1239;
}
);
unicode = 02DA;
},
{
glyphname = cedilla;
lastChange = "2013-01-27 18:07:42 -0800";
layers = (
{
anchors = (
{
name = _bottom;
position = "{348, -270}";
}
);
layerId = "E08CDE4C-5D6C-43D8-8149-5F9E51F0B944";
name = "Bold Condensed";
paths = (
{
closed = 1;
nodes = (
"281 -247 LINE",
"236 -506 LINE",
"280 -504 LINE SMOOTH",
"295 -502 OFFCURVE",
"318 -500 OFFCURVE",
"330 -500 CURVE SMOOTH",
"412 -500 OFFCURVE",
"479 -519 OFFCURVE",
"479 -600 CURVE SMOOTH",
"479 -676 OFFCURVE",
"413 -698 OFFCURVE",
"323 -698 CURVE SMOOTH",
"250 -698 OFFCURVE",
"185 -681 OFFCURVE",
"117 -665 CURVE",
"106 -781 LINE",
"180 -796 OFFCURVE",
"263 -811 OFFCURVE",
"345 -811 CURVE SMOOTH",
"511 -811 OFFCURVE",
"674 -760 OFFCURVE",
"674 -596 CURVE SMOOTH",
"674 -449 OFFCURVE",
"543 -400 OFFCURVE",
"401 -393 CURVE",
"389 -393 LINE",
"413 -247 LINE"
);
}
);
width = 1083;
}
);
unicode = 00B8;
},
{
glyphname = hungarumlaut;
lastChange = "2013-01-27 18:07:42 -0800";
layers = (
{
anchors = (
{
name = _top;
position = "{785, 2202}";
}
);
layerId = "E08CDE4C-5D6C-43D8-8149-5F9E51F0B944";
name = "Bold Condensed";
paths = (
{
closed = 1;
nodes = (
"997 2831 LINE",
"697 2404 LINE",
"860 2404 LINE",
"1237 2831 LINE"
);
},
{
closed = 1;
nodes = (
"628 2831 LINE",
"332 2404 LINE",
"493 2404 LINE",
"869 2831 LINE"
);
}
);
width = 1982;
}
);
unicode = 02DD;
},
{
glyphname = ogonek;
lastChange = "2013-01-27 18:07:42 -0800";
layers = (
{
anchors = (
{
name = _ogonek;
position = "{460, -266}";
}
);
layerId = "E08CDE4C-5D6C-43D8-8149-5F9E51F0B944";
name = "Bold Condensed";
paths = (
{
closed = 1;
nodes = (
"318 -286 OFFCURVE",
"244 -333 OFFCURVE",
"190 -388 CURVE SMOOTH",
"145 -433 OFFCURVE",
"98 -494 OFFCURVE",
"98 -574 CURVE SMOOTH",
"98 -610 OFFCURVE",
"107 -643 OFFCURVE",
"121 -670 CURVE SMOOTH",
"168 -754 OFFCURVE",
"267 -799 OFFCURVE",
"396 -799 CURVE SMOOTH",
"483 -799 OFFCURVE",
"575 -785 OFFCURVE",
"637 -759 CURVE",
"637 -608 LINE",
"575 -632 OFFCURVE",
"515 -650 OFFCURVE",
"427 -650 CURVE SMOOTH",
"357 -650 OFFCURVE",
"291 -608 OFFCURVE",
"291 -538 CURVE SMOOTH",
"291 -516 OFFCURVE",
"297 -494 OFFCURVE",
"311 -472 CURVE SMOOTH",
"369 -384 OFFCURVE",
"474 -324 OFFCURVE",
"568 -266 CURVE",
"392 -250 LINE"
);
}
);
width = 1040;
}
);
unicode = 02DB;
},
{
glyphname = caron;
lastChange = "2013-01-27 18:07:42 -0800";
layers = (
{
anchors = (
{
name = _top;
position = "{492, 2199}";
}
);
layerId = "E08CDE4C-5D6C-43D8-8149-5F9E51F0B944";
name = "Bold Condensed";
paths = (
{
closed = 1;
nodes = (
"713 2837 LINE",
"484 2543 LINE",
"260 2837 LINE",
"59 2837 LINE",
"386 2396 LINE",
"598 2396 LINE",
"924 2837 LINE"
);
}
);
width = 1432;
}
);
unicode = 02C7;
},
{
glyphname = kgreenlandic;
lastChange = "2013-01-27 18:07:42 -0800";
layers = (
{
layerId = "E08CDE4C-5D6C-43D8-8149-5F9E51F0B944";
name = "Bold Condensed";
paths = (
{
closed = 1;
nodes = (
"1226 1401 LINE",
"590 761 LINE",
"590 1401 LINE",
"365 1401 LINE",
"365 0 LINE",
"590 0 LINE",
"590 643 LINE",
"1286 0 LINE",
"1585 0 LINE",
"1324 237 OFFCURVE",
"1070 461 OFFCURVE",
"810 699 CURVE",
"1534 1401 LINE"
);
}
);
width = 2216;
}
);
unicode = 0138;
},
{
glyphname = uni0237;
lastChange = "2013-01-27 18:07:42 -0800";
layers = (
{
anchors = (
{
name = top;
position = "{274, -293}";
}
);
layerId = "E08CDE4C-5D6C-43D8-8149-5F9E51F0B944";
name = "Bold Condensed";
paths = (
{
closed = 1;
nodes = (
"169 1108 LINE",
"169 -251 LINE SMOOTH",
"169 -492 OFFCURVE",
"119 -680 OFFCURVE",
"-94 -680 CURVE SMOOTH",
"-135 -680 OFFCURVE",
"-168 -672 OFFCURVE",
"-209 -666 CURVE",
"-208 -861 LINE",
"-156 -873 OFFCURVE",
"-101 -879 OFFCURVE",
"-41 -879 CURVE SMOOTH",
"22 -879 OFFCURVE",
"75 -869 OFFCURVE",
"122 -849 CURVE SMOOTH",
"334 -756 OFFCURVE",
"394 -498 OFFCURVE",
"394 -193 CURVE SMOOTH",
"394 1108 LINE"
);
}
);
width = 1030;
}
);
unicode = 0237;
},
{
glyphname = u.alt;
lastChange = "2013-01-27 18:07:42 -0800";
layers = (
{
anchors = (
{
name = ogonek;
position = "{1574, -3}";
},
{
name = top;
position = "{912, -16}";
}
);
layerId = "E08CDE4C-5D6C-43D8-8149-5F9E51F0B944";
name = "Bold Condensed";
paths = (
{
closed = 1;
nodes = (
"1252 1384 LINE",
"1252 554 LINE SMOOTH",
"1252 287 OFFCURVE",
"1037 145 OFFCURVE",
"840 145 CURVE SMOOTH",
"675 145 OFFCURVE",
"525 234 OFFCURVE",
"525 501 CURVE SMOOTH",
"525 796 LINE SMOOTH",
"525 1228 OFFCURVE",
"471 1384 OFFCURVE",
"471 1384 CURVE",
"246 1384 LINE",
"246 1384 OFFCURVE",
"299 1173 OFFCURVE",
"299 778 CURVE SMOOTH",
"299 501 LINE SMOOTH",
"299 112 OFFCURVE",
"541 -49 OFFCURVE",
"805 -49 CURVE SMOOTH",
"1021 -49 OFFCURVE",
"1184 36 OFFCURVE",
"1296 195 CURVE",
"1333 44 OFFCURVE",
"1467 -22 OFFCURVE",
"1599 -22 CURVE",
"1647 174 LINE",
"1576 174 OFFCURVE",
"1477 216 OFFCURVE",
"1477 374 CURVE SMOOTH",
"1477 1384 LINE"
);
}
);
width = 2488;
}
);
},
{
glyphname = e.alt;
lastChange = "2013-01-27 18:07:42 -0800";
layers = (
{
anchors = (
{
name = bottom;
position = "{798, -13}";
},
{
name = ogonek;
position = "{1383, 0}";
},
{
name = top;
position = "{798, -13}";
}
);
layerId = "E08CDE4C-5D6C-43D8-8149-5F9E51F0B944";
name = "Bold Condensed";
paths = (
{
closed = 1;
nodes = (
"432 1429 OFFCURVE",
"193 1086 OFFCURVE",
"193 692 CURVE SMOOTH",
"193 227 OFFCURVE",
"508 -39 OFFCURVE",
"868 -39 CURVE SMOOTH",
"1099 -39 OFFCURVE",
"1286 50 OFFCURVE",
"1448 219 CURVE",
"1334 364 LINE",
"1233 242 OFFCURVE",
"1068 155 OFFCURVE",
"878 155 CURVE SMOOTH",
"695 155 OFFCURVE",
"520 249 OFFCURVE",
"459 494 CURVE",
"958 567 OFFCURVE",
"1356 678 OFFCURVE",
"1356 1012 CURVE SMOOTH",
"1356 1240 OFFCURVE",
"1168 1429 OFFCURVE",
"872 1429 CURVE SMOOTH"
);
},
{
closed = 1;
nodes = (
"1039 1234 OFFCURVE",
"1134 1142 OFFCURVE",
"1134 1018 CURVE SMOOTH",
"1134 798 OFFCURVE",
"833 716 OFFCURVE",
"442 656 CURVE",
"440 679 OFFCURVE",
"438 701 OFFCURVE",
"438 723 CURVE SMOOTH",
"438 990 OFFCURVE",
"600 1234 OFFCURVE",
"874 1234 CURVE SMOOTH"
);
}
);
width = 2198;
}
);
},
{
glyphname = Euro;
lastChange = "2013-01-27 18:07:42 -0800";
layers = (
{
layerId = "E08CDE4C-5D6C-43D8-8149-5F9E51F0B944";
name = "Bold Condensed";
paths = (
{
closed = 1;
nodes = (
"1013 1963 OFFCURVE",
"914 1945 OFFCURVE",
"828 1910 CURVE SMOOTH",
"565 1802 OFFCURVE",
"406 1560 OFFCURVE",
"349 1244 CURVE",
"184 1244 LINE",
"154 1056 LINE",
"323 1056 LINE",
"322 1025 OFFCURVE",
"320 998 OFFCURVE",
"320 968 CURVE SMOOTH",
"320 933 OFFCURVE",
"322 903 OFFCURVE",
"325 878 CURVE",
"185 878 LINE",
"158 690 LINE",
"342 690 LINE",
"394 271 OFFCURVE",
"607 -43 OFFCURVE",
"1077 -43 CURVE SMOOTH",
"1267 -43 OFFCURVE",
"1409 5 OFFCURVE",
"1530 88 CURVE",
"1531 331 LINE",
"1410 237 OFFCURVE",
"1280 156 OFFCURVE",
"1099 156 CURVE SMOOTH",
"761 156 OFFCURVE",
"627 391 OFFCURVE",
"587 690 CURVE",
"1327 690 LINE",
"1353 878 LINE",
"567 878 LINE",
"565 944 LINE SMOOTH",
"563 969 OFFCURVE",
"562 999 OFFCURVE",
"563 1025 CURVE",
"563 1041 LINE SMOOTH",
"563 1046 OFFCURVE",
"565 1052 OFFCURVE",
"566 1056 CURVE",
"1371 1056 LINE",
"1399 1244 LINE",
"591 1244 LINE",
"648 1510 OFFCURVE",
"790 1765 OFFCURVE",
"1111 1765 CURVE SMOOTH",
"1299 1765 OFFCURVE",
"1429 1668 OFFCURVE",
"1512 1544 CURVE",
"1561 1802 LINE",
"1455 1902 OFFCURVE",
"1319 1963 OFFCURVE",
"1121 1963 CURVE SMOOTH"
);
}
);
width = 2437;
}
);
unicode = 20AC;
},
{
glyphname = n.alt;
lastChange = "2013-01-27 18:07:42 -0800";
layers = (
{
anchors = (
{
name = bottom;
position = "{968, -16}";
},
{
name = top;
position = "{968, -16}";
}
);
layerId = "E08CDE4C-5D6C-43D8-8149-5F9E51F0B944";
name = "Bold Condensed";
paths = (
{
closed = 1;
nodes = (
"786 1418 OFFCURVE",
"673 1332 OFFCURVE",
"573 1190 CURVE",
"543 1384 LINE",
"315 1384 LINE",
"324 1318 OFFCURVE",
"351 1054 OFFCURVE",
"351 938 CURVE SMOOTH",
"351 -16 LINE",
"576 -16 LINE",
"576 874 LINE SMOOTH",
"576 1074 OFFCURVE",
"767 1228 OFFCURVE",
"978 1228 CURVE SMOOTH",
"1266 1228 OFFCURVE",
"1310 1062 OFFCURVE",
"1310 782 CURVE SMOOTH",
"1310 764 LINE",
"1308 346 LINE",
"1308 322 LINE SMOOTH",
"1308 68 OFFCURVE",
"1345 -19 OFFCURVE",
"1602 -49 CURVE",
"1650 123 LINE",
"1548 144 OFFCURVE",
"1533 178 OFFCURVE",
"1533 332 CURVE SMOOTH",
"1533 352 LINE",
"1536 758 LINE",
"1536 772 LINE SMOOTH",
"1536 1168 OFFCURVE",
"1416 1418 OFFCURVE",
"1016 1418 CURVE SMOOTH"
);
}
);
width = 2587;
}
);
},
{
glyphname = uni00B9;
lastChange = "2013-01-27 18:07:42 -0800";
layers = (
{
layerId = "E08CDE4C-5D6C-43D8-8149-5F9E51F0B944";
name = "Bold Condensed";
paths = (
{
closed = 1;
nodes = (
"720 2340 LINE",
"649 2298 OFFCURVE",
"582 2261 OFFCURVE",
"491 2232 CURVE",
"489 2055 LINE",
"558 2081 OFFCURVE",
"637 2116 OFFCURVE",
"697 2148 CURVE",
"697 2007 LINE SMOOTH",
"697 1936 OFFCURVE",
"698 1869 OFFCURVE",
"698 1788 CURVE SMOOTH",
"698 1400 LINE",
"532 1400 LINE",
"532 1237 LINE",
"1030 1237 LINE",
"1030 1396 LINE",
"864 1396 LINE",
"864 2360 LINE"
);
}
);
width = 2437;
}
);
unicode = 00B9;
},
{
glyphname = J.alt;
lastChange = "2013-01-27 18:07:42 -0800";
layers = (
{
anchors = (
{
name = top;
position = "{690, -16}";
}
);
layerId = "E08CDE4C-5D6C-43D8-8149-5F9E51F0B944";
name = "Bold Condensed";
paths = (
{
closed = 1;
nodes = (
"844 1972 LINE",
"844 650 LINE SMOOTH",
"844 388 OFFCURVE",
"754 155 OFFCURVE",
"494 155 CURVE SMOOTH",
"372 155 OFFCURVE",
"288 197 OFFCURVE",
"215 253 CURVE",
"145 95 LINE",
"227 13 OFFCURVE",
"332 -47 OFFCURVE",
"486 -47 CURVE SMOOTH",
"578 -47 OFFCURVE",
"660 -32 OFFCURVE",
"734 0 CURVE SMOOTH",
"964 96 OFFCURVE",
"1079 334 OFFCURVE",
"1079 666 CURVE SMOOTH",
"1079 1972 LINE"
);
}
);
width = 1923;
}
);
},
{
glyphname = a.alt;
lastChange = "2013-01-27 18:07:42 -0800";
layers = (
{
anchors = (
{
name = ogonek;
position = "{1558, -2}";
},
{
name = top;
position = "{893, -16}";
}
);
layerId = "E08CDE4C-5D6C-43D8-8149-5F9E51F0B944";
name = "Bold Condensed";
paths = (
{
closed = 1;
nodes = (
"448 1420 OFFCURVE",
"180 1137 OFFCURVE",
"180 659 CURVE SMOOTH",
"180 246 OFFCURVE",
"443 -47 OFFCURVE",
"815 -47 CURVE SMOOTH",
"981 -47 OFFCURVE",
"1196 2 OFFCURVE",
"1323 211 CURVE",
"1360 47 OFFCURVE",
"1521 -21 OFFCURVE",
"1640 -21 CURVE",
"1686 174 LINE",
"1615 174 OFFCURVE",
"1515 216 OFFCURVE",
"1515 375 CURVE SMOOTH",
"1515 693 LINE SMOOTH",
"1515 1252 OFFCURVE",
"1239 1420 OFFCURVE",
"898 1420 CURVE SMOOTH"
);
},
{
closed = 1;
nodes = (
"1149 1231 OFFCURVE",
"1291 1096 OFFCURVE",
"1291 700 CURVE SMOOTH",
"1291 356 OFFCURVE",
"1191 144 OFFCURVE",
"841 144 CURVE SMOOTH",
"589 144 OFFCURVE",
"408 364 OFFCURVE",
"408 672 CURVE SMOOTH",
"408 1024 OFFCURVE",
"593 1231 OFFCURVE",
"903 1231 CURVE SMOOTH"
);
}
);
width = 2497;
}
);
},
{
glyphname = uni03A9;
lastChange = "2013-01-27 18:07:42 -0800";
layers = (
{
anchors = (
{
name = topleft;
position = "{91, 0}";
}
);
layerId = "E08CDE4C-5D6C-43D8-8149-5F9E51F0B944";
name = "Bold Condensed";
paths = (
{
closed = 1;
nodes = (
"877 1979 OFFCURVE",
"645 1876 OFFCURVE",
"489 1729 CURVE SMOOTH",
"331 1580 OFFCURVE",
"219 1357 OFFCURVE",
"219 1059 CURVE SMOOTH",
"219 965 OFFCURVE",
"230 874 OFFCURVE",
"252 789 CURVE SMOOTH",
"317 525 OFFCURVE",
"466 328 OFFCURVE",
"657 187 CURVE",
"190 189 LINE",
"205 0 LINE",
"944 0 LINE",
"940 165 LINE",
"869 211 OFFCURVE",
"805 266 OFFCURVE",
"746 328 CURVE SMOOTH",
"591 493 OFFCURVE",
"463 725 OFFCURVE",
"463 1036 CURVE SMOOTH",
"463 1147 OFFCURVE",
"480 1248 OFFCURVE",
"514 1341 CURVE SMOOTH",
"608 1595 OFFCURVE",
"821 1787 OFFCURVE",
"1161 1787 CURVE SMOOTH",
"1275 1787 OFFCURVE",
"1374 1767 OFFCURVE",
"1459 1726 CURVE SMOOTH",
"1693 1613 OFFCURVE",
"1843 1371 OFFCURVE",
"1843 1029 CURVE SMOOTH",
"1843 938 OFFCURVE",
"1830 849 OFFCURVE",
"1805 765 CURVE SMOOTH",
"1731 501 OFFCURVE",
"1564 302 OFFCURVE",
"1359 165 CURVE",
"1365 0 LINE",
"2076 0 LINE",
"2088 189 LINE",
"1640 187 LINE",
"1759 281 OFFCURVE",
"1870 404 OFFCURVE",
"1949 543 CURVE SMOOTH",
"2025 680 OFFCURVE",
"2085 848 OFFCURVE",
"2085 1054 CURVE SMOOTH",
"2085 1338 OFFCURVE",
"1983 1561 OFFCURVE",
"1838 1712 CURVE SMOOTH",
"1689 1868 OFFCURVE",
"1464 1979 OFFCURVE",
"1168 1979 CURVE SMOOTH"
);
}
);
width = 3283;
}
);
unicode = 03A9;
},
{
glyphname = s.alt;
lastChange = "2013-01-27 18:07:42 -0800";
layers = (
{
anchors = (
{
name = bottom;
position = "{762, -18}";
},
{
name = top;
position = "{762, -18}";
}
);
layerId = "E08CDE4C-5D6C-43D8-8149-5F9E51F0B944";
name = "Bold Condensed";
paths = (
{
closed = 1;
nodes = (
"479 1424 OFFCURVE",
"233 1302 OFFCURVE",
"233 1035 CURVE SMOOTH",
"233 760 OFFCURVE",
"464 682 OFFCURVE",
"690 614 CURVE SMOOTH",
"836 571 OFFCURVE",
"1086 534 OFFCURVE",
"1086 354 CURVE SMOOTH",
"1086 187 OFFCURVE",
"957 135 OFFCURVE",
"800 135 CURVE SMOOTH",
"618 135 OFFCURVE",
"400 214 OFFCURVE",
"298 292 CURVE",
"233 105 LINE",
"378 16 OFFCURVE",
"618 -53 OFFCURVE",
"831 -53 CURVE SMOOTH",
"1086 -53 OFFCURVE",
"1309 53 OFFCURVE",
"1309 370 CURVE SMOOTH",
"1309 654 OFFCURVE",
"1047 729 OFFCURVE",
"828 796 CURVE SMOOTH",
"699 836 OFFCURVE",
"467 874 OFFCURVE",
"467 1039 CURVE SMOOTH",
"467 1185 OFFCURVE",
"599 1234 OFFCURVE",
"751 1234 CURVE SMOOTH",
"905 1234 OFFCURVE",
"1077 1184 OFFCURVE",
"1152 1135 CURVE",
"1216 1301 LINE",
"1082 1382 OFFCURVE",
"913 1424 OFFCURVE",
"752 1424 CURVE SMOOTH"
);
}
);
width = 2050;
}
);
},
{
glyphname = uni03BC;
lastChange = "2013-01-27 18:07:42 -0800";
layers = (
{
layerId = "E08CDE4C-5D6C-43D8-8149-5F9E51F0B944";
name = "Bold Condensed";
paths = (
{
closed = 1;
nodes = (
"1306 1263 LINE",
"1306 457 LINE SMOOTH",
"1306 397 OFFCURVE",
"1297 340 OFFCURVE",
"1279 285 CURVE SMOOTH",
"1227 129 OFFCURVE",
"1103 11 OFFCURVE",
"897 11 CURVE SMOOTH",
"648 11 OFFCURVE",
"547 154 OFFCURVE",
"547 407 CURVE SMOOTH",
"547 1263 LINE",
"322 1263 LINE",
"322 -414 LINE",
"547 -414 LINE",
"547 -96 LINE",
"625 -142 OFFCURVE",
"721 -169 OFFCURVE",
"845 -169 CURVE SMOOTH",
"1047 -169 OFFCURVE",
"1201 -97 OFFCURVE",
"1306 46 CURVE",
"1310 -138 LINE",
"1542 -138 LINE",
"1533 -23 OFFCURVE",
"1531 75 OFFCURVE",
"1531 198 CURVE SMOOTH",
"1531 1263 LINE"
);
}
);
width = 2492;
}
);
unicode = 03BC;
},
{
glyphname = hbar;
lastChange = "2013-01-27 18:07:42 -0800";
layers = (
{
layerId = "E08CDE4C-5D6C-43D8-8149-5F9E51F0B944";
name = "Bold Condensed";
paths = (
{
closed = 1;
nodes = (
"808 1414 OFFCURVE",
"628 1326 OFFCURVE",
"534 1168 CURVE",
"535 757 LINE",
"535 1037 OFFCURVE",
"759 1223 OFFCURVE",
"961 1223 CURVE SMOOTH",
"1249 1223 OFFCURVE",
"1289 1030 OFFCURVE",
"1289 750 CURVE SMOOTH",
"1286 464 LINE",
"1286 456 LINE SMOOTH",
"1286 124 OFFCURVE",
"1392 -47 OFFCURVE",
"1662 -51 CURVE",
"1697 128 LINE",
"1555 156 OFFCURVE",
"1510 268 OFFCURVE",
"1511 470 CURVE SMOOTH",
"1514 754 LINE SMOOTH",
"1518 1152 OFFCURVE",
"1386 1414 OFFCURVE",
"1013 1414 CURVE SMOOTH"
);
},
{
closed = 1;
nodes = (
"311 2039 LINE",
"311 -17 LINE",
"535 -17 LINE",
"535 2066 LINE"
);
},
{
closed = 1;
nodes = (
"556 2383 LINE",
"556 2200 LINE",
"1336 2200 LINE",
"1336 2383 LINE"
);
}
);
width = 2507;
}
);
unicode = 0127;
},
{
glyphname = uni00B3;
lastChange = "2013-01-27 18:07:42 -0800";
layers = (
{
layerId = "E08CDE4C-5D6C-43D8-8149-5F9E51F0B944";
name = "Bold Condensed";
paths = (
{
closed = 1;
nodes = (
"683 2367 OFFCURVE",
"556 2303 OFFCURVE",
"481 2229 CURVE",
"560 2099 LINE",
"627 2153 OFFCURVE",
"710 2205 OFFCURVE",
"822 2205 CURVE SMOOTH",
"933 2205 OFFCURVE",
"1015 2163 OFFCURVE",
"1015 2052 CURVE SMOOTH",
"1015 1915 OFFCURVE",
"884 1887 OFFCURVE",
"746 1887 CURVE SMOOTH",
"679 1887 LINE",
"679 1725 LINE",
"714 1725 LINE SMOOTH",
"727 1725 OFFCURVE",
"746 1726 OFFCURVE",
"756 1726 CURVE SMOOTH",
"910 1726 OFFCURVE",
"1049 1695 OFFCURVE",
"1049 1543 CURVE SMOOTH",
"1049 1417 OFFCURVE",
"938 1357 OFFCURVE",
"810 1357 CURVE SMOOTH",
"722 1357 OFFCURVE",
"640 1393 OFFCURVE",
"563 1463 CURVE",
"481 1333 LINE",
"559 1255 OFFCURVE",
"671 1200 OFFCURVE",
"817 1200 CURVE SMOOTH",
"872 1200 OFFCURVE",
"925 1208 OFFCURVE",
"974 1223 CURVE SMOOTH",
"1108 1265 OFFCURVE",
"1225 1367 OFFCURVE",
"1225 1539 CURVE SMOOTH",
"1225 1679 OFFCURVE",
"1152 1764 OFFCURVE",
"1050 1809 CURVE",
"1135 1854 OFFCURVE",
"1196 1935 OFFCURVE",
"1196 2056 CURVE SMOOTH",
"1196 2107 OFFCURVE",
"1186 2151 OFFCURVE",
"1165 2189 CURVE SMOOTH",
"1108 2295 OFFCURVE",
"988 2367 OFFCURVE",
"825 2367 CURVE SMOOTH"
);
}
);
width = 2437;
}
);
unicode = 00B3;
},
{
glyphname = dblgravecmb;
lastChange = "2013-01-27 18:07:42 -0800";
layers = (
{
anchors = (
{
name = _top;
position = "{785, 2202}";
}
);
layerId = "E08CDE4C-5D6C-43D8-8149-5F9E51F0B944";
name = "Bold Condensed";
paths = (
{
closed = 1;
nodes = (
"332 2831 LINE",
"709 2404 LINE",
"873 2404 LINE",
"572 2831 LINE"
);
},
{
closed = 1;
nodes = (
"701 2831 LINE",
"1076 2404 LINE",
"1237 2404 LINE",
"941 2831 LINE"
);
}
);
width = 1982;
}
);
unicode = 030F;
},
{
glyphname = uni00B2;
lastChange = "2013-01-27 18:07:42 -0800";
layers = (
{
layerId = "E08CDE4C-5D6C-43D8-8149-5F9E51F0B944";
name = "Bold Condensed";
paths = (
{
closed = 1;
nodes = (
"779 2378 OFFCURVE",
"649 2283 OFFCURVE",
"591 2146 CURVE",
"707 2040 LINE",
"752 2136 OFFCURVE",
"829 2219 OFFCURVE",
"959 2219 CURVE SMOOTH",
"1067 2219 OFFCURVE",
"1151 2168 OFFCURVE",
"1151 2066 CURVE SMOOTH",
"1151 2028 OFFCURVE",
"1137 1985 OFFCURVE",
"1108 1939 CURVE SMOOTH",
"1079 1892 OFFCURVE",
"1041 1842 OFFCURVE",
"991 1786 CURVE SMOOTH",
"869 1652 OFFCURVE",
"725 1521 OFFCURVE",
"580 1388 CURVE",
"580 1237 LINE",
"1325 1237 LINE",
"1325 1398 LINE",
"828 1398 LINE",
"954 1507 OFFCURVE",
"1081 1612 OFFCURVE",
"1182 1734 CURVE SMOOTH",
"1255 1823 OFFCURVE",
"1327 1925 OFFCURVE",
"1327 2068 CURVE SMOOTH",
"1327 2116 OFFCURVE",
"1317 2158 OFFCURVE",
"1299 2197 CURVE SMOOTH",
"1246 2308 OFFCURVE",
"1129 2378 OFFCURVE",
"967 2378 CURVE SMOOTH"
);
}
);
width = 2437;
}
);
unicode = 00B2;
},
{
glyphname = commaaccentcomb;
lastChange = "2013-01-27 18:07:42 -0800";
layers = (
{
anchors = (
{
name = _bottom;
position = "{427, -427}";
}
);
layerId = "E08CDE4C-5D6C-43D8-8149-5F9E51F0B944";
name = "Bold Condensed";
paths = (
{
closed = 1;
nodes = (
"306 -648 LINE",
"160 -1280 LINE",
"339 -1280 LINE",
"561 -648 LINE"
);
}
);
width = 1106;
}
);
unicode = 0326;
},
{
glyphname = k.alt;
lastChange = "2013-01-27 18:07:42 -0800";
layers = (
{
anchors = (
{
name = bottom;
position = "{860, 0}";
}
);
layerId = "E08CDE4C-5D6C-43D8-8149-5F9E51F0B944";
name = "Bold Condensed";
paths = (
{
closed = 1;
nodes = (
"365 2083 LINE",
"365 0 LINE",
"536 0 LINE",
"851 468 OFFCURVE",
"1168 934 OFFCURVE",
"1484 1401 CURVE",
"1240 1401 LINE",
"590 421 LINE",
"590 2083 LINE"
);
},
{
closed = 1;
nodes = (
"911 662 LINE",
"1330 0 LINE",
"1577 0 LINE",
"1068 796 LINE"
);
}
);
width = 2216;
}
);
},
{
glyphname = uniF6C3;
lastChange = "2013-01-27 18:07:42 -0800";
layers = (
{
layerId = "E08CDE4C-5D6C-43D8-8149-5F9E51F0B944";
name = "Bold Condensed";
paths = (
{
closed = 1;
nodes = (
"371 -603 LINE",
"225 -1235 LINE",
"404 -1235 LINE",
"626 -603 LINE"
);
}
);
width = 1227;
}
);
},
{
glyphname = uni0311;
lastChange = "2013-01-27 18:07:42 -0800";
layers = (
{
anchors = (
{
name = _top;
position = "{451, 2232}";
}
);
layerId = "E08CDE4C-5D6C-43D8-8149-5F9E51F0B944";
name = "Bold Condensed";
paths = (
{
closed = 1;
nodes = (
"220 2817 OFFCURVE",
"83 2713 OFFCURVE",
"66 2494 CURVE",
"185 2494 LINE",
"205 2615 OFFCURVE",
"305 2671 OFFCURVE",
"444 2671 CURVE SMOOTH",
"583 2671 OFFCURVE",
"691 2609 OFFCURVE",
"718 2494 CURVE",
"836 2494 LINE",
"818 2705 OFFCURVE",
"680 2817 OFFCURVE",
"453 2817 CURVE SMOOTH"
);
}
);
width = 1288;
}
);
unicode = 0311;
},
{
glyphname = nine.alt;
lastChange = "2013-01-27 18:07:42 -0800";
layers = (
{
layerId = "E08CDE4C-5D6C-43D8-8149-5F9E51F0B944";
name = "Bold Condensed";
paths = (
{
closed = 1;
nodes = (
"751 1968 OFFCURVE",
"657 1952 OFFCURVE",
"573 1919 CURVE SMOOTH",
"348 1830 OFFCURVE",
"180 1634 OFFCURVE",
"180 1328 CURVE SMOOTH",
"180 1238 OFFCURVE",
"195 1154 OFFCURVE",
"224 1079 CURVE SMOOTH",
"309 861 OFFCURVE",
"505 712 OFFCURVE",
"804 712 CURVE SMOOTH",
"1050 712 OFFCURVE",
"1215 792 OFFCURVE",
"1313 950 CURVE",
"1313 917 LINE SMOOTH",
"1309 704 OFFCURVE",
"1257 512 OFFCURVE",
"1170 378 CURVE SMOOTH",
"1089 252 OFFCURVE",
"960 147 OFFCURVE",
"766 147 CURVE SMOOTH",
"607 147 OFFCURVE",
"481 199 OFFCURVE",
"383 304 CURVE",
"310 150 LINE",
"403 31 OFFCURVE",
"554 -47 OFFCURVE",
"762 -47 CURVE SMOOTH",
"889 -47 OFFCURVE",
"1001 -21 OFFCURVE",
"1099 31 CURVE SMOOTH",
"1403 192 OFFCURVE",
"1552 552 OFFCURVE",
"1552 1019 CURVE SMOOTH",
"1552 1172 OFFCURVE",
"1537 1309 OFFCURVE",
"1506 1426 CURVE SMOOTH",
"1425 1735 OFFCURVE",
"1233 1968 OFFCURVE",
"853 1968 CURVE SMOOTH"
);
},
{
closed = 1;
nodes = (
"915 1776 OFFCURVE",
"979 1762 OFFCURVE",
"1035 1736 CURVE SMOOTH",
"1181 1666 OFFCURVE",
"1297 1520 OFFCURVE",
"1297 1310 CURVE SMOOTH",
"1297 1247 OFFCURVE",
"1285 1191 OFFCURVE",
"1260 1141 CURVE SMOOTH",
"1192 1000 OFFCURVE",
"1046 903 OFFCURVE",
"841 903 CURVE SMOOTH",
"569 903 OFFCURVE",
"421 1066 OFFCURVE",
"421 1334 CURVE SMOOTH",
"421 1398 OFFCURVE",
"430 1456 OFFCURVE",
"451 1510 CURVE SMOOTH",
"507 1661 OFFCURVE",
"637 1776 OFFCURVE",
"843 1776 CURVE SMOOTH"
);
}
);
width = 2437;
}
);
},
{
glyphname = uni0307;
lastChange = "2013-01-27 18:07:42 -0800";
layers = (
{
anchors = (
{
name = _top;
position = "{486, 2251}";
}
);
layerId = "E08CDE4C-5D6C-43D8-8149-5F9E51F0B944";
name = "Bold Condensed";
paths = (
{
closed = 1;
nodes = (
"377 2775 LINE",
"377 2552 LINE",
"596 2552 LINE",
"596 2775 LINE"
);
}
);
width = 1073;
}
);
unicode = 0307;
},
{
glyphname = uni2074;
lastChange = "2013-01-27 18:07:42 -0800";
layers = (
{
layerId = "E08CDE4C-5D6C-43D8-8149-5F9E51F0B944";
name = "Bold Condensed";
paths = (
{
closed = 1;
nodes = (
"455 2348 LINE",
"-45 1641 LINE",
"-45 1517 LINE",
"471 1517 LINE",
"471 1260 LINE",
"635 1260 LINE",
"635 1517 LINE",
"800 1517 LINE",
"786 1663 LINE",
"638 1663 LINE",
"638 2348 LINE"
);
},
{
closed = 1;
nodes = (
"471 1663 LINE",
"145 1663 LINE",
"471 2119 LINE"
);
}
);
width = 1837;
}
);
unicode = 2074;
},
{
glyphname = uniFB01;
lastChange = "2013-01-27 18:07:42 -0800";
layers = (
{
layerId = "E08CDE4C-5D6C-43D8-8149-5F9E51F0B944";
name = "Bold Condensed";
paths = (
{
closed = 1;
nodes = (
"470 2067 OFFCURVE",
"373 1854 OFFCURVE",
"369 1554 CURVE SMOOTH",
"367 1401 LINE",
"92 1401 LINE",
"92 1255 LINE",
"367 1255 LINE",
"367 0 LINE",
"592 0 LINE",
"592 1255 LINE",
"1217 1255 LINE",
"1217 0 LINE",
"1443 0 LINE",
"1443 1401 LINE",
"592 1401 LINE",
"593 1587 LINE SMOOTH",
"593 1771 OFFCURVE",
"629 1883 OFFCURVE",
"813 1883 CURVE SMOOTH",
"863 1883 OFFCURVE",
"928 1876 OFFCURVE",
"963 1862 CURVE",
"961 2039 LINE",
"901 2052 OFFCURVE",
"850 2067 OFFCURVE",
"775 2067 CURVE SMOOTH"
);
},
{
closed = 1;
nodes = (
"1228 1996 LINE",
"1228 1785 LINE",
"1437 1785 LINE",
"1437 1996 LINE"
);
}
);
width = 2468;
}
);
unicode = FB01;
},
{
glyphname = uniFB02;
lastChange = "2013-01-27 18:07:42 -0800";
layers = (
{
layerId = "E08CDE4C-5D6C-43D8-8149-5F9E51F0B944";
name = "Bold Condensed";
paths = (
{
closed = 1;
nodes = (
"497 1785 OFFCURVE",
"380 1636 OFFCURVE",
"380 1291 CURVE SMOOTH",
"380 1094 LINE",
"104 1094 LINE",
"104 948 LINE",
"380 948 LINE",
"380 -353 LINE SMOOTH",
"380 -571 OFFCURVE",
"294 -715 OFFCURVE",
"130 -755 CURVE",
"159 -920 LINE",
"485 -877 OFFCURVE",
"604 -663 OFFCURVE",
"604 -322 CURVE SMOOTH",
"604 948 LINE",
"943 948 LINE",
"943 1094 LINE",
"604 1094 LINE",
"604 1322 LINE SMOOTH",
"604 1529 OFFCURVE",
"672 1617 OFFCURVE",
"832 1617 CURVE SMOOTH",
"881 1617 OFFCURVE",
"933 1606 OFFCURVE",
"983 1594 CURVE",
"1017 1740 LINE",
"929 1770 OFFCURVE",
"847 1785 OFFCURVE",
"773 1785 CURVE SMOOTH"
);
},
{
closed = 1;
nodes = (
"1219 1736 LINE",
"1219 103 LINE SMOOTH",
"1219 -135 OFFCURVE",
"1352 -322 OFFCURVE",
"1635 -322 CURVE SMOOTH",
"1709 -322 OFFCURVE",
"1821 -307 OFFCURVE",
"1931 -273 CURVE",
"1897 -98 LINE",
"1831 -119 OFFCURVE",
"1748 -137 OFFCURVE",
"1684 -137 CURVE SMOOTH",
"1549 -137 OFFCURVE",
"1442 -63 OFFCURVE",
"1442 92 CURVE SMOOTH",
"1442 1777 LINE"
);
}
);
width = 2836;
}
);
unicode = FB02;
},
{
glyphname = uni0217;
lastChange = "2013-01-27 18:07:42 -0800";
layers = (
{
layerId = "E08CDE4C-5D6C-43D8-8149-5F9E51F0B944";
name = "Bold Condensed";
paths = (
{
closed = 1;
nodes = (
"1247 1386 LINE",
"1247 568 LINE SMOOTH",
"1247 300 OFFCURVE",
"1059 144 OFFCURVE",
"833 144 CURVE SMOOTH",
"669 144 OFFCURVE",
"503 216 OFFCURVE",
"510 484 CURVE SMOOTH",
"518 798 LINE SMOOTH",
"531 1229 OFFCURVE",
"465 1386 OFFCURVE",
"465 1386 CURVE",
"240 1350 LINE",
"240 1350 OFFCURVE",
"305 1174 OFFCURVE",
"293 780 CURVE SMOOTH",
"285 484 LINE SMOOTH",
"274 94 OFFCURVE",
"535 -45 OFFCURVE",
"799 -45 CURVE SMOOTH",
"1015 -45 OFFCURVE",
"1185 40 OFFCURVE",
"1290 209 CURVE",
"1327 58 OFFCURVE",
"1474 -20 OFFCURVE",
"1607 -20 CURVE",
"1654 175 LINE",
"1583 175 OFFCURVE",
"1471 217 OFFCURVE",
"1471 376 CURVE SMOOTH",
"1471 1386 LINE"
);
},
{
closed = 1;
nodes = (
"670 1970 OFFCURVE",
"533 1866 OFFCURVE",
"515 1648 CURVE",
"634 1648 LINE",
"655 1768 OFFCURVE",
"755 1824 OFFCURVE",
"894 1824 CURVE SMOOTH",
"1033 1824 OFFCURVE",
"1141 1762 OFFCURVE",
"1168 1648 CURVE",
"1285 1648 LINE",
"1268 1858 OFFCURVE",
"1130 1970 OFFCURVE",
"903 1970 CURVE SMOOTH"
);
}
);
width = 2460;
}
);
unicode = 0217;
},
{
glyphname = uni0216;
lastChange = "2013-01-27 18:07:42 -0800";
layers = (
{
layerId = "E08CDE4C-5D6C-43D8-8149-5F9E51F0B944";
name = "Bold Condensed";
paths = (
{
closed = 1;
nodes = (
"1721 1973 LINE",
"1721 721 LINE SMOOTH",
"1721 366 OFFCURVE",
"1531 153 OFFCURVE",
"1187 153 CURVE SMOOTH",
"816 153 OFFCURVE",
"626 340 OFFCURVE",
"626 730 CURVE SMOOTH",
"626 1973 LINE",
"391 1973 LINE",
"391 724 LINE SMOOTH",
"391 200 OFFCURVE",
"666 -45 OFFCURVE",
"1190 -45 CURVE SMOOTH",
"1684 -45 OFFCURVE",
"1952 246 OFFCURVE",
"1954 737 CURVE SMOOTH",
"1954 1973 LINE"
);
},
{
closed = 1;
nodes = (
"940 2557 OFFCURVE",
"804 2454 OFFCURVE",
"786 2235 CURVE",
"904 2235 LINE",
"925 2355 OFFCURVE",
"1024 2411 OFFCURVE",
"1164 2411 CURVE SMOOTH",
"1303 2411 OFFCURVE",
"1411 2350 OFFCURVE",
"1438 2235 CURVE",
"1556 2235 LINE",
"1538 2445 OFFCURVE",
"1400 2557 OFFCURVE",
"1174 2557 CURVE SMOOTH"
);
}
